<?plantuml 1.2026.2?><svg xmlns="http://www.w3.org/2000/svg" xmlns:xlink="http://www.w3.org/1999/xlink" contentStyleType="text/css" data-diagram-type="CLASS" height="760px" preserveAspectRatio="none" style="width:2933px;height:760px;background:#FFFFFF;" version="1.1" viewBox="0 0 2933 760" width="2933px" zoomAndPan="magnify"><title>CliCommand Hierarchy</title><defs/><g><g class="title" data-source-line="4"><text fill="#000000" font-family="sans-serif" font-size="14" font-weight="bold" lengthAdjust="spacing" textLength="165.9082" x="1377.0158" y="23.5352">CliCommand Hierarchy</text></g><!--cluster OsLib--><g class="cluster" data-qualified-name="OsLib" data-source-line="6" id="ent0002"><path d="M8.5,88.8783 L50.9121,88.8783 A3.75,3.75 0 0 1 53.4121,91.3783 L60.4121,111.3666 L1165.5,111.3666 A2.5,2.5 0 0 1 1168,113.8666 L1168,751.1483 A2.5,2.5 0 0 1 1165.5,753.6483 L8.5,753.6483 A2.5,2.5 0 0 1 6,751.1483 L6,91.3783 A2.5,2.5 0 0 1 8.5,88.8783" fill="none" style="stroke:#000000;stroke-width:1.5;"/><line style="stroke:#000000;stroke-width:1.5;" x1="6" x2="60.4121" y1="111.3666" y2="111.3666"/><text fill="#000000" font-family="sans-serif" font-size="14" font-weight="bold" lengthAdjust="spacing" textLength="41.4121" x="10" y="104.4134">OsLib</text></g><!--cluster RaiImage--><g class="cluster" data-qualified-name="RaiImage" data-source-line="41" id="ent0009"><path d="M1194.5,125.8583 L1261.8291,125.8583 A3.75,3.75 0 0 1 1264.3291,128.3583 L1271.3291,148.3466 L2193.5,148.3466 A2.5,2.5 0 0 1 2196,150.8466 L2196,533.2183 A2.5,2.5 0 0 1 2193.5,535.7183 L1194.5,535.7183 A2.5,2.5 0 0 1 1192,533.2183 L1192,128.3583 A2.5,2.5 0 0 1 1194.5,125.8583" fill="none" style="stroke:#000000;stroke-width:1.5;"/><line style="stroke:#000000;stroke-width:1.5;" x1="1192" x2="1271.3291" y1="148.3466" y2="148.3466"/><text fill="#000000" font-family="sans-serif" font-size="14" font-weight="bold" lengthAdjust="spacing" textLength="66.3291" x="1196" y="141.3934">RaiImage</text></g><!--class CliCommand--><g class="entity" data-qualified-name="OsLib.CliCommand" data-source-line="7" id="ent0003"><rect fill="#F1F1F1" height="229.3711" rx="2.5" ry="2.5" style="stroke:#181818;stroke-width:0.5;" width="770.7617" x="381.62" y="123.8783"/><ellipse cx="719.0316" cy="139.8783" fill="#A9DCDF" rx="11" ry="11" style="stroke:#181818;stroke-width:1;"/><path d="M718.8949,135.2264 L717.7411,140.2982 L720.057,140.2982 Z M717.4008,132.9852 L720.3973,132.9852 L723.7426,145.3783 L721.2938,145.3783 L720.5302,142.3153 L717.2513,142.3153 L716.5043,145.3783 L714.0555,145.3783 Z " fill="#000000"/><text fill="#000000" font-family="sans-serif" font-size="14" font-style="italic" lengthAdjust="spacing" textLength="87.4385" x="739.5316" y="145.1693">CliCommand</text><line style="stroke:#181818;stroke-width:0.5;" x1="382.62" x2="1151.3817" y1="155.8783" y2="155.8783"/><text fill="#000000" font-family="sans-serif" font-size="14" lengthAdjust="spacing" textLength="176.3877" x="387.62" y="173.4134">+ExecutableName : string</text><text fill="#000000" font-family="sans-serif" font-size="14" lengthAdjust="spacing" textLength="158.0127" x="387.62" y="189.9017">+PackageName : string</text><text fill="#000000" font-family="sans-serif" font-size="14" lengthAdjust="spacing" textLength="152.5029" x="387.62" y="206.39">+DisplayName : string</text><text fill="#000000" font-family="sans-serif" font-size="14" lengthAdjust="spacing" textLength="319.3682" x="387.62" y="222.8783">+CandidateExecutables : IEnumerable&lt;string&gt;</text><line style="stroke:#181818;stroke-width:0.5;" x1="382.62" x2="1151.3817" y1="229.8314" y2="229.8314"/><text fill="#000000" font-family="sans-serif" font-size="14" lengthAdjust="spacing" textLength="135.8711" x="387.62" y="247.3666">+IsAvailable() : bool</text><text fill="#000000" font-family="sans-serif" font-size="14" lengthAdjust="spacing" textLength="363.8975" x="387.62" y="263.8548">+TryResolveExecutable(out executable : string) : bool</text><text fill="#000000" font-family="sans-serif" font-size="14" lengthAdjust="spacing" textLength="198.0303" x="387.62" y="280.3431">+ResolveExecutable() : string</text><text fill="#000000" font-family="sans-serif" font-size="14" lengthAdjust="spacing" textLength="326.3545" x="387.62" y="296.8314">+Run(arguments : string = "") : RaiSystemResult</text><text fill="#000000" font-family="sans-serif" font-size="14" lengthAdjust="spacing" textLength="758.7617" x="387.62" y="313.3197">+RunAsync(arguments : string = "", cancellationToken : CancellationToken = default) : Task&lt;RaiSystemResult&gt;</text><text fill="#000000" font-family="sans-serif" font-size="14" lengthAdjust="spacing" textLength="206.8213" x="387.62" y="329.808">+GetInstallCommand() : string</text><text fill="#000000" font-family="sans-serif" font-size="14" lengthAdjust="spacing" textLength="213.9922" x="387.62" y="346.2963">+GetUpdateCommand() : string</text></g><!--class CurlCommand--><g class="entity" data-qualified-name="OsLib.CurlCommand" data-source-line="21" id="ent0004"><rect fill="#F1F1F1" height="32" rx="2.5" ry="2.5" style="stroke:#181818;stroke-width:0.5;" width="129.8086" x="667.1" y="458.9883"/><ellipse cx="682.1" cy="474.9883" fill="#ADD1B2" rx="11" ry="11" style="stroke:#181818;stroke-width:1;"/><path d="M684.5731,481.1313 Q683.9921,481.4302 683.3529,481.5796 Q682.7138,481.729 682.0082,481.729 Q679.5014,481.729 678.1815,480.0771 Q676.8617,478.4253 676.8617,475.3042 Q676.8617,472.1748 678.1815,470.5229 Q679.5014,468.8711 682.0082,468.8711 Q682.7138,468.8711 683.3612,469.0205 Q684.0087,469.1699 684.5731,469.4687 L684.5731,472.1914 Q683.9423,471.6104 683.3488,471.3406 Q682.7553,471.0708 682.1244,471.0708 Q680.7797,471.0708 680.0949,472.1375 Q679.4101,473.2041 679.4101,475.3042 Q679.4101,477.396 680.0949,478.4626 Q680.7797,479.5293 682.1244,479.5293 Q682.7553,479.5293 683.3488,479.2595 Q683.9423,478.9897 684.5731,478.4087 Z " fill="#000000"/><text fill="#000000" font-family="sans-serif" font-size="14" lengthAdjust="spacing" textLength="97.8086" x="696.1" y="480.2793">CurlCommand</text></g><!--class ZipCommand--><g class="entity" data-qualified-name="OsLib.ZipCommand" data-source-line="22" id="ent0005"><rect fill="#F1F1F1" height="32" rx="2.5" ry="2.5" style="stroke:#181818;stroke-width:0.5;" width="122.9795" x="831.51" y="458.9883"/><ellipse cx="846.51" cy="474.9883" fill="#ADD1B2" rx="11" ry="11" style="stroke:#181818;stroke-width:1;"/><path d="M848.9831,481.1313 Q848.4021,481.4302 847.7629,481.5796 Q847.1238,481.729 846.4182,481.729 Q843.9114,481.729 842.5915,480.0771 Q841.2717,478.4253 841.2717,475.3042 Q841.2717,472.1748 842.5915,470.5229 Q843.9114,468.8711 846.4182,468.8711 Q847.1238,468.8711 847.7712,469.0205 Q848.4187,469.1699 848.9831,469.4687 L848.9831,472.1914 Q848.3523,471.6104 847.7588,471.3406 Q847.1653,471.0708 846.5344,471.0708 Q845.1897,471.0708 844.5049,472.1375 Q843.8201,473.2041 843.8201,475.3042 Q843.8201,477.396 844.5049,478.4626 Q845.1897,479.5293 846.5344,479.5293 Q847.1653,479.5293 847.7588,479.2595 Q848.3523,478.9897 848.9831,478.4087 Z " fill="#000000"/><text fill="#000000" font-family="sans-serif" font-size="14" lengthAdjust="spacing" textLength="90.9795" x="860.51" y="480.2793">ZipCommand</text></g><!--class SevenZipCommand--><g class="entity" data-qualified-name="OsLib.SevenZipCommand" data-source-line="23" id="ent0006"><rect fill="#F1F1F1" height="32" rx="2.5" ry="2.5" style="stroke:#181818;stroke-width:0.5;" width="162.0537" x="989.97" y="458.9883"/><ellipse cx="1004.97" cy="474.9883" fill="#ADD1B2" rx="11" ry="11" style="stroke:#181818;stroke-width:1;"/><path d="M1007.4431,481.1313 Q1006.8621,481.4302 1006.2229,481.5796 Q1005.5838,481.729 1004.8782,481.729 Q1002.3714,481.729 1001.0515,480.0771 Q999.7317,478.4253 999.7317,475.3042 Q999.7317,472.1748 1001.0515,470.5229 Q1002.3714,468.8711 1004.8782,468.8711 Q1005.5838,468.8711 1006.2312,469.0205 Q1006.8787,469.1699 1007.4431,469.4687 L1007.4431,472.1914 Q1006.8123,471.6104 1006.2188,471.3406 Q1005.6253,471.0708 1004.9944,471.0708 Q1003.6497,471.0708 1002.9649,472.1375 Q1002.2801,473.2041 1002.2801,475.3042 Q1002.2801,477.396 1002.9649,478.4626 Q1003.6497,479.5293 1004.9944,479.5293 Q1005.6253,479.5293 1006.2188,479.2595 Q1006.8123,478.9897 1007.4431,478.4087 Z " fill="#000000"/><text fill="#000000" font-family="sans-serif" font-size="14" lengthAdjust="spacing" textLength="130.0537" x="1018.97" y="480.2793">SevenZipCommand</text></g><!--class RaiSystem--><g class="entity" data-qualified-name="OsLib.RaiSystem" data-source-line="25" id="ent0007"><rect fill="#F1F1F1" height="89.4648" rx="2.5" ry="2.5" style="stroke:#181818;stroke-width:0.5;" width="610.7051" x="21.65" y="430.2583"/><ellipse cx="288.3883" cy="446.2583" fill="#ADD1B2" rx="11" ry="11" style="stroke:#181818;stroke-width:1;"/><path d="M290.8614,452.4013 Q290.2804,452.7002 289.6412,452.8496 Q289.0021,452.999 288.2965,452.999 Q285.7896,452.999 284.4698,451.3471 Q283.15,449.6953 283.15,446.5742 Q283.15,443.4448 284.4698,441.7929 Q285.7896,440.1411 288.2965,440.1411 Q289.0021,440.1411 289.6495,440.2905 Q290.297,440.4399 290.8614,440.7388 L290.8614,443.4614 Q290.2306,442.8804 289.6371,442.6106 Q289.0436,442.3408 288.4127,442.3408 Q287.068,442.3408 286.3832,443.4075 Q285.6983,444.4741 285.6983,446.5742 Q285.6983,448.666 286.3832,449.7326 Q287.068,450.7993 288.4127,450.7993 Q289.0436,450.7993 289.6371,450.5295 Q290.2306,450.2597 290.8614,449.6787 Z " fill="#000000"/><text fill="#000000" font-family="sans-serif" font-size="14" lengthAdjust="spacing" textLength="68.7285" x="308.8883" y="451.5493">RaiSystem</text><line style="stroke:#181818;stroke-width:0.5;" x1="22.65" x2="631.3551" y1="462.2583" y2="462.2583"/><text fill="#000000" font-family="sans-serif" font-size="14" lengthAdjust="spacing" textLength="191.3857" x="27.65" y="479.7934">+Exec(out msg : string) : int</text><text fill="#000000" font-family="sans-serif" font-size="14" lengthAdjust="spacing" textLength="598.7051" x="27.65" y="496.2817">+ExecAsync(cancellationToken : CancellationToken = default) : Task&lt;RaiSystemResult&gt;</text><text fill="#000000" font-family="sans-serif" font-size="14" lengthAdjust="spacing" textLength="219.3652" x="27.65" y="512.77">+Start() : Task&lt;ProcessResults&gt;</text></g><!--class RaiSystemResult--><g class="entity" data-qualified-name="OsLib.RaiSystemResult" data-source-line="31" id="ent0008"><rect fill="#F1F1F1" height="138.9297" rx="2.5" ry="2.5" style="stroke:#181818;stroke-width:0.5;" width="173.6426" x="599.18" y="598.7183"/><ellipse cx="628.199" cy="614.7183" fill="#ADD1B2" rx="11" ry="11" style="stroke:#181818;stroke-width:1;"/><path d="M630.6721,620.8613 Q630.0911,621.1602 629.4519,621.3096 Q628.8128,621.459 628.1072,621.459 Q625.6004,621.459 624.2805,619.8071 Q622.9607,618.1553 622.9607,615.0342 Q622.9607,611.9048 624.2805,610.2529 Q625.6004,608.6011 628.1072,608.6011 Q628.8128,608.6011 629.4602,608.7505 Q630.1077,608.8999 630.6721,609.1987 L630.6721,611.9214 Q630.0413,611.3404 629.4478,611.0706 Q628.8543,610.8008 628.2234,610.8008 Q626.8787,610.8008 626.1939,611.8675 Q625.5091,612.9341 625.5091,615.0342 Q625.5091,617.126 626.1939,618.1926 Q626.8787,619.2593 628.2234,619.2593 Q628.8543,619.2593 629.4478,618.9895 Q630.0413,618.7197 630.6721,618.1387 Z " fill="#000000"/><text fill="#000000" font-family="sans-serif" font-size="14" lengthAdjust="spacing" textLength="110.4893" x="645.3143" y="620.0093">RaiSystemResult</text><line style="stroke:#181818;stroke-width:0.5;" x1="600.18" x2="771.8226" y1="630.7183" y2="630.7183"/><text fill="#000000" font-family="sans-serif" font-size="14" lengthAdjust="spacing" textLength="133.6426" x="605.18" y="648.2534">+Command : string</text><text fill="#000000" font-family="sans-serif" font-size="14" lengthAdjust="spacing" textLength="138.7217" x="605.18" y="664.7417">+Arguments : string</text><text fill="#000000" font-family="sans-serif" font-size="14" lengthAdjust="spacing" textLength="161.6426" x="605.18" y="681.23">+CommandLine : string</text><text fill="#000000" font-family="sans-serif" font-size="14" lengthAdjust="spacing" textLength="111.5215" x="605.18" y="697.7183">+Output : string</text><text fill="#000000" font-family="sans-serif" font-size="14" lengthAdjust="spacing" textLength="102.7441" x="605.18" y="714.2066">+ExitCode : int</text><text fill="#000000" font-family="sans-serif" font-size="14" lengthAdjust="spacing" textLength="150.8623" x="605.18" y="730.6948">+WorkerThreadId : int</text></g><!--class ImageMagickCommand--><g class="entity" data-qualified-name="RaiImage.ImageMagickCommand" data-source-line="42" id="ent0010"><rect fill="#F1F1F1" height="89.4648" rx="2.5" ry="2.5" style="stroke:#181818;stroke-width:0.5;" width="972.9551" x="1207.52" y="430.2583"/><ellipse cx="1610.2763" cy="446.2583" fill="#ADD1B2" rx="11" ry="11" style="stroke:#181818;stroke-width:1;"/><path d="M1612.7495,452.4013 Q1612.1684,452.7002 1611.5293,452.8496 Q1610.8901,452.999 1610.1846,452.999 Q1607.6777,452.999 1606.3579,451.3471 Q1605.0381,449.6953 1605.0381,446.5742 Q1605.0381,443.4448 1606.3579,441.7929 Q1607.6777,440.1411 1610.1846,440.1411 Q1610.8901,440.1411 1611.5376,440.2905 Q1612.185,440.4399 1612.7495,440.7388 L1612.7495,443.4614 Q1612.1186,442.8804 1611.5251,442.6106 Q1610.9316,442.3408 1610.3008,442.3408 Q1608.956,442.3408 1608.2712,443.4075 Q1607.5864,444.4741 1607.5864,446.5742 Q1607.5864,448.666 1608.2712,449.7326 Q1608.956,450.7993 1610.3008,450.7993 Q1610.9316,450.7993 1611.5251,450.5295 Q1612.1186,450.2597 1612.7495,449.6787 Z " fill="#000000"/><text fill="#000000" font-family="sans-serif" font-size="14" lengthAdjust="spacing" textLength="158.9424" x="1630.7763" y="451.5493">ImageMagickCommand</text><line style="stroke:#181818;stroke-width:0.5;" x1="1208.52" x2="2179.4751" y1="462.2583" y2="462.2583"/><text fill="#000000" font-family="sans-serif" font-size="14" lengthAdjust="spacing" textLength="447.5967" x="1213.52" y="479.7934">+BuildArguments(subcommand : string, args : string = "") : string</text><text fill="#000000" font-family="sans-serif" font-size="14" lengthAdjust="spacing" textLength="528.5479" x="1213.52" y="496.2817">+RunSubcommand(subcommand : string, args : string = "") : RaiSystemResult</text><text fill="#000000" font-family="sans-serif" font-size="14" lengthAdjust="spacing" textLength="960.9551" x="1213.52" y="512.77">+RunSubcommandAsync(subcommand : string, args : string = "", cancellationToken : CancellationToken = default) : Task&lt;RaiSystemResult&gt;</text></g><!--class ImageMagick--><g class="entity" data-qualified-name="RaiImage.ImageMagick" data-source-line="48" id="ent0011"><rect fill="#F1F1F1" height="155.418" rx="2.5" ry="2.5" style="stroke:#181818;stroke-width:0.5;" width="421.9922" x="1687" y="160.8583"/><ellipse cx="1849.104" cy="176.8583" fill="#ADD1B2" rx="11" ry="11" style="stroke:#181818;stroke-width:1;"/><path d="M1851.5771,183.0013 Q1850.9961,183.3002 1850.3569,183.4496 Q1849.7178,183.599 1849.0122,183.599 Q1846.5054,183.599 1845.1855,181.9471 Q1843.8657,180.2953 1843.8657,177.1742 Q1843.8657,174.0448 1845.1855,172.3929 Q1846.5054,170.7411 1849.0122,170.7411 Q1849.7178,170.7411 1850.3652,170.8905 Q1851.0127,171.0399 1851.5771,171.3388 L1851.5771,174.0614 Q1850.9463,173.4804 1850.3528,173.2106 Q1849.7593,172.9408 1849.1284,172.9408 Q1847.7837,172.9408 1847.0989,174.0075 Q1846.4141,175.0741 1846.4141,177.1742 Q1846.4141,179.266 1847.0989,180.3326 Q1847.7837,181.3993 1849.1284,181.3993 Q1849.7593,181.3993 1850.3528,181.1295 Q1850.9463,180.8597 1851.5771,180.2787 Z " fill="#000000"/><text fill="#000000" font-family="sans-serif" font-size="14" lengthAdjust="spacing" textLength="89.2842" x="1869.604" y="182.1493">ImageMagick</text><line style="stroke:#181818;stroke-width:0.5;" x1="1688" x2="2107.9922" y1="192.8583" y2="192.8583"/><text fill="#000000" font-family="sans-serif" font-size="14" lengthAdjust="spacing" textLength="249.0605" x="1693" y="210.3934">+Convert(commandline : string) : int</text><text fill="#000000" font-family="sans-serif" font-size="14" lengthAdjust="spacing" textLength="378.2666" x="1693" y="226.8817">+Convert(options : string, from : string, to : string) : int</text><text fill="#000000" font-family="sans-serif" font-size="14" lengthAdjust="spacing" textLength="247.7002" x="1693" y="243.37">+Mogrify(commandline : string) : int</text><text fill="#000000" font-family="sans-serif" font-size="14" lengthAdjust="spacing" textLength="269.0625" x="1693" y="259.8583">+Composite(commandline : string) : int</text><text fill="#000000" font-family="sans-serif" font-size="14" lengthAdjust="spacing" textLength="409.9922" x="1693" y="276.3466">+Identify(options : string, image : string, result : string) : int</text><text fill="#000000" font-family="sans-serif" font-size="14" lengthAdjust="spacing" textLength="246.668" x="1693" y="292.8348">+OptiPng(imgFileName : string) : int</text><text fill="#000000" font-family="sans-serif" font-size="14" lengthAdjust="spacing" textLength="253.2373" x="1693" y="309.3231">+JpegTran(imgFileName : string) : int</text></g><g class="entity" data-qualified-name="GMN20" data-source-line="70" id="ent0021"><path d="M2212.44,202.9483 L2212.44,274.1905 L2521.5665,274.1905 L2521.5665,212.9483 L2511.5665,202.9483 L2212.44,202.9483" fill="#FEFFDD" style="stroke:#181818;stroke-width:0.5;"/><path d="M2511.5665,202.9483 L2511.5665,212.9483 L2521.5665,212.9483 L2511.5665,202.9483" fill="#FEFFDD" style="stroke:#181818;stroke-width:1;"/><text fill="#000000" font-family="sans-serif" font-size="13" lengthAdjust="spacing" textLength="222.1997" x="2218.44" y="220.5166">Base abstraction for local CLI tools.</text><text fill="#000000" font-family="sans-serif" font-size="13" lengthAdjust="spacing" textLength="262.1963" x="2218.44" y="235.8272">Executable resolution, availability checks,</text><text fill="#000000" font-family="sans-serif" font-size="13" lengthAdjust="spacing" textLength="288.1265" x="2218.44" y="251.1377">install/update command hints, and execution</text><text fill="#000000" font-family="sans-serif" font-size="13" lengthAdjust="spacing" textLength="129.6763" x="2218.44" y="266.4483">are centralized here.</text></g><g class="entity" data-qualified-name="GMN23" data-source-line="77" id="ent0024"><path d="M2215.96,447.0183 L2215.96,502.9499 L2518.0406,502.9499 L2518.0406,457.0183 L2508.0406,447.0183 L2215.96,447.0183" fill="#FEFFDD" style="stroke:#181818;stroke-width:0.5;"/><path d="M2508.0406,447.0183 L2508.0406,457.0183 L2518.0406,457.0183 L2508.0406,447.0183" fill="#FEFFDD" style="stroke:#181818;stroke-width:1;"/><text fill="#000000" font-family="sans-serif" font-size="13" lengthAdjust="spacing" textLength="281.0806" x="2221.96" y="464.5866">ExecAsync dispatches external process work</text><text fill="#000000" font-family="sans-serif" font-size="13" lengthAdjust="spacing" textLength="278.4526" x="2221.96" y="479.8972">on a worker thread so callers do not run the</text><text fill="#000000" font-family="sans-serif" font-size="13" lengthAdjust="spacing" textLength="259.4731" x="2221.96" y="495.2077">OS process directly on the calling thread.</text></g><g class="entity" data-qualified-name="GMN26" data-source-line="83" id="ent0027"><path d="M2557.06,210.5983 L2557.06,266.5299 L2926.9399,266.5299 L2926.9399,220.5983 L2916.9399,210.5983 L2557.06,210.5983" fill="#FEFFDD" style="stroke:#181818;stroke-width:0.5;"/><path d="M2916.9399,210.5983 L2916.9399,220.5983 L2926.9399,220.5983 L2916.9399,210.5983" fill="#FEFFDD" style="stroke:#181818;stroke-width:1;"/><text fill="#000000" font-family="sans-serif" font-size="13" lengthAdjust="spacing" textLength="277.5322" x="2563.06" y="228.1666">Legacy wrapper preserved as the image API.</text><text fill="#000000" font-family="sans-serif" font-size="13" lengthAdjust="spacing" textLength="235.6694" x="2563.06" y="243.4772">Process execution now flows through</text><text fill="#000000" font-family="sans-serif" font-size="13" lengthAdjust="spacing" textLength="348.8799" x="2563.06" y="258.7877">ImageMagickCommand -&gt; CliCommand -&gt; RaiSystem.</text></g><!--reverse link CliCommand to CurlCommand--><g class="link" data-entity-1="ent0003" data-entity-2="ent0004" data-link-type="extension" data-source-line="59" id="lnk12"><path codeLine="59" d="M747.3014,371.4909 C741.1114,412.9409 737.51,437.1083 734.26,458.8283" fill="none" id="CliCommand-backto-CurlCommand" style="stroke:#181818;stroke-width:1;"/><polygon fill="none" points="749.96,353.6883,741.3672,370.6047,753.2356,372.3771,749.96,353.6883" style="stroke:#181818;stroke-width:1;"/></g><!--reverse link CliCommand to ZipCommand--><g class="link" data-entity-1="ent0003" data-entity-2="ent0005" data-link-type="extension" data-source-line="60" id="lnk13"><path codeLine="60" d="M836.8622,369.543 C859.1422,410.993 873.18,437.1083 884.85,458.8283" fill="none" id="CliCommand-backto-ZipCommand" style="stroke:#181818;stroke-width:1;"/><polygon fill="none" points="828.34,353.6883,831.5772,372.3837,842.1471,366.7023,828.34,353.6883" style="stroke:#181818;stroke-width:1;"/></g><!--reverse link CliCommand to SevenZipCommand--><g class="link" data-entity-1="ent0003" data-entity-2="ent0006" data-link-type="extension" data-source-line="61" id="lnk14"><path codeLine="61" d="M929.2449,364.6791 C983.0049,406.1291 1023.17,437.1083 1051.35,458.8283" fill="none" id="CliCommand-backto-SevenZipCommand" style="stroke:#181818;stroke-width:1;"/><polygon fill="none" points="914.99,353.6883,925.5813,369.4307,932.9085,359.9275,914.99,353.6883" style="stroke:#181818;stroke-width:1;"/></g><!--reverse link CliCommand to ImageMagickCommand--><g class="link" data-entity-1="ent0003" data-entity-2="ent0010" data-link-type="extension" data-source-line="62" id="lnk15"><path codeLine="62" d="M1170.3002,347.7313 C1183.4902,351.1313 1179.14,349.9883 1192,353.2583 C1295.39,379.5083 1411.13,407.4483 1505.4,429.8183" fill="none" id="CliCommand-backto-ImageMagickCommand" style="stroke:#181818;stroke-width:1;"/><polygon fill="none" points="1152.87,343.2383,1168.8026,353.5414,1171.7979,341.9212,1152.87,343.2383" style="stroke:#181818;stroke-width:1;"/></g><!--link CliCommand to RaiSystem--><g class="link" data-entity-1="ent0003" data-entity-2="ent0007" data-link-type="dependency" data-source-line="64" id="lnk16"><path codeLine="64" d="M552.8,353.6883 C501.99,380.7583 456.0554,405.2272 415.2654,426.9572" fill="none" id="CliCommand-to-RaiSystem" style="stroke:#181818;stroke-width:1;stroke-dasharray:7,7;"/><polygon fill="#181818" points="409.97,429.7783,419.7939,429.077,414.3829,427.4274,416.0325,422.0164,409.97,429.7783" style="stroke:#181818;stroke-width:1;"/><text fill="#000000" font-family="sans-serif" font-size="13" lengthAdjust="spacing" textLength="45.1318" x="495.65" y="396.8266">creates</text></g><!--link RaiSystem to RaiSystemResult--><g class="link" data-entity-1="ent0007" data-entity-2="ent0008" data-link-type="dependency" data-source-line="65" id="lnk17"><path codeLine="65" d="M409.81,520.0883 C466.45,550.2583 536.0941,587.3481 593.6141,617.9781" fill="none" id="RaiSystem-to-RaiSystemResult" style="stroke:#181818;stroke-width:1;"/><polygon fill="#181818" points="598.91,620.7983,592.8462,613.0375,594.4967,618.4482,589.086,620.0987,598.91,620.7983" style="stroke:#181818;stroke-width:1;"/><text fill="#000000" font-family="sans-serif" font-size="13" lengthAdjust="spacing" textLength="45.5063" x="496.74" y="565.2866">returns</text></g><!--link ImageMagick to ImageMagickCommand--><g class="link" data-entity-1="ent0011" data-entity-2="ent0010" data-link-type="dependency" data-source-line="66" id="lnk18"><path codeLine="66" d="M1830.92,316.6483 C1798.17,354.2783 1763.8983,393.6617 1736.1783,425.5217" fill="none" id="ImageMagick-to-ImageMagickCommand" style="stroke:#181818;stroke-width:1;"/><polygon fill="#181818" points="1732.24,430.0483,1741.1652,425.884,1735.5219,426.2762,1735.1298,420.6329,1732.24,430.0483" style="stroke:#181818;stroke-width:1;"/><text fill="#000000" font-family="sans-serif" font-size="13" lengthAdjust="spacing" textLength="77.4033" x="1772.73" y="396.8266">delegates to</text></g><!--link ImageMagickCommand to RaiSystemResult--><g class="link" data-entity-1="ent0010" data-entity-2="ent0008" data-link-type="dependency" data-source-line="67" id="lnk19"><path codeLine="67" d="M1460.85,520.2083 C1241.47,561.8183 930.6049,620.7902 779.0749,649.5302" fill="none" id="ImageMagickCommand-to-RaiSystemResult" style="stroke:#181818;stroke-width:1;stroke-dasharray:7,7;"/><polygon fill="#181818" points="773.18,650.6483,782.7677,652.9011,778.0924,649.7166,781.277,645.0413,773.18,650.6483" style="stroke:#181818;stroke-width:1;"/></g><!--link CliCommand to GMN20--><g class="link" data-entity-1="ent0003" data-entity-2="ent0021" data-link-type="association" data-source-line="70" id="lnk22"><path d="M1014.35,123.4583 C1076.72,99.6583 1144.46,78.1283 1209.5,65.8783 C1262.4,55.9283 2128.01,47.2083 2178.5,65.8783 C2249.68,92.2183 2309.87,160.4183 2342,202.8083" fill="none" id="CliCommand-GMN20" style="stroke:#181818;stroke-width:1;stroke-dasharray:7,7;"/></g><!--link RaiSystem to GMN23--><g class="link" data-entity-1="ent0007" data-entity-2="ent0024" data-link-type="association" data-source-line="77" id="lnk25"><path d="M478.12,429.8083 C536.69,414.4783 604.66,399.3183 667.5,391.7583 C834.18,371.6783 2014.23,357.0983 2178.5,391.7583 C2228.38,402.2783 2281.14,426.8783 2318.11,446.6183" fill="none" id="RaiSystem-GMN23" style="stroke:#181818;stroke-width:1;stroke-dasharray:7,7;"/></g><!--link ImageMagick to GMN26--><g class="link" data-entity-1="ent0011" data-entity-2="ent0027" data-link-type="association" data-source-line="83" id="lnk28"><path d="M2007.59,160.5483 C2065.55,124.0483 2139.64,84.5683 2212.5,65.8783 C2279.01,48.8183 2456.59,43.4883 2521.5,65.8783 C2604.7,94.5883 2680.47,169.0283 2717.73,210.1783" fill="none" id="ImageMagick-GMN26" style="stroke:#181818;stroke-width:1;stroke-dasharray:7,7;"/></g><?plantuml-src hLPBRzim33vRluBeASFQRkUY3P1ctUQXMuicmu3T59bnXCYI8SbflQt_VPGTEugJlO3TBF8Z-OaFqMujTSajBq0exjp4UoiNbSTK63sJtn1UivNC4B0eVGq55WkqZZ4llKAOAZarHS5r1kybMcx5gcQiv6BDSuIJEtSh5oVmdILyuRpbmhT1OZjI9Yzldb1KdYyKVk85mWKGMkeygEvRPmVoDzALYjS7yYavbHdtkFFf293UwAeWXdIyRC7ZW4xTPCEb2kBH2u8jZ551FhVr0pgZDf6RaQayO7_ieyPsXqOlzjWzL7h4RKvKj7Uz1gxWv2G07xYSrSvZGNugvRSM4rThyIkpKn1S2rIAUsdqtAnH4s1w8Bk239USd8OuS-xMbuDWJJxUeK-ryrofRNq6_4d_kGpPFQP-PYpPrhUodODEz5MM0yaCDwWZSIVlUUrweqbzuVAzd4ljEtsReV-PY9ddrezwoBqr0frh0MuSttLWtPBkkZlEtUIWW17oLkhzFhwhV4cNZaKtJz9FJOQxktynTerslhB8ipJhvC_iEHf2ufSMzDNCOKkvEN_akHJhlJ6yhgJAUfeZLot4u1wdG6ruf77tEdpMs_sBY-Ezl_FLrlWl7VxFgTYLEifRLsQzGUgJBIKL5p5gqGvcoX3PHSoNrXJHqPjZvXzDRkMo_dEKeZHEUlmJCCselC7X8HyPRXYTRTlJHvpSaUszpaUooD_AmRiTmJwKcCyjrx_7DHqRBONB7sTdUu_8K1Sz6qFLy5aPwW-RVo_q-VauUe4kGD1iUNHi9pix6nyC_GLbobTMEnRtI40UcRKBQZg5UN1B5MT747iajlF0jF48LkOh3sOPhL2MN7E7qArOgYWiZGLb15SmlKqfXb7kd2MxhHJgQbGLi3GzxGQKIjA25oiKQtVA4jckWLTLyzn3DtGhgfSZ6_fiLo6veFLk2K5DPRcYNmP2eSLpXWGAf8VK-vkrb9h1XepsEVSKtf5ZZrOJ-R9zTU6HdZcMqBruyuaMVFFaWJCqvqhH7mba9iG2MsbI8alkPhrv9YqAhsemZQun2Gz5w-JNFAF2iEIM2YPgUBIyB8b0IHb4kw6xSjSuRITdSfzIehVROfSXSly8IsKU0zQQAb-nv4ZPgLsYJepRB2Bv4m00?></g></svg>