<?plantuml 1.2026.2?><svg xmlns="http://www.w3.org/2000/svg" xmlns:xlink="http://www.w3.org/1999/xlink" contentStyleType="text/css" data-diagram-type="DESCRIPTION" height="744px" preserveAspectRatio="none" style="width:1605px;height:744px;background:#FFFFFF;" version="1.1" viewBox="0 0 1605 744" width="1605px" zoomAndPan="magnify"><title>RAIkeep Package Dependencies</title><defs/><g><g class="title" data-source-line="1"><text fill="#000000" font-family="sans-serif" font-size="14" font-weight="bold" lengthAdjust="spacing" textLength="227.9512" x="681.6394" y="23.5352">RAIkeep Package Dependencies</text></g><!--cluster P_OsLib--><g class="cluster" data-qualified-name="P_OsLib" data-source-line="19" id="ent0002"><rect fill="#F9FAFB" height="251.88" rx="2.5" ry="2.5" style="stroke:#6B7280;stroke-width:1;" width="245" x="70" y="269.9383"/><text fill="#000000" font-family="sans-serif" font-size="14" font-weight="bold" lengthAdjust="spacing" textLength="41.4121" x="171.7939" y="285.4734">OsLib</text></g><!--cluster T_OsLib--><g class="cluster" data-qualified-name="T_OsLib" data-source-line="23" id="ent0004"><rect fill="#F9FAFB" height="168.95" rx="2.5" ry="2.5" style="stroke:#6B7280;stroke-width:1;" width="308" x="7" y="52.7383"/><text fill="#000000" font-family="sans-serif" font-size="14" font-style="italic" lengthAdjust="spacing" textLength="47.2158" x="137.3921" y="68.2734">&#171;tests&#187;</text><text fill="#000000" font-family="sans-serif" font-size="14" font-weight="bold" lengthAdjust="spacing" textLength="84.2393" x="118.8804" y="84.7617">OsLib.Tests</text></g><!--cluster P_RaiUtils--><g class="cluster" data-qualified-name="P_RaiUtils" data-source-line="27" id="ent0006"><rect fill="#F9FAFB" height="169.44" rx="2.5" ry="2.5" style="stroke:#6B7280;stroke-width:1;" width="284" x="384" y="311.1583"/><text fill="#000000" font-family="sans-serif" font-size="14" font-weight="bold" lengthAdjust="spacing" textLength="55.4463" x="498.2769" y="326.6934">RaiUtils</text></g><!--cluster T_RaiUtils--><g class="cluster" data-qualified-name="T_RaiUtils" data-source-line="31" id="ent0008"><rect fill="#F9FAFB" height="185.45" rx="2.5" ry="2.5" style="stroke:#6B7280;stroke-width:1;" width="313" x="355" y="44.4883"/><text fill="#000000" font-family="sans-serif" font-size="14" font-style="italic" lengthAdjust="spacing" textLength="47.2158" x="487.8921" y="60.0234">&#171;tests&#187;</text><text fill="#000000" font-family="sans-serif" font-size="14" font-weight="bold" lengthAdjust="spacing" textLength="98.2734" x="462.3633" y="76.5117">RaiUtils.Tests</text></g><!--cluster P_JsonPit--><g class="cluster" data-qualified-name="P_JsonPit" data-source-line="35" id="ent0010"><rect fill="#F9FAFB" height="235.39" rx="2.5" ry="2.5" style="stroke:#6B7280;stroke-width:1;" width="235" x="856" y="278.1783"/><text fill="#000000" font-family="sans-serif" font-size="14" font-weight="bold" lengthAdjust="spacing" textLength="50.7227" x="948.1387" y="293.7134">JsonPit</text></g><!--cluster T_JsonPit--><g class="cluster" data-qualified-name="T_JsonPit" data-source-line="39" id="ent0012"><rect fill="#F9FAFB" height="152.47" rx="2.5" ry="2.5" style="stroke:#6B7280;stroke-width:1;" width="383" x="708" y="60.9783"/><text fill="#000000" font-family="sans-serif" font-size="14" font-style="italic" lengthAdjust="spacing" textLength="47.2158" x="875.8921" y="76.5134">&#171;tests&#187;</text><text fill="#000000" font-family="sans-serif" font-size="14" font-weight="bold" lengthAdjust="spacing" textLength="93.5498" x="852.7251" y="93.0017">JsonPit.Tests</text></g><!--cluster P_RaiImage--><g class="cluster" data-qualified-name="P_RaiImage" data-source-line="43" id="ent0014"><rect fill="#F9FAFB" height="251.88" rx="2.5" ry="2.5" style="stroke:#6B7280;stroke-width:1;" width="201" x="1235" y="269.9383"/><text fill="#000000" font-family="sans-serif" font-size="14" font-weight="bold" lengthAdjust="spacing" textLength="66.3291" x="1302.3354" y="285.4734">RaiImage</text></g><!--cluster T_RaiImage--><g class="cluster" data-qualified-name="T_RaiImage" data-source-line="47" id="ent0016"><rect fill="#F9FAFB" height="152.47" rx="2.5" ry="2.5" style="stroke:#6B7280;stroke-width:1;" width="237" x="1199" y="60.9783"/><text fill="#000000" font-family="sans-serif" font-size="14" font-style="italic" lengthAdjust="spacing" textLength="47.2158" x="1293.8921" y="76.5134">&#171;tests&#187;</text><text fill="#000000" font-family="sans-serif" font-size="14" font-weight="bold" lengthAdjust="spacing" textLength="109.1563" x="1262.9219" y="93.0017">RaiImage.Tests</text></g><!--entity M_OsLib--><g class="entity" data-qualified-name="P_OsLib.M_OsLib" data-source-line="20" id="ent0003"><rect fill="#F9FAFB" height="184.8828" rx="2.5" ry="2.5" style="stroke:#6B7280;stroke-width:0.5;" width="177.8828" x="94.06" y="312.9383"/><text fill="#000000" font-family="sans-serif" font-size="14" lengthAdjust="spacing" textLength="36.4424" x="104.06" y="336.4734">&#9400; Os</text><text fill="#000000" font-family="sans-serif" font-size="14" lengthAdjust="spacing" textLength="62.46" x="104.06" y="352.9617">&#9400; RaiFile</text><text fill="#000000" font-family="sans-serif" font-size="14" lengthAdjust="spacing" textLength="68.4551" x="104.06" y="369.45">&#9400; RaiPath</text><text fill="#000000" font-family="sans-serif" font-size="14" lengthAdjust="spacing" textLength="87.1582" x="104.06" y="385.9383">&#9400; RaiSystem</text><text fill="#000000" font-family="sans-serif" font-size="14" lengthAdjust="spacing" textLength="72.3037" x="104.06" y="402.4266">&#9400; TextFile</text><text fill="#000000" font-family="sans-serif" font-size="14" lengthAdjust="spacing" textLength="65.8984" x="104.06" y="418.9148">&#9400; CsvFile</text><text fill="#000000" font-family="sans-serif" font-size="14" lengthAdjust="spacing" textLength="72.5635" x="104.06" y="435.4031">&#9400; TmpFile</text><text fill="#000000" font-family="sans-serif" font-size="14" lengthAdjust="spacing" textLength="108.2197" x="104.06" y="451.8914">&#9400; CanonicalFile</text><text fill="#000000" font-family="sans-serif" font-size="14" lengthAdjust="spacing" textLength="114.2148" x="104.06" y="468.3797">&#9400; CanonicalPath</text><text fill="#000000" font-family="sans-serif" font-size="14" lengthAdjust="spacing" textLength="157.8828" x="104.06" y="484.868">&#9400; PathConventionType</text></g><!--entity M_T_OsLib--><g class="entity" data-qualified-name="T_OsLib.M_T_OsLib" data-source-line="24" id="ent0005"><rect fill="#F9FAFB" height="85.9531" rx="2.5" ry="2.5" style="stroke:#6B7280;stroke-width:0.5;" width="240.3018" x="30.85" y="111.7383"/><text fill="#000000" font-family="sans-serif" font-size="14" lengthAdjust="spacing" textLength="220.3018" x="40.85" y="135.2734">&#9417; CloudStorageAgreementTests</text><text fill="#000000" font-family="sans-serif" font-size="14" lengthAdjust="spacing" textLength="211.3193" x="40.85" y="151.7617">&#9417; CloudStorageDiscoveryTests</text><text fill="#000000" font-family="sans-serif" font-size="14" lengthAdjust="spacing" textLength="168.4033" x="40.85" y="168.25">&#9417; PathConventionsTests</text><text fill="#000000" font-family="sans-serif" font-size="14" lengthAdjust="spacing" textLength="108.7256" x="40.85" y="184.7383">&#9417; TmpFileTests</text></g><!--entity M_RaiUtils--><g class="entity" data-qualified-name="P_RaiUtils.M_RaiUtils" data-source-line="28" id="ent0007"><rect fill="#F9FAFB" height="102.4414" rx="2.5" ry="2.5" style="stroke:#6B7280;stroke-width:0.5;" width="216.9365" x="407.53" y="354.1583"/><text fill="#000000" font-family="sans-serif" font-size="14" lengthAdjust="spacing" textLength="54.9131" x="417.53" y="377.6934">&#9400; Email</text><text fill="#000000" font-family="sans-serif" font-size="14" lengthAdjust="spacing" textLength="196.9365" x="417.53" y="394.1817">&#9400; JsonConversionExtensions</text><text fill="#000000" font-family="sans-serif" font-size="14" lengthAdjust="spacing" textLength="156.0439" x="417.53" y="410.67">&#9400; ParameterDictionary</text><text fill="#000000" font-family="sans-serif" font-size="14" lengthAdjust="spacing" textLength="147.6904" x="417.53" y="427.1583">&#9400; RandomExtensions</text><text fill="#000000" font-family="sans-serif" font-size="14" lengthAdjust="spacing" textLength="137.2109" x="417.53" y="443.6466">&#9400; SearchExpression</text></g><!--entity M_T_RaiUtils--><g class="entity" data-qualified-name="T_RaiUtils.M_T_RaiUtils" data-source-line="32" id="ent0009"><rect fill="#F9FAFB" height="102.4414" rx="2.5" ry="2.5" style="stroke:#6B7280;stroke-width:0.5;" width="245.9619" x="379.02" y="103.4883"/><text fill="#000000" font-family="sans-serif" font-size="14" lengthAdjust="spacing" textLength="91.0752" x="389.02" y="127.0234">&#9417; EmailTests</text><text fill="#000000" font-family="sans-serif" font-size="14" lengthAdjust="spacing" textLength="225.9619" x="389.02" y="143.5117">&#9417; JsonConversionExtensionTests</text><text fill="#000000" font-family="sans-serif" font-size="14" lengthAdjust="spacing" textLength="192.2061" x="389.02" y="160">&#9417; ParameterDictionaryTests</text><text fill="#000000" font-family="sans-serif" font-size="14" lengthAdjust="spacing" textLength="183.8525" x="389.02" y="176.4883">&#9417; RandomExtensionsTests</text><text fill="#000000" font-family="sans-serif" font-size="14" lengthAdjust="spacing" textLength="173.373" x="389.02" y="192.9766">&#9417; SearchExpressionTests</text></g><!--entity M_JsonPit--><g class="entity" data-qualified-name="P_JsonPit.M_JsonPit" data-source-line="36" id="ent0011"><rect fill="#F9FAFB" height="168.3945" rx="2.5" ry="2.5" style="stroke:#6B7280;stroke-width:0.5;" width="168.2168" x="879.89" y="321.1783"/><text fill="#000000" font-family="sans-serif" font-size="14" lengthAdjust="spacing" textLength="48.5693" x="889.89" y="344.7134">&#9400; Item</text><text fill="#000000" font-family="sans-serif" font-size="14" lengthAdjust="spacing" textLength="86.4268" x="889.89" y="361.2017">&#9400; ItemsBase</text><text fill="#000000" font-family="sans-serif" font-size="14" lengthAdjust="spacing" textLength="94.9512" x="889.89" y="377.69">&#9400; JsonPitBase</text><text fill="#000000" font-family="sans-serif" font-size="14" lengthAdjust="spacing" textLength="35.4512" x="889.89" y="394.1783">&#9400; Pit</text><text fill="#000000" font-family="sans-serif" font-size="14" lengthAdjust="spacing" textLength="65.5908" x="889.89" y="410.6666">&#9400; PitItem</text><text fill="#000000" font-family="sans-serif" font-size="14" lengthAdjust="spacing" textLength="72.7275" x="889.89" y="427.1548">&#9400; PitItems</text><text fill="#000000" font-family="sans-serif" font-size="14" lengthAdjust="spacing" textLength="115.5342" x="889.89" y="443.6431">&#9400; MasterFlagFile</text><text fill="#000000" font-family="sans-serif" font-size="14" lengthAdjust="spacing" textLength="121.1533" x="889.89" y="460.1314">&#9400; ProcessFlagFile</text><text fill="#000000" font-family="sans-serif" font-size="14" lengthAdjust="spacing" textLength="148.2168" x="889.89" y="476.6197">&#9400; TimestampedValue</text></g><!--entity M_T_JsonPit--><g class="entity" data-qualified-name="T_JsonPit.M_T_JsonPit" data-source-line="40" id="ent0013"><rect fill="#F9FAFB" height="69.4648" rx="2.5" ry="2.5" style="stroke:#6B7280;stroke-width:0.5;" width="315.6748" x="732.16" y="119.9783"/><text fill="#000000" font-family="sans-serif" font-size="14" lengthAdjust="spacing" textLength="82.2637" x="742.16" y="143.5134">&#9417; UnitTests</text><text fill="#000000" font-family="sans-serif" font-size="14" lengthAdjust="spacing" textLength="184.1602" x="742.16" y="160.0017">&#9417; PitAddConcurrencyTests</text><text fill="#000000" font-family="sans-serif" font-size="14" lengthAdjust="spacing" textLength="295.6748" x="742.16" y="176.49">&#9417; PitItemSetPropertyChangeDetectionTests</text></g><!--entity M_RaiImage--><g class="entity" data-qualified-name="P_RaiImage.M_RaiImage" data-source-line="44" id="ent0015"><rect fill="#F9FAFB" height="184.8828" rx="2.5" ry="2.5" style="stroke:#6B7280;stroke-width:0.5;" width="133.374" x="1259.31" y="312.9383"/><text fill="#000000" font-family="sans-serif" font-size="14" lengthAdjust="spacing" textLength="93.1191" x="1269.31" y="336.4734">&#9400; CamelCase</text><text fill="#000000" font-family="sans-serif" font-size="14" lengthAdjust="spacing" textLength="81.5596" x="1269.31" y="352.9617">&#9400; ColorInfo</text><text fill="#000000" font-family="sans-serif" font-size="14" lengthAdjust="spacing" textLength="44.0303" x="1269.31" y="369.45">&#9400; Dye</text><text fill="#000000" font-family="sans-serif" font-size="14" lengthAdjust="spacing" textLength="83.1934" x="1269.31" y="385.9383">&#9400; ImageFile</text><text fill="#000000" font-family="sans-serif" font-size="14" lengthAdjust="spacing" textLength="113.374" x="1269.31" y="402.4266">&#9400; ImageTreeFile</text><text fill="#000000" font-family="sans-serif" font-size="14" lengthAdjust="spacing" textLength="107.7139" x="1269.31" y="418.9148">&#9400; ImageMagick</text><text fill="#000000" font-family="sans-serif" font-size="14" lengthAdjust="spacing" textLength="79.2695" x="1269.31" y="435.4031">&#9400; ImageUrl</text><text fill="#000000" font-family="sans-serif" font-size="14" lengthAdjust="spacing" textLength="38.8691" x="1269.31" y="451.8914">&#9400; Src</text><text fill="#000000" font-family="sans-serif" font-size="14" lengthAdjust="spacing" textLength="49.1641" x="1269.31" y="468.3797">&#9400; Tmp</text><text fill="#000000" font-family="sans-serif" font-size="14" lengthAdjust="spacing" textLength="81.2178" x="1269.31" y="484.868">&#9400; TwoSizes</text></g><!--entity M_T_RaiImage--><g class="entity" data-qualified-name="T_RaiImage.M_T_RaiImage" data-source-line="48" id="ent0017"><rect fill="#F9FAFB" height="69.4648" rx="2.5" ry="2.5" style="stroke:#6B7280;stroke-width:0.5;" width="169.5361" x="1223.23" y="119.9783"/><text fill="#000000" font-family="sans-serif" font-size="14" lengthAdjust="spacing" textLength="119.3555" x="1233.23" y="143.5134">&#9417; ImageFileTests</text><text fill="#000000" font-family="sans-serif" font-size="14" lengthAdjust="spacing" textLength="149.5361" x="1233.23" y="160.0017">&#9417; ImageTreeFileTests</text><text fill="#000000" font-family="sans-serif" font-size="14" lengthAdjust="spacing" textLength="143.876" x="1233.23" y="176.49">&#9417; ImageMagickTests</text></g><g class="entity" data-qualified-name="GMN33" data-source-line="72" id="ent0034"><path d="M162.15,565.4683 L162.15,606.0894 L451.859,606.0894 L451.859,575.4683 L441.859,565.4683 L162.15,565.4683" fill="#FFF7D6" style="stroke:#D4B106;stroke-width:0.5;"/><path d="M441.859,565.4683 L441.859,575.4683 L451.859,575.4683 L441.859,565.4683" fill="#FFF7D6" style="stroke:#D4B106;stroke-width:1;"/><text fill="#000000" font-family="sans-serif" font-size="13" lengthAdjust="spacing" textLength="206.2163" x="168.15" y="583.0366">Foundation library for OS, paths,</text><text fill="#000000" font-family="sans-serif" font-size="13" lengthAdjust="spacing" textLength="268.709" x="168.15" y="598.3472">files, temp files, and cloud-root discovery.</text></g><g class="entity" data-qualified-name="GMN36" data-source-line="77" id="ent0037"><path d="M537.72,557.8183 L537.72,613.7499 L782.2845,613.7499 L782.2845,567.8183 L772.2845,557.8183 L537.72,557.8183" fill="#FFF7D6" style="stroke:#D4B106;stroke-width:0.5;"/><path d="M772.2845,557.8183 L772.2845,567.8183 L782.2845,567.8183 L772.2845,557.8183" fill="#FFF7D6" style="stroke:#D4B106;stroke-width:1;"/><text fill="#000000" font-family="sans-serif" font-size="13" lengthAdjust="spacing" textLength="223.5645" x="543.72" y="575.3866">Utility library with JSON conversion,</text><text fill="#000000" font-family="sans-serif" font-size="13" lengthAdjust="spacing" textLength="211.2373" x="543.72" y="590.6972">randomization, parameter, email,</text><text fill="#000000" font-family="sans-serif" font-size="13" lengthAdjust="spacing" textLength="123.3032" x="543.72" y="606.0077">and search helpers.</text></g><g class="entity" data-qualified-name="GMN39" data-source-line="83" id="ent0040"><path d="M925.56,565.4683 L925.56,606.0894 L1240.4311,606.0894 L1240.4311,575.4683 L1230.4311,565.4683 L925.56,565.4683" fill="#FFF7D6" style="stroke:#D4B106;stroke-width:0.5;"/><path d="M1230.4311,565.4683 L1230.4311,575.4683 L1240.4311,575.4683 L1230.4311,565.4683" fill="#FFF7D6" style="stroke:#D4B106;stroke-width:1;"/><text fill="#000000" font-family="sans-serif" font-size="13" lengthAdjust="spacing" textLength="293.8711" x="931.56" y="583.0366">JsonPit depends directly on OsLib and RaiUtils.</text><text fill="#000000" font-family="sans-serif" font-size="13" lengthAdjust="spacing" textLength="269.2295" x="931.56" y="598.3472">Its tests also exercise those dependencies.</text></g><g class="entity" data-qualified-name="GMN42" data-source-line="88" id="ent0043"><path d="M1275.77,557.8183 L1275.77,613.7499 L1580.2373,613.7499 L1580.2373,567.8183 L1570.2373,557.8183 L1275.77,557.8183" fill="#FFF7D6" style="stroke:#D4B106;stroke-width:0.5;"/><path d="M1570.2373,557.8183 L1570.2373,567.8183 L1580.2373,567.8183 L1570.2373,557.8183" fill="#FFF7D6" style="stroke:#D4B106;stroke-width:1;"/><text fill="#000000" font-family="sans-serif" font-size="13" lengthAdjust="spacing" textLength="283.4673" x="1281.77" y="575.3866">RaiImage references OsLib and RaiUtils when</text><text fill="#000000" font-family="sans-serif" font-size="13" lengthAdjust="spacing" textLength="282.2104" x="1281.77" y="590.6972">local projects are available, and can fall back</text><text fill="#000000" font-family="sans-serif" font-size="13" lengthAdjust="spacing" textLength="251.5957" x="1281.77" y="606.0077">to NuGet package references otherwise.</text></g><!--link P_OsLib to T_OsLib--><g class="link" data-entity-1="ent0002" data-entity-2="ent0004" data-link-type="dependency" data-source-line="52" id="lnk18"><path d="M307,268.8447 C307,265.1821 307,261.5325 307,257.9083 C307,250.6599 307,243.5136 307,236.5704 C307,233.0988 307,229.678 307,226.3207 C307,225.4813 307,224.646 307,223.8148 C307,223.3992 307,222.9846 307,222.5711 C307,222.3643 307,222.1579 307,221.9517 C307,221.9001 307,227.8486 307,227.797" fill="none" id="P_OsLib-to-T_OsLib" style="stroke:#4B5563;stroke-width:1;"/><polygon fill="#4B5563" points="307,221.797,303,230.797,307,226.797,311,230.797,307,221.797" style="stroke:#4B5563;stroke-width:1;"/></g><!--link T_OsLib to P_OsLib--><g class="link" data-entity-1="ent0004" data-entity-2="ent0002" data-link-type="dependency" data-source-line="66" id="lnk29"><path d="M288.97,222.0117 C288.97,222.4516 288.97,222.8928 288.97,223.3351 C288.97,226.874 288.97,230.4895 288.97,234.1663 C288.97,241.5198 288.97,249.1184 288.97,256.8396 C288.97,260.7002 288.97,264.5914 288.97,268.498 C288.97,268.7421 288.97,268.9864 288.97,269.2306 C288.97,269.3528 288.97,269.4749 288.97,269.5971 C288.97,269.6582 288.97,263.7193 288.97,263.7803" fill="none" id="T_OsLib-to-P_OsLib" style="stroke:#4B5563;stroke-width:1;stroke-dasharray:7,7;"/><polygon fill="#4B5563" points="288.97,269.7803,292.97,260.7803,288.97,264.7803,284.97,260.7803,288.97,269.7803" style="stroke:#4B5563;stroke-width:1;"/><text fill="#000000" font-family="sans-serif" font-size="13" lengthAdjust="spacing" textLength="30.2212" x="257.97" y="276.8166">tests</text></g><!--link P_RaiUtils to T_RaiUtils--><g class="link" data-entity-1="ent0006" data-entity-2="ent0008" data-link-type="dependency" data-source-line="53" id="lnk19"><path d="M660,309.9241 C660,309.0288 660,308.1313 660,307.2319 C660,305.4331 660,303.6264 660,301.8134 C660,294.5616 660,287.2095 660,279.8583 C660,265.1558 660,250.4567 660,236.5704 C660,234.8346 660,233.1115 660,231.4027 C660,230.9755 660,236.5492 660,236.1238" fill="none" id="P_RaiUtils-to-T_RaiUtils" style="stroke:#4B5563;stroke-width:1;"/><polygon fill="#4B5563" points="660,230.1238,656,239.1238,660,235.1238,664,239.1238,660,230.1238" style="stroke:#4B5563;stroke-width:1;"/></g><!--link T_RaiUtils to P_RaiUtils--><g class="link" data-entity-1="ent0008" data-entity-2="ent0006" data-link-type="dependency" data-source-line="67" id="lnk30"><path d="M647.66,231.1149 C647.66,232.0226 647.66,232.9343 647.66,233.8498 C647.66,248.4983 647.66,264.1233 647.66,279.7483 C647.66,287.5608 647.66,295.3733 647.66,303.0637 C647.66,304.9863 647.66,306.9013 647.66,308.8067 C647.66,309.2831 647.66,309.7589 647.66,310.234 C647.66,310.4716 647.66,304.709 647.66,304.9462" fill="none" id="T_RaiUtils-to-P_RaiUtils" style="stroke:#4B5563;stroke-width:1;stroke-dasharray:7,7;"/><polygon fill="#4B5563" points="647.66,310.9462,651.66,301.9462,647.66,305.9462,643.66,301.9462,647.66,310.9462" style="stroke:#4B5563;stroke-width:1;"/><text fill="#000000" font-family="sans-serif" font-size="13" lengthAdjust="spacing" textLength="30.2212" x="616.66" y="276.4566">tests</text></g><!--link P_JsonPit to T_JsonPit--><g class="link" data-entity-1="ent0010" data-entity-2="ent0012" data-link-type="dependency" data-source-line="54" id="lnk20"><path d="M1083,277.1018 C1083,276.1831 1083,275.2646 1083,274.3466 C1083,272.5105 1083,270.676 1083,268.8447 C1083,265.1821 1083,261.5325 1083,257.9083 C1083,250.6599 1083,243.5136 1083,236.5704 C1083,229.6272 1083,222.8872 1083,216.4516 C1083,215.6472 1083,214.8475 1083,214.0527 C1083,213.854 1083,219.6556 1083,219.4576" fill="none" id="P_JsonPit-to-T_JsonPit" style="stroke:#4B5563;stroke-width:1;"/><polygon fill="#4B5563" points="1083,213.4576,1079,222.4576,1083,218.4576,1087,222.4576,1083,213.4576" style="stroke:#4B5563;stroke-width:1;"/></g><!--link T_JsonPit to P_JsonPit--><g class="link" data-entity-1="ent0012" data-entity-2="ent0010" data-link-type="dependency" data-source-line="68" id="lnk31"><path d="M1073.53,213.9948 C1073.53,214.4172 1073.53,214.8411 1073.53,215.2663 C1073.53,216.1167 1073.53,216.9727 1073.53,217.8338 C1073.53,219.5562 1073.53,221.2995 1073.53,223.0619 C1073.53,226.5867 1073.53,230.1877 1073.53,233.8498 C1073.53,241.1741 1073.53,248.7424 1073.53,256.4329 C1073.53,260.2781 1073.53,264.1538 1073.53,268.0448 C1073.53,269.9903 1073.53,271.9396 1073.53,273.8908 C1073.53,274.8664 1073.53,275.8425 1073.53,276.8188 C1073.53,277.0629 1073.53,277.307 1073.53,277.5511 C1073.53,277.6732 1073.53,277.7952 1073.53,277.9173 C1073.53,277.9783 1073.53,272.0393 1073.53,272.1004" fill="none" id="T_JsonPit-to-P_JsonPit" style="stroke:#4B5563;stroke-width:1;stroke-dasharray:7,7;"/><polygon fill="#4B5563" points="1073.53,278.1004,1077.53,269.1004,1073.53,273.1004,1069.53,269.1004,1073.53,278.1004" style="stroke:#4B5563;stroke-width:1;"/><text fill="#000000" font-family="sans-serif" font-size="13" lengthAdjust="spacing" textLength="30.2212" x="1042.53" y="276.3166">tests</text></g><!--link P_RaiImage to T_RaiImage--><g class="link" data-entity-1="ent0014" data-entity-2="ent0016" data-link-type="dependency" data-source-line="55" id="lnk21"><path d="M1428,268.8447 C1428,265.1821 1428,261.5325 1428,257.9083 C1428,250.6599 1428,243.5136 1428,236.5704 C1428,229.6272 1428,222.8872 1428,216.4516 C1428,215.6472 1428,214.8475 1428,214.0527 C1428,213.854 1428,219.6556 1428,219.4576" fill="none" id="P_RaiImage-to-T_RaiImage" style="stroke:#4B5563;stroke-width:1;"/><polygon fill="#4B5563" points="1428,213.4576,1424,222.4576,1428,218.4576,1432,222.4576,1428,213.4576" style="stroke:#4B5563;stroke-width:1;"/></g><!--link T_RaiImage to P_RaiImage--><g class="link" data-entity-1="ent0016" data-entity-2="ent0014" data-link-type="dependency" data-source-line="69" id="lnk32"><path d="M1415.59,213.9948 C1415.59,214.4172 1415.59,214.8411 1415.59,215.2663 C1415.59,216.1167 1415.59,216.9727 1415.59,217.8338 C1415.59,219.5562 1415.59,221.2995 1415.59,223.0619 C1415.59,226.5867 1415.59,230.1877 1415.59,233.8498 C1415.59,241.1741 1415.59,248.7424 1415.59,256.4329 C1415.59,260.2781 1415.59,264.1538 1415.59,268.0448 C1415.59,268.5312 1415.59,269.0178 1415.59,269.5046 C1415.59,269.6263 1415.59,263.748 1415.59,263.8698" fill="none" id="T_RaiImage-to-P_RaiImage" style="stroke:#4B5563;stroke-width:1;stroke-dasharray:7,7;"/><polygon fill="#4B5563" points="1415.59,269.8698,1419.59,260.8698,1415.59,264.8698,1411.59,260.8698,1415.59,269.8698" style="stroke:#4B5563;stroke-width:1;"/><text fill="#000000" font-family="sans-serif" font-size="13" lengthAdjust="spacing" textLength="30.2212" x="1384.59" y="276.4566">tests</text></g><!--link P_OsLib to P_RaiUtils--><g class="link" data-entity-1="ent0002" data-entity-2="ent0006" data-link-type="dependency" data-source-line="57" id="lnk22"><path d="M315.1166,405.7483 C315.2529,405.7483 315.3905,405.7483 315.5293,405.7483 C316.0846,405.7483 316.6591,405.7483 317.2505,405.7483 C321.9816,405.7483 327.7919,405.7483 333.4363,405.7483 C344.725,405.7483 355.35,405.7483 355.35,405.7483 C355.35,405.7483 355.35,472.7483 355.35,472.7483 C355.35,472.7483 696.58,472.7483 696.58,472.7483 C696.58,472.7483 696.58,405.7483 696.58,405.7483 C696.58,405.7483 688.5425,405.7483 680.0025,405.7483 C677.8675,405.7483 675.7011,405.7483 673.621,405.7483 C672.581,405.7483 671.5625,405.7483 670.5804,405.7483 C670.0893,405.7483 669.6073,405.7483 669.1362,405.7483 C668.9006,405.7483 668.6678,405.7483 668.438,405.7483 C668.323,405.7483 674.2088,405.7483 674.0954,405.7483" fill="none" id="P_OsLib-to-P_RaiUtils" style="stroke:#4B5563;stroke-width:1;"/><polygon fill="#4B5563" points="668.0954,405.7483,677.0954,409.7483,673.0954,405.7483,677.0954,401.7483,668.0954,405.7483" style="stroke:#4B5563;stroke-width:1;"/></g><!--link P_RaiUtils to P_JsonPit--><g class="link" data-entity-1="ent0006" data-entity-2="ent0010" data-link-type="dependency" data-source-line="58" id="lnk23"><path d="M668.1586,404.7483 C668.3146,404.7483 668.4726,404.7483 668.6326,404.7483 C668.9526,404.7483 669.2805,404.7483 669.6162,404.7483 C670.2877,404.7483 670.9903,404.7483 671.7228,404.7483 C677.5824,404.7483 685.3523,404.7483 694.367,404.7483 C712.3966,404.7483 735.4056,404.7483 758.0713,404.7483 C803.4025,404.7483 847.36,404.7483 847.36,404.7483 C847.36,404.7483 847.36,316.7483 847.36,316.7483 C847.36,316.7483 848.2104,316.7483 849.8048,316.7483 C850.602,316.7483 851.5852,316.7483 852.7411,316.7483 C853.3191,316.7483 853.9403,316.7483 854.6029,316.7483 C854.9343,316.7483 849.276,316.7483 849.6279,316.7483" fill="none" id="P_RaiUtils-to-P_JsonPit" style="stroke:#4B5563;stroke-width:1;"/><polygon fill="#4B5563" points="855.6279,316.7483,846.6279,312.7483,850.6279,316.7483,846.6279,320.7483,855.6279,316.7483" style="stroke:#4B5563;stroke-width:1;"/></g><!--link P_JsonPit to P_RaiUtils--><g class="link" data-entity-1="ent0010" data-entity-2="ent0006" data-link-type="dependency" data-source-line="62" id="lnk26"><path d="M1091.162,405.7483 C1091.2294,405.7483 1091.2972,405.7483 1091.3652,405.7483 C1091.9097,405.7483 1092.4731,405.7483 1093.053,405.7483 C1097.6922,405.7483 1103.3894,405.7483 1108.9238,405.7483 C1119.9925,405.7483 1130.41,405.7483 1130.41,405.7483 C1130.41,405.7483 1130.41,494.7483 1130.41,494.7483 C1130.41,494.7483 636.32,494.7483 636.32,494.7483 C636.32,494.7483 636.32,495.1858 636.32,486.842" fill="none" id="P_JsonPit-to-P_RaiUtils" style="stroke:#4B5563;stroke-width:1;stroke-dasharray:7,7;"/><polygon fill="#4B5563" points="636.32,480.842,632.32,489.842,636.32,485.842,640.32,489.842,636.32,480.842" style="stroke:#4B5563;stroke-width:1;"/><text fill="#000000" font-family="sans-serif" font-size="13" lengthAdjust="spacing" textLength="105.2251" x="789.26" y="508.3166">ProjectReference</text></g><!--link P_JsonPit to P_RaiImage--><g class="link" data-entity-1="ent0010" data-entity-2="ent0014" data-link-type="dependency" data-source-line="59" id="lnk24"><path d="M1091.2435,404.7483 C1092.0914,404.7483 1092.9938,404.7483 1093.9456,404.7483 C1095.8493,404.7483 1097.9505,404.7483 1100.2075,404.7483 C1109.2356,404.7483 1120.7575,404.7483 1132.1075,404.7483 C1154.8075,404.7483 1176.82,404.7483 1176.82,404.7483 C1176.82,404.7483 1176.82,527.7483 1176.82,527.7483 C1176.82,527.7483 1504.62,527.7483 1504.62,527.7483 C1504.62,527.7483 1504.62,405.7483 1504.62,405.7483 C1504.62,405.7483 1487.2175,405.7483 1469,405.7483 C1459.8913,405.7483 1450.5788,405.7483 1443.1359,405.7483 C1441.2752,405.7483 1439.5314,405.7483 1437.9368,405.7483 C1437.5381,405.7483 1437.1488,405.7483 1436.7693,405.7483 C1436.5796,405.7483 1442.3923,405.7483 1442.2075,405.7483" fill="none" id="P_JsonPit-to-P_RaiImage" style="stroke:#4B5563;stroke-width:1;"/><polygon fill="#4B5563" points="1436.2075,405.7483,1445.2075,409.7483,1441.2075,405.7483,1445.2075,401.7483,1436.2075,405.7483" style="stroke:#4B5563;stroke-width:1;"/></g><!--link P_JsonPit to P_OsLib--><g class="link" data-entity-1="ent0010" data-entity-2="ent0002" data-link-type="dependency" data-source-line="61" id="lnk25"><path d="M854.6522,492.7483 C853.3677,492.7483 852.08,492.7483 850.7889,492.7483 C848.2068,492.7483 845.6116,492.7483 843.0039,492.7483 C837.7885,492.7483 832.5233,492.7483 827.2139,492.7483 C784.7388,492.7483 739.4319,492.7483 694.125,492.7483 C512.8975,492.7483 331.67,492.7483 331.67,492.7483 C331.67,492.7483 331.67,405.7483 331.67,405.7483 C331.67,405.7483 326.605,405.7483 321.065,405.7483 C319.68,405.7483 318.2653,405.7483 316.8927,405.7483 C316.5495,405.7483 316.209,405.7483 315.8722,405.7483 C315.7038,405.7483 315.5363,405.7483 315.3699,405.7483 C315.2867,405.7483 321.2038,405.7483 321.1212,405.7483" fill="none" id="P_JsonPit-to-P_OsLib" style="stroke:#4B5563;stroke-width:1;stroke-dasharray:7,7;"/><polygon fill="#4B5563" points="315.1212,405.7483,324.1212,409.7483,320.1212,405.7483,324.1212,401.7483,315.1212,405.7483" style="stroke:#4B5563;stroke-width:1;"/><text fill="#000000" font-family="sans-serif" font-size="13" lengthAdjust="spacing" textLength="105.2251" x="588.96" y="489.3166">ProjectReference</text></g><!--link P_RaiImage to P_OsLib--><g class="link" data-entity-1="ent0014" data-entity-2="ent0002" data-link-type="dependency" data-source-line="63" id="lnk27"><path d="M1232.6946,512.7483 C1231.1686,512.7483 1229.6352,512.7483 1228.0947,512.7483 C1221.9323,512.7483 1215.6543,512.7483 1209.2683,512.7483 C1196.4963,512.7483 1183.2924,512.7483 1169.7183,512.7483 C1142.5701,512.7483 1113.9411,512.7483 1084.3249,512.7483 C1025.0925,512.7483 961.9113,512.7483 898.73,512.7483 C646.005,512.7483 393.28,512.7483 393.28,512.7483 C393.28,512.7483 393.28,404.7483 393.28,404.7483 C393.28,404.7483 373.685,404.7483 353.1713,404.7483 C342.9144,404.7483 332.4278,404.7483 324.0461,404.7483 C321.9507,404.7483 319.9868,404.7483 318.1909,404.7483 C317.293,404.7483 316.4371,404.7483 315.6278,404.7483 C315.4254,404.7483 321.226,404.7483 321.0295,404.7483" fill="none" id="P_RaiImage-to-P_OsLib" style="stroke:#4B5563;stroke-width:1;stroke-dasharray:7,7;"/><polygon fill="#4B5563" points="315.0295,404.7483,324.0295,408.7483,320.0295,404.7483,324.0295,400.7483,315.0295,404.7483" style="stroke:#4B5563;stroke-width:1;"/><text fill="#000000" font-family="sans-serif" font-size="13" lengthAdjust="spacing" textLength="105.2251" x="760.98" y="526.3166">ProjectReference</text></g><!--link P_RaiImage to P_RaiUtils--><g class="link" data-entity-1="ent0014" data-entity-2="ent0006" data-link-type="dependency" data-source-line="64" id="lnk28"><path d="M1436.2829,404.7483 C1436.4318,404.7483 1436.5826,404.7483 1436.7351,404.7483 C1437.3451,404.7483 1437.9834,404.7483 1438.6489,404.7483 C1443.9724,404.7483 1451.0317,404.7483 1459.2222,404.7483 C1475.6031,404.7483 1496.5088,404.7483 1517.1025,404.7483 C1558.29,404.7483 1598.23,404.7483 1598.23,404.7483 C1598.23,404.7483 1598.23,542.7483 1598.23,542.7483 C1598.23,542.7483 814.82,542.7483 814.82,542.7483 C814.82,542.7483 814.82,431.7483 814.82,431.7483 C814.82,431.7483 776.0325,431.7483 737.245,431.7483 C717.8512,431.7483 698.4575,431.7483 683.9122,431.7483 C680.2759,431.7483 676.9426,431.7483 673.988,431.7483 C672.5108,431.7483 671.1282,431.7483 669.8498,431.7483 C669.2106,431.7483 674.5975,431.7483 674.0115,431.7483" fill="none" id="P_RaiImage-to-P_RaiUtils" style="stroke:#4B5563;stroke-width:1;stroke-dasharray:7,7;"/><polygon fill="#4B5563" points="668.0115,431.7483,677.0115,435.7483,673.0115,431.7483,677.0115,427.7483,668.0115,431.7483" style="stroke:#4B5563;stroke-width:1;"/><text fill="#000000" font-family="sans-serif" font-size="13" lengthAdjust="spacing" textLength="105.2251" x="1108.46" y="539.3166">ProjectReference</text></g><!--link P_OsLib to GMN33--><g class="link" data-entity-1="ent0002" data-entity-2="ent0034" data-link-type="association" data-source-line="72" id="lnk35"><path d="M307,522.0653 C307,522.3194 307,522.5732 307,522.8267 C307,539.0502 307,553.9758 307,565.2183" fill="none" id="P_OsLib-GMN33" style="stroke:#4B5563;stroke-width:1;stroke-dasharray:7,7;"/></g><!--link P_RaiUtils to GMN36--><g class="link" data-entity-1="ent0006" data-entity-2="ent0037" data-link-type="association" data-source-line="77" id="lnk38"><path d="M660.33,481.2675 C660.33,482.2695 660.33,483.2739 660.33,484.2802 C660.33,486.2928 660.33,488.313 660.33,490.3367 C660.33,498.4317 660.33,506.5833 660.33,514.5295 C660.33,530.422 660.33,545.4933 660.33,557.6483" fill="none" id="P_RaiUtils-GMN36" style="stroke:#4B5563;stroke-width:1;stroke-dasharray:7,7;"/></g><!--link P_JsonPit to GMN39--><g class="link" data-entity-1="ent0010" data-entity-2="ent0040" data-link-type="association" data-source-line="83" id="lnk41"><path d="M1083.33,513.7823 C1083.33,514.0448 1083.33,514.307 1083.33,514.569 C1083.33,515.093 1083.33,515.6161 1083.33,516.1382 C1083.33,518.2268 1083.33,520.2998 1083.33,522.3525 C1083.33,538.7739 1083.33,553.8933 1083.33,565.2483" fill="none" id="P_JsonPit-GMN39" style="stroke:#4B5563;stroke-width:1;stroke-dasharray:7,7;"/></g><!--link P_RaiImage to GMN42--><g class="link" data-entity-1="ent0014" data-entity-2="ent0043" data-link-type="association" data-source-line="88" id="lnk44"><path d="M1428,522.3662 C1428,522.8472 1428,523.3272 1428,523.8059 C1428,524.7635 1428,525.7163 1428,526.6639 C1428,530.4543 1428,534.1612 1428,537.753 C1428,544.9366 1428,551.6595 1428,557.6683" fill="none" id="P_RaiImage-GMN42" style="stroke:#4B5563;stroke-width:1;stroke-dasharray:7,7;"/></g><g class="legend" data-source-line="93"><rect fill="none" height="92.4414" rx="7.5" ry="7.5" style="stroke:#000000;stroke-width:1;" width="397.1602" x="597.0349" y="631.7499"/><text fill="#000000" font-family="sans-serif" font-size="14" lengthAdjust="spacing" textLength="354.498" x="602.0349" y="650.2851">Solid package contents show representative classes.</text><text fill="#000000" font-family="sans-serif" font-size="14" lengthAdjust="spacing" textLength="333.7373" x="602.0349" y="666.7734">Dashed arrows show project-level dependencies.</text><text fill="#000000" font-family="sans-serif" font-size="14" lengthAdjust="spacing" textLength="387.1602" x="602.0349" y="683.2616">&#171;tests&#187; packages represent test projects in RAIkeep.slnx.</text><text fill="#000000" font-family="sans-serif" font-size="14" lengthAdjust="spacing" textLength="293.6992" x="602.0349" y="699.7499">Hidden right-links define the two columns.</text><text fill="#000000" font-family="sans-serif" font-size="14" lengthAdjust="spacing" textLength="276.5479" x="602.0349" y="716.2382">Hidden down-links define the four rows.</text></g><?plantuml-src ZLVDSjis43wJJu5n3htOcjX9x2IJyOmhsQqpjQsnv5xQJWSYbo9g4E00q5ywVO1UsvVfy_H9kW014f8efnS9FulTR_-NXXaEvF7gzXcW9cEQFTCva17K878G6GETfaRMn4WoayR8YkHCGMQO56cgdvcegQ8LcU73kP8BaGybbugiIcOWkjSbpUMAYJafADVnJTs8d9WDuh2SgPZpc80p0MPJ0v7Ab3Awk59AhXfnhzxEthqxVnDTUas-bIe7vObEYxCFRoxsYMwaC87azFJzMKmov5JhBIxdiukpzw_tI7OCyAhuKD1Y5f4z1jrUvjQHVPNZlJGzL4LnaP_lKiKYyxUpqzVdQUejJuuUz0ziTaIe9kDVtPhydYQjAyZHlt_zGnxqpyB-Fr9smpYqcp4rPRkPRBI1gjbEOMqwog5UTfjfLKStL4Z1CifxZZhcTZMKOWd2HjuKmy7XlMlmfd_iQZEOWZRwY7pwPEpYyj9IJ_kr-_jFTA5Sv1CZ5NAucYk02WKv5YX-vtx4T2QNe3RH_JOy7TruNJqS1tdQ0ngDzsGOrzuBOTlZYEkACjuOvREMmabL6gLUhmq8kz31PEXzCA16pAKhLPlWA97BQfTy0bHbvVMwLg3jiGSRaFIYFM3bG-ZH70vzP9u3AcoPTa-Dw7PNb-XgLw5j5_JgPT6CcV5EyBiU7zosKMvNcFiQEe_Wa-u0D-sYU-Kttl9t5BD6tN0wxr9Wh6I6iBSFfwn27MXLG_uZvOkG0bvedoO777H0CpJQas1nt2FHLOwLHMGBfR0TRBRlh18JC0Ys1cKsmn8vmGYTvJorRV0-bEY4smfNNTIxRO_5XnW3VDYQrLMoMr78PZlQ-7Ftl3EOsqundNUExkYSPS_HmPFoAJLHMLkZ_68b9-mBw2uVt8jUFGxdGwzUQCGMS6JOBTIxvmtqlLXkCNr3paWc-Q8Icgp9Mu8jKdyCJPP8GKm9X4DXZab5JLRQbcp1xf8eDY_D80qDuUGdWSLFFF_YpaykGorDerhLGzDcMPTDFLGXDA88wEVLQBaF2aSBWJJZMDu-h9QgaxS7AkRKIWjKWq4WksmxvKURgh-XKn-X09iYSF11YwZtJQlw_vPouCLBOjBG0WU3cBcBrZGgtCrrn2bGT9f5Xjpc4335LcmfKe7JI9WaPH4mfCcD7M6eBHiuyCqKLdbIuB3oC3d6o3IbFawJ0jD17oEZgYP-ZTMVPBOtdoWf3OwclZKFKXnVYPNL8x4DaiJ-CRDf9QwOASddoSCzfb3eIIXOkIR3lZXu5e_lICS4R3j32ej3ktv3Ik1O3FMB24809i60kPktjP-j-SPcOUCSoxbjjsboQtHZIO9Zj2Im1fKn3PYo4d_pQ6p_cWcQw4vQ3waG9Bf7Cixp8DA4InpAIDr45K9GGEWIBK1d7BmpgB0JFdSV16c2NmttY--WgowH58bbHgqGV8oKmznk6gnfCf6SvUrZT0hsUHIiIxb2LhQpunxTiiHBEuLRjPCHrINaYCxMleRMGpxXi0I-OwQagzPUaEvu-zeOD6OYV2eDD1ThVFmzov5JKovFy5Fb6Pq81Nwok2fgLZ9KuuxMrPWzqa8kbAlMpXoD7TB_0000?></g></svg>