<?plantuml 1.2026.2?><svg xmlns="http://www.w3.org/2000/svg" xmlns:xlink="http://www.w3.org/1999/xlink" contentStyleType="text/css" data-diagram-type="CLASS" height="1068px" preserveAspectRatio="none" style="width:1919px;height:1068px;background:#FFFFFF;" version="1.1" viewBox="0 0 1919 1068" width="1919px" zoomAndPan="magnify"><title>RAIkeep Library Dependencies</title><defs><filter height="300%" id="f11ufvvo27k45s" width="300%" x="-1" y="-1"><feGaussianBlur result="blurOut" stdDeviation="2"/><feColorMatrix in="blurOut" result="blurOut2" type="matrix" values="0 0 0 0 0 0 0 0 0 0 0 0 0 0 0 0 0 0 .4 0"/><feOffset dx="4" dy="4" in="blurOut2" result="blurOut3"/><feBlend in="SourceGraphic" in2="blurOut3" mode="normal"/></filter></defs><g><g class="title" data-source-line="1"><text fill="#727375" font-family="'Papyrus'" font-size="48" font-weight="bold" lengthAdjust="spacing" textLength="674.3906" x="615.6647" y="55.1172">RAIkeep Library Dependencies</text></g><!--cluster P_OsLib--><g class="cluster" data-qualified-name="P_OsLib" data-source-line="40" id="ent0002"><path d="M326.34,102.8185 L381.676,102.8185 A3.75,3.75 0 0 1 384.176,105.3185 L391.176,133.2745 L808.34,133.2745 A2.5,2.5 0 0 1 810.84,135.7745 L810.84,456.7185 A2.5,2.5 0 0 1 808.34,459.2185 L326.34,459.2185 A2.5,2.5 0 0 1 323.84,456.7185 L323.84,105.3185 A2.5,2.5 0 0 1 326.34,102.8185" fill="#BFD8F0" fill-opacity="0.47059" style="stroke:#1F2937;stroke-width:1.5;"/><line style="stroke:#1F2937;stroke-width:1.5;" x1="323.84" x2="391.176" y1="133.2745" y2="133.2745"/><text fill="#021F5E" fill-opacity="0.79216" font-family="'Casual'" font-size="24" font-weight="bold" lengthAdjust="spacing" textLength="54.336" x="327.84" y="124.0185">OsLib</text></g><!--cluster P_RaiUtils--><g class="cluster" data-qualified-name="P_RaiUtils" data-source-line="53" id="ent0013"><path d="M853.34,225.8185 L933.06,225.8185 A3.75,3.75 0 0 1 935.56,228.3185 L942.56,256.2745 L1369.34,256.2745 A2.5,2.5 0 0 1 1371.84,258.7745 L1371.84,456.7185 A2.5,2.5 0 0 1 1369.34,459.2185 L853.34,459.2185 A2.5,2.5 0 0 1 850.84,456.7185 L850.84,228.3185 A2.5,2.5 0 0 1 853.34,225.8185" fill="#BFD8F0" fill-opacity="0.47059" style="stroke:#1F2937;stroke-width:1.5;"/><line style="stroke:#1F2937;stroke-width:1.5;" x1="850.84" x2="942.56" y1="256.2745" y2="256.2745"/><text fill="#021F5E" fill-opacity="0.79216" font-family="'Casual'" font-size="24" font-weight="bold" lengthAdjust="spacing" textLength="78.72" x="854.84" y="247.0185">RaiUtils</text></g><!--cluster P_JsonPit--><g class="cluster" data-qualified-name="P_JsonPit" data-source-line="61" id="ent0019"><path d="M378.34,499.2185 L452.828,499.2185 A3.75,3.75 0 0 1 455.328,501.7185 L462.328,529.6745 L863.34,529.6745 A2.5,2.5 0 0 1 865.84,532.1745 L865.84,853.1185 A2.5,2.5 0 0 1 863.34,855.6185 L378.34,855.6185 A2.5,2.5 0 0 1 375.84,853.1185 L375.84,501.7185 A2.5,2.5 0 0 1 378.34,499.2185" fill="#BFD8F0" fill-opacity="0.47059" style="stroke:#1F2937;stroke-width:1.5;"/><line style="stroke:#1F2937;stroke-width:1.5;" x1="375.84" x2="462.328" y1="529.6745" y2="529.6745"/><text fill="#021F5E" fill-opacity="0.79216" font-family="'Casual'" font-size="24" font-weight="bold" lengthAdjust="spacing" textLength="73.488" x="379.84" y="520.4185">JsonPit</text></g><!--cluster P_RaiImage--><g class="cluster" data-qualified-name="P_RaiImage" data-source-line="73" id="ent0029"><path d="M1232.34,624.6185 L1329.676,624.6185 A3.75,3.75 0 0 1 1332.176,627.1185 L1339.176,655.0745 L1737.34,655.0745 A2.5,2.5 0 0 1 1739.84,657.5745 L1739.84,961.1185 A2.5,2.5 0 0 1 1737.34,963.6185 L1232.34,963.6185 A2.5,2.5 0 0 1 1229.84,961.1185 L1229.84,627.1185 A2.5,2.5 0 0 1 1232.34,624.6185" fill="#BFD8F0" fill-opacity="0.47059" style="stroke:#1F2937;stroke-width:1.5;"/><line style="stroke:#1F2937;stroke-width:1.5;" x1="1229.84" x2="1339.176" y1="655.0745" y2="655.0745"/><text fill="#021F5E" fill-opacity="0.79216" font-family="'Casual'" font-size="24" font-weight="bold" lengthAdjust="spacing" textLength="96.336" x="1233.84" y="645.8185">RaiImage</text></g><!--class Os--><g class="entity" data-qualified-name="P_OsLib.Os" data-source-line="41" id="ent0003"><rect fill="#E8F6EC" height="48" rx="2.5" ry="2.5" style="stroke:#004203;stroke-width:0.5;" width="44.571" x="364.55" y="153.8185"/><ellipse cx="379.55" cy="169.8185" fill="#ADD1B2" rx="11" ry="11" style="stroke:#181818;stroke-width:1;"/><path d="M382.0231,175.9616 Q381.4421,176.2604 380.8029,176.4098 Q380.1638,176.5592 379.4582,176.5592 Q376.9514,176.5592 375.6315,174.9074 Q374.3117,173.2555 374.3117,170.1344 Q374.3117,167.005 375.6315,165.3532 Q376.9514,163.7013 379.4582,163.7013 Q380.1638,163.7013 380.8112,163.8507 Q381.4587,164.0001 382.0231,164.299 L382.0231,167.0216 Q381.3923,166.4406 380.7988,166.1708 Q380.2053,165.901 379.5744,165.901 Q378.2297,165.901 377.5449,166.9677 Q376.8601,168.0343 376.8601,170.1344 Q376.8601,172.2262 377.5449,173.2929 Q378.2297,174.3595 379.5744,174.3595 Q380.2053,174.3595 380.7988,174.0897 Q381.3923,173.82 382.0231,173.2389 Z " fill="#000000"/><text fill="#000000" font-family="'Casual'" font-size="13" lengthAdjust="spacing" textLength="12.571" x="393.55" y="173.595">Os</text><line style="stroke:#004203;stroke-width:0.5;" x1="365.55" x2="408.121" y1="185.8185" y2="185.8185"/><line style="stroke:#004203;stroke-width:0.5;" x1="365.55" x2="408.121" y1="193.8185" y2="193.8185"/></g><!--class RaiFile--><g class="entity" data-qualified-name="P_OsLib.RaiFile" data-source-line="42" id="ent0004"><rect fill="#E8F6EC" height="48" rx="2.5" ry="2.5" style="stroke:#004203;stroke-width:0.5;" width="69.349" x="454.16" y="153.8185"/><ellipse cx="469.16" cy="169.8185" fill="#ADD1B2" rx="11" ry="11" style="stroke:#181818;stroke-width:1;"/><path d="M471.6331,175.9616 Q471.0521,176.2604 470.4129,176.4098 Q469.7738,176.5592 469.0682,176.5592 Q466.5614,176.5592 465.2415,174.9074 Q463.9217,173.2555 463.9217,170.1344 Q463.9217,167.005 465.2415,165.3532 Q466.5614,163.7013 469.0682,163.7013 Q469.7738,163.7013 470.4212,163.8507 Q471.0687,164.0001 471.6331,164.299 L471.6331,167.0216 Q471.0023,166.4406 470.4088,166.1708 Q469.8153,165.901 469.1844,165.901 Q467.8397,165.901 467.1549,166.9677 Q466.4701,168.0343 466.4701,170.1344 Q466.4701,172.2262 467.1549,173.2929 Q467.8397,174.3595 469.1844,174.3595 Q469.8153,174.3595 470.4088,174.0897 Q471.0023,173.82 471.6331,173.2389 Z " fill="#000000"/><text fill="#000000" font-family="'Casual'" font-size="13" lengthAdjust="spacing" textLength="37.349" x="483.16" y="173.595">RaiFile</text><line style="stroke:#004203;stroke-width:0.5;" x1="455.16" x2="522.509" y1="185.8185" y2="185.8185"/><line style="stroke:#004203;stroke-width:0.5;" x1="455.16" x2="522.509" y1="193.8185" y2="193.8185"/></g><!--class RaiPath--><g class="entity" data-qualified-name="P_OsLib.RaiPath" data-source-line="43" id="ent0005"><rect fill="#E8F6EC" height="48" rx="2.5" ry="2.5" style="stroke:#004203;stroke-width:0.5;" width="75.264" x="563.21" y="153.8185"/><ellipse cx="578.21" cy="169.8185" fill="#ADD1B2" rx="11" ry="11" style="stroke:#181818;stroke-width:1;"/><path d="M580.6831,175.9616 Q580.1021,176.2604 579.4629,176.4098 Q578.8238,176.5592 578.1182,176.5592 Q575.6114,176.5592 574.2915,174.9074 Q572.9717,173.2555 572.9717,170.1344 Q572.9717,167.005 574.2915,165.3532 Q575.6114,163.7013 578.1182,163.7013 Q578.8238,163.7013 579.4712,163.8507 Q580.1187,164.0001 580.6831,164.299 L580.6831,167.0216 Q580.0523,166.4406 579.4588,166.1708 Q578.8653,165.901 578.2344,165.901 Q576.8897,165.901 576.2049,166.9677 Q575.5201,168.0343 575.5201,170.1344 Q575.5201,172.2262 576.2049,173.2929 Q576.8897,174.3595 578.2344,174.3595 Q578.8653,174.3595 579.4588,174.0897 Q580.0523,173.82 580.6831,173.2389 Z " fill="#000000"/><text fill="#000000" font-family="'Casual'" font-size="13" lengthAdjust="spacing" textLength="43.264" x="592.21" y="173.595">RaiPath</text><line style="stroke:#004203;stroke-width:0.5;" x1="564.21" x2="637.474" y1="185.8185" y2="185.8185"/><line style="stroke:#004203;stroke-width:0.5;" x1="564.21" x2="637.474" y1="193.8185" y2="193.8185"/></g><!--class RaiSystem--><g class="entity" data-qualified-name="P_OsLib.RaiSystem" data-source-line="44" id="ent0006"><rect fill="#E8F6EC" height="48" rx="2.5" ry="2.5" style="stroke:#004203;stroke-width:0.5;" width="89.07" x="676.3" y="153.8185"/><ellipse cx="691.3" cy="169.8185" fill="#ADD1B2" rx="11" ry="11" style="stroke:#181818;stroke-width:1;"/><path d="M693.7731,175.9616 Q693.1921,176.2604 692.5529,176.4098 Q691.9138,176.5592 691.2082,176.5592 Q688.7014,176.5592 687.3815,174.9074 Q686.0617,173.2555 686.0617,170.1344 Q686.0617,167.005 687.3815,165.3532 Q688.7014,163.7013 691.2082,163.7013 Q691.9138,163.7013 692.5612,163.8507 Q693.2087,164.0001 693.7731,164.299 L693.7731,167.0216 Q693.1423,166.4406 692.5488,166.1708 Q691.9553,165.901 691.3244,165.901 Q689.9797,165.901 689.2949,166.9677 Q688.6101,168.0343 688.6101,170.1344 Q688.6101,172.2262 689.2949,173.2929 Q689.9797,174.3595 691.3244,174.3595 Q691.9553,174.3595 692.5488,174.0897 Q693.1423,173.82 693.7731,173.2389 Z " fill="#000000"/><text fill="#000000" font-family="'Casual'" font-size="13" lengthAdjust="spacing" textLength="57.07" x="705.3" y="173.595">RaiSystem</text><line style="stroke:#004203;stroke-width:0.5;" x1="677.3" x2="764.37" y1="185.8185" y2="185.8185"/><line style="stroke:#004203;stroke-width:0.5;" x1="677.3" x2="764.37" y1="193.8185" y2="193.8185"/></g><!--class TextFile--><g class="entity" data-qualified-name="P_OsLib.TextFile" data-source-line="45" id="ent0007"><rect fill="#E8F6EC" height="48" rx="2.5" ry="2.5" style="stroke:#004203;stroke-width:0.5;" width="76.044" x="347.82" y="276.8185"/><ellipse cx="362.82" cy="292.8185" fill="#ADD1B2" rx="11" ry="11" style="stroke:#181818;stroke-width:1;"/><path d="M365.2931,298.9616 Q364.7121,299.2604 364.0729,299.4098 Q363.4338,299.5592 362.7282,299.5592 Q360.2214,299.5592 358.9015,297.9074 Q357.5817,296.2555 357.5817,293.1344 Q357.5817,290.005 358.9015,288.3532 Q360.2214,286.7013 362.7282,286.7013 Q363.4338,286.7013 364.0812,286.8507 Q364.7287,287.0001 365.2931,287.299 L365.2931,290.0216 Q364.6623,289.4406 364.0688,289.1708 Q363.4753,288.901 362.8444,288.901 Q361.4997,288.901 360.8149,289.9677 Q360.1301,291.0343 360.1301,293.1344 Q360.1301,295.2262 360.8149,296.2929 Q361.4997,297.3595 362.8444,297.3595 Q363.4753,297.3595 364.0688,297.0897 Q364.6623,296.82 365.2931,296.2389 Z " fill="#000000"/><text fill="#000000" font-family="'Casual'" font-size="13" lengthAdjust="spacing" textLength="44.044" x="376.82" y="296.595">TextFile</text><line style="stroke:#004203;stroke-width:0.5;" x1="348.82" x2="422.864" y1="308.8185" y2="308.8185"/><line style="stroke:#004203;stroke-width:0.5;" x1="348.82" x2="422.864" y1="316.8185" y2="316.8185"/></g><!--class CsvFile--><g class="entity" data-qualified-name="P_OsLib.CsvFile" data-source-line="46" id="ent0008"><rect fill="#E8F6EC" height="48" rx="2.5" ry="2.5" style="stroke:#004203;stroke-width:0.5;" width="69.947" x="458.87" y="276.8185"/><ellipse cx="473.87" cy="292.8185" fill="#ADD1B2" rx="11" ry="11" style="stroke:#181818;stroke-width:1;"/><path d="M476.3431,298.9616 Q475.7621,299.2604 475.1229,299.4098 Q474.4838,299.5592 473.7782,299.5592 Q471.2714,299.5592 469.9515,297.9074 Q468.6317,296.2555 468.6317,293.1344 Q468.6317,290.005 469.9515,288.3532 Q471.2714,286.7013 473.7782,286.7013 Q474.4838,286.7013 475.1312,286.8507 Q475.7787,287.0001 476.3431,287.299 L476.3431,290.0216 Q475.7123,289.4406 475.1188,289.1708 Q474.5253,288.901 473.8944,288.901 Q472.5497,288.901 471.8649,289.9677 Q471.1801,291.0343 471.1801,293.1344 Q471.1801,295.2262 471.8649,296.2929 Q472.5497,297.3595 473.8944,297.3595 Q474.5253,297.3595 475.1188,297.0897 Q475.7123,296.82 476.3431,296.2389 Z " fill="#000000"/><text fill="#000000" font-family="'Casual'" font-size="13" lengthAdjust="spacing" textLength="37.947" x="487.87" y="296.595">CsvFile</text><line style="stroke:#004203;stroke-width:0.5;" x1="459.87" x2="527.817" y1="308.8185" y2="308.8185"/><line style="stroke:#004203;stroke-width:0.5;" x1="459.87" x2="527.817" y1="316.8185" y2="316.8185"/></g><!--class TmpFile--><g class="entity" data-qualified-name="P_OsLib.TmpFile" data-source-line="47" id="ent0009"><rect fill="#E8F6EC" height="48" rx="2.5" ry="2.5" style="stroke:#004203;stroke-width:0.5;" width="74.224" x="563.73" y="276.8185"/><ellipse cx="578.73" cy="292.8185" fill="#ADD1B2" rx="11" ry="11" style="stroke:#181818;stroke-width:1;"/><path d="M581.2031,298.9616 Q580.6221,299.2604 579.9829,299.4098 Q579.3438,299.5592 578.6382,299.5592 Q576.1314,299.5592 574.8115,297.9074 Q573.4917,296.2555 573.4917,293.1344 Q573.4917,290.005 574.8115,288.3532 Q576.1314,286.7013 578.6382,286.7013 Q579.3438,286.7013 579.9912,286.8507 Q580.6387,287.0001 581.2031,287.299 L581.2031,290.0216 Q580.5723,289.4406 579.9788,289.1708 Q579.3853,288.901 578.7544,288.901 Q577.4097,288.901 576.7249,289.9677 Q576.0401,291.0343 576.0401,293.1344 Q576.0401,295.2262 576.7249,296.2929 Q577.4097,297.3595 578.7544,297.3595 Q579.3853,297.3595 579.9788,297.0897 Q580.5723,296.82 581.2031,296.2389 Z " fill="#000000"/><text fill="#000000" font-family="'Casual'" font-size="13" lengthAdjust="spacing" textLength="42.224" x="592.73" y="296.595">TmpFile</text><line style="stroke:#004203;stroke-width:0.5;" x1="564.73" x2="636.954" y1="308.8185" y2="308.8185"/><line style="stroke:#004203;stroke-width:0.5;" x1="564.73" x2="636.954" y1="316.8185" y2="316.8185"/></g><!--class CanonicalFile--><g class="entity" data-qualified-name="P_OsLib.CanonicalFile" data-source-line="48" id="ent0010"><rect fill="#E8F6EC" height="48" rx="2.5" ry="2.5" style="stroke:#004203;stroke-width:0.5;" width="105.086" x="673.3" y="276.8185"/><ellipse cx="688.3" cy="292.8185" fill="#ADD1B2" rx="11" ry="11" style="stroke:#181818;stroke-width:1;"/><path d="M690.7731,298.9616 Q690.1921,299.2604 689.5529,299.4098 Q688.9138,299.5592 688.2082,299.5592 Q685.7014,299.5592 684.3815,297.9074 Q683.0617,296.2555 683.0617,293.1344 Q683.0617,290.005 684.3815,288.3532 Q685.7014,286.7013 688.2082,286.7013 Q688.9138,286.7013 689.5612,286.8507 Q690.2087,287.0001 690.7731,287.299 L690.7731,290.0216 Q690.1423,289.4406 689.5488,289.1708 Q688.9553,288.901 688.3244,288.901 Q686.9797,288.901 686.2949,289.9677 Q685.6101,291.0343 685.6101,293.1344 Q685.6101,295.2262 686.2949,296.2929 Q686.9797,297.3595 688.3244,297.3595 Q688.9553,297.3595 689.5488,297.0897 Q690.1423,296.82 690.7731,296.2389 Z " fill="#000000"/><text fill="#000000" font-family="'Casual'" font-size="13" lengthAdjust="spacing" textLength="73.086" x="702.3" y="296.595">CanonicalFile</text><line style="stroke:#004203;stroke-width:0.5;" x1="674.3" x2="777.386" y1="308.8185" y2="308.8185"/><line style="stroke:#004203;stroke-width:0.5;" x1="674.3" x2="777.386" y1="316.8185" y2="316.8185"/></g><!--class CanonicalPath--><g class="entity" data-qualified-name="P_OsLib.CanonicalPath" data-source-line="49" id="ent0011"><rect fill="#E8F6EC" height="48" rx="2.5" ry="2.5" style="stroke:#004203;stroke-width:0.5;" width="111.001" x="366.34" y="387.2185"/><ellipse cx="381.34" cy="403.2185" fill="#ADD1B2" rx="11" ry="11" style="stroke:#181818;stroke-width:1;"/><path d="M383.8131,409.3616 Q383.2321,409.6604 382.5929,409.8098 Q381.9538,409.9592 381.2482,409.9592 Q378.7414,409.9592 377.4215,408.3074 Q376.1017,406.6555 376.1017,403.5344 Q376.1017,400.405 377.4215,398.7532 Q378.7414,397.1013 381.2482,397.1013 Q381.9538,397.1013 382.6012,397.2507 Q383.2487,397.4001 383.8131,397.699 L383.8131,400.4216 Q383.1823,399.8406 382.5888,399.5708 Q381.9953,399.301 381.3644,399.301 Q380.0197,399.301 379.3349,400.3677 Q378.6501,401.4343 378.6501,403.5344 Q378.6501,405.6262 379.3349,406.6929 Q380.0197,407.7595 381.3644,407.7595 Q381.9953,407.7595 382.5888,407.4897 Q383.1823,407.22 383.8131,406.6389 Z " fill="#000000"/><text fill="#000000" font-family="'Casual'" font-size="13" lengthAdjust="spacing" textLength="79.001" x="395.34" y="406.995">CanonicalPath</text><line style="stroke:#004203;stroke-width:0.5;" x1="367.34" x2="476.341" y1="419.2185" y2="419.2185"/><line style="stroke:#004203;stroke-width:0.5;" x1="367.34" x2="476.341" y1="427.2185" y2="427.2185"/></g><!--class PathConventionType--><g class="entity" data-qualified-name="P_OsLib.PathConventionType" data-source-line="50" id="ent0012"><rect fill="#E8F6EC" height="48" rx="2.5" ry="2.5" style="stroke:#004203;stroke-width:0.5;" width="143.072" x="512.3" y="387.2185"/><ellipse cx="527.3" cy="403.2185" fill="#ADD1B2" rx="11" ry="11" style="stroke:#181818;stroke-width:1;"/><path d="M529.7731,409.3616 Q529.1921,409.6604 528.5529,409.8098 Q527.9138,409.9592 527.2082,409.9592 Q524.7014,409.9592 523.3815,408.3074 Q522.0617,406.6555 522.0617,403.5344 Q522.0617,400.405 523.3815,398.7532 Q524.7014,397.1013 527.2082,397.1013 Q527.9138,397.1013 528.5612,397.2507 Q529.2087,397.4001 529.7731,397.699 L529.7731,400.4216 Q529.1423,399.8406 528.5488,399.5708 Q527.9553,399.301 527.3244,399.301 Q525.9797,399.301 525.2949,400.3677 Q524.6101,401.4343 524.6101,403.5344 Q524.6101,405.6262 525.2949,406.6929 Q525.9797,407.7595 527.3244,407.7595 Q527.9553,407.7595 528.5488,407.4897 Q529.1423,407.22 529.7731,406.6389 Z " fill="#000000"/><text fill="#000000" font-family="'Casual'" font-size="13" lengthAdjust="spacing" textLength="111.072" x="541.3" y="406.995">PathConventionType</text><line style="stroke:#004203;stroke-width:0.5;" x1="513.3" x2="654.372" y1="419.2185" y2="419.2185"/><line style="stroke:#004203;stroke-width:0.5;" x1="513.3" x2="654.372" y1="427.2185" y2="427.2185"/></g><!--class Email--><g class="entity" data-qualified-name="P_RaiUtils.Email" data-source-line="54" id="ent0014"><rect fill="#E8F6EC" height="48" rx="2.5" ry="2.5" style="stroke:#004203;stroke-width:0.5;" width="62.459" x="874.61" y="276.8185"/><ellipse cx="889.61" cy="292.8185" fill="#ADD1B2" rx="11" ry="11" style="stroke:#181818;stroke-width:1;"/><path d="M892.0831,298.9616 Q891.5021,299.2604 890.8629,299.4098 Q890.2238,299.5592 889.5182,299.5592 Q887.0114,299.5592 885.6915,297.9074 Q884.3717,296.2555 884.3717,293.1344 Q884.3717,290.005 885.6915,288.3532 Q887.0114,286.7013 889.5182,286.7013 Q890.2238,286.7013 890.8712,286.8507 Q891.5187,287.0001 892.0831,287.299 L892.0831,290.0216 Q891.4523,289.4406 890.8588,289.1708 Q890.2653,288.901 889.6344,288.901 Q888.2897,288.901 887.6049,289.9677 Q886.9201,291.0343 886.9201,293.1344 Q886.9201,295.2262 887.6049,296.2929 Q888.2897,297.3595 889.6344,297.3595 Q890.2653,297.3595 890.8588,297.0897 Q891.4523,296.82 892.0831,296.2389 Z " fill="#000000"/><text fill="#000000" font-family="'Casual'" font-size="13" lengthAdjust="spacing" textLength="30.459" x="903.61" y="296.595">Email</text><line style="stroke:#004203;stroke-width:0.5;" x1="875.61" x2="936.069" y1="308.8185" y2="308.8185"/><line style="stroke:#004203;stroke-width:0.5;" x1="875.61" x2="936.069" y1="316.8185" y2="316.8185"/></g><!--class JsonConversionExtensions--><g class="entity" data-qualified-name="P_RaiUtils.JsonConversionExtensions" data-source-line="55" id="ent0015"><rect fill="#E8F6EC" height="48" rx="2.5" ry="2.5" style="stroke:#004203;stroke-width:0.5;" width="173.7" x="971.99" y="276.8185"/><ellipse cx="986.99" cy="292.8185" fill="#ADD1B2" rx="11" ry="11" style="stroke:#181818;stroke-width:1;"/><path d="M989.4631,298.9616 Q988.8821,299.2604 988.2429,299.4098 Q987.6038,299.5592 986.8982,299.5592 Q984.3914,299.5592 983.0715,297.9074 Q981.7517,296.2555 981.7517,293.1344 Q981.7517,290.005 983.0715,288.3532 Q984.3914,286.7013 986.8982,286.7013 Q987.6038,286.7013 988.2512,286.8507 Q988.8987,287.0001 989.4631,287.299 L989.4631,290.0216 Q988.8323,289.4406 988.2388,289.1708 Q987.6453,288.901 987.0144,288.901 Q985.6697,288.901 984.9849,289.9677 Q984.3001,291.0343 984.3001,293.1344 Q984.3001,295.2262 984.9849,296.2929 Q985.6697,297.3595 987.0144,297.3595 Q987.6453,297.3595 988.2388,297.0897 Q988.8323,296.82 989.4631,296.2389 Z " fill="#000000"/><text fill="#000000" font-family="'Casual'" font-size="13" lengthAdjust="spacing" textLength="141.7" x="1000.99" y="296.595">JsonConversionExtensions</text><line style="stroke:#004203;stroke-width:0.5;" x1="972.99" x2="1144.69" y1="308.8185" y2="308.8185"/><line style="stroke:#004203;stroke-width:0.5;" x1="972.99" x2="1144.69" y1="316.8185" y2="316.8185"/></g><!--class ParameterDictionary--><g class="entity" data-qualified-name="P_RaiUtils.ParameterDictionary" data-source-line="56" id="ent0016"><rect fill="#E8F6EC" height="48" rx="2.5" ry="2.5" style="stroke:#004203;stroke-width:0.5;" width="147.349" x="1181.16" y="276.8185"/><ellipse cx="1196.16" cy="292.8185" fill="#ADD1B2" rx="11" ry="11" style="stroke:#181818;stroke-width:1;"/><path d="M1198.6331,298.9616 Q1198.0521,299.2604 1197.4129,299.4098 Q1196.7738,299.5592 1196.0682,299.5592 Q1193.5614,299.5592 1192.2415,297.9074 Q1190.9217,296.2555 1190.9217,293.1344 Q1190.9217,290.005 1192.2415,288.3532 Q1193.5614,286.7013 1196.0682,286.7013 Q1196.7738,286.7013 1197.4212,286.8507 Q1198.0687,287.0001 1198.6331,287.299 L1198.6331,290.0216 Q1198.0023,289.4406 1197.4088,289.1708 Q1196.8153,288.901 1196.1844,288.901 Q1194.8397,288.901 1194.1549,289.9677 Q1193.4701,291.0343 1193.4701,293.1344 Q1193.4701,295.2262 1194.1549,296.2929 Q1194.8397,297.3595 1196.1844,297.3595 Q1196.8153,297.3595 1197.4088,297.0897 Q1198.0023,296.82 1198.6331,296.2389 Z " fill="#000000"/><text fill="#000000" font-family="'Casual'" font-size="13" lengthAdjust="spacing" textLength="115.349" x="1210.16" y="296.595">ParameterDictionary</text><line style="stroke:#004203;stroke-width:0.5;" x1="1182.16" x2="1327.509" y1="308.8185" y2="308.8185"/><line style="stroke:#004203;stroke-width:0.5;" x1="1182.16" x2="1327.509" y1="316.8185" y2="316.8185"/></g><!--class RandomExtensions--><g class="entity" data-qualified-name="P_RaiUtils.RandomExtensions" data-source-line="57" id="ent0017"><rect fill="#E8F6EC" height="48" rx="2.5" ry="2.5" style="stroke:#004203;stroke-width:0.5;" width="132.711" x="874.48" y="387.2185"/><ellipse cx="889.48" cy="403.2185" fill="#ADD1B2" rx="11" ry="11" style="stroke:#181818;stroke-width:1;"/><path d="M891.9531,409.3616 Q891.3721,409.6604 890.7329,409.8098 Q890.0938,409.9592 889.3882,409.9592 Q886.8814,409.9592 885.5615,408.3074 Q884.2417,406.6555 884.2417,403.5344 Q884.2417,400.405 885.5615,398.7532 Q886.8814,397.1013 889.3882,397.1013 Q890.0938,397.1013 890.7412,397.2507 Q891.3887,397.4001 891.9531,397.699 L891.9531,400.4216 Q891.3223,399.8406 890.7288,399.5708 Q890.1353,399.301 889.5044,399.301 Q888.1597,399.301 887.4749,400.3677 Q886.7901,401.4343 886.7901,403.5344 Q886.7901,405.6262 887.4749,406.6929 Q888.1597,407.7595 889.5044,407.7595 Q890.1353,407.7595 890.7288,407.4897 Q891.3223,407.22 891.9531,406.6389 Z " fill="#000000"/><text fill="#000000" font-family="'Casual'" font-size="13" lengthAdjust="spacing" textLength="100.711" x="903.48" y="406.995">RandomExtensions</text><line style="stroke:#004203;stroke-width:0.5;" x1="875.48" x2="1006.191" y1="419.2185" y2="419.2185"/><line style="stroke:#004203;stroke-width:0.5;" x1="875.48" x2="1006.191" y1="427.2185" y2="427.2185"/></g><!--class SearchExpression--><g class="entity" data-qualified-name="P_RaiUtils.SearchExpression" data-source-line="58" id="ent0018"><rect fill="#E8F6EC" height="48" rx="2.5" ry="2.5" style="stroke:#004203;stroke-width:0.5;" width="129.058" x="1042.31" y="387.2185"/><ellipse cx="1057.31" cy="403.2185" fill="#ADD1B2" rx="11" ry="11" style="stroke:#181818;stroke-width:1;"/><path d="M1059.7831,409.3616 Q1059.2021,409.6604 1058.5629,409.8098 Q1057.9238,409.9592 1057.2182,409.9592 Q1054.7114,409.9592 1053.3915,408.3074 Q1052.0717,406.6555 1052.0717,403.5344 Q1052.0717,400.405 1053.3915,398.7532 Q1054.7114,397.1013 1057.2182,397.1013 Q1057.9238,397.1013 1058.5712,397.2507 Q1059.2187,397.4001 1059.7831,397.699 L1059.7831,400.4216 Q1059.1523,399.8406 1058.5588,399.5708 Q1057.9653,399.301 1057.3344,399.301 Q1055.9897,399.301 1055.3049,400.3677 Q1054.6201,401.4343 1054.6201,403.5344 Q1054.6201,405.6262 1055.3049,406.6929 Q1055.9897,407.7595 1057.3344,407.7595 Q1057.9653,407.7595 1058.5588,407.4897 Q1059.1523,407.22 1059.7831,406.6389 Z " fill="#000000"/><text fill="#000000" font-family="'Casual'" font-size="13" lengthAdjust="spacing" textLength="97.058" x="1071.31" y="406.995">SearchExpression</text><line style="stroke:#004203;stroke-width:0.5;" x1="1043.31" x2="1170.368" y1="419.2185" y2="419.2185"/><line style="stroke:#004203;stroke-width:0.5;" x1="1043.31" x2="1170.368" y1="427.2185" y2="427.2185"/></g><!--class Item--><g class="entity" data-qualified-name="P_JsonPit.Item" data-source-line="62" id="ent0020"><rect fill="#E8F6EC" height="48" rx="2.5" ry="2.5" style="stroke:#004203;stroke-width:0.5;" width="58" x="427.84" y="550.2185"/><ellipse cx="442.84" cy="566.2185" fill="#ADD1B2" rx="11" ry="11" style="stroke:#181818;stroke-width:1;"/><path d="M445.3131,572.3616 Q444.7321,572.6604 444.0929,572.8098 Q443.4538,572.9592 442.7482,572.9592 Q440.2414,572.9592 438.9215,571.3074 Q437.6017,569.6555 437.6017,566.5344 Q437.6017,563.405 438.9215,561.7532 Q440.2414,560.1013 442.7482,560.1013 Q443.4538,560.1013 444.1012,560.2507 Q444.7487,560.4001 445.3131,560.699 L445.3131,563.4216 Q444.6823,562.8406 444.0888,562.5708 Q443.4953,562.301 442.8644,562.301 Q441.5197,562.301 440.8349,563.3677 Q440.1501,564.4343 440.1501,566.5344 Q440.1501,568.6262 440.8349,569.6929 Q441.5197,570.7595 442.8644,570.7595 Q443.4953,570.7595 444.0888,570.4897 Q444.6823,570.22 445.3131,569.6389 Z " fill="#000000"/><text fill="#000000" font-family="'Casual'" font-size="13" lengthAdjust="spacing" textLength="26" x="456.84" y="569.995">Item</text><line style="stroke:#004203;stroke-width:0.5;" x1="428.84" x2="484.84" y1="582.2185" y2="582.2185"/><line style="stroke:#004203;stroke-width:0.5;" x1="428.84" x2="484.84" y1="590.2185" y2="590.2185"/></g><!--class ItemsBase--><g class="entity" data-qualified-name="P_JsonPit.ItemsBase" data-source-line="63" id="ent0021"><rect fill="#E8F6EC" height="48" rx="2.5" ry="2.5" style="stroke:#004203;stroke-width:0.5;" width="88.641" x="560.52" y="550.2185"/><ellipse cx="575.52" cy="566.2185" fill="#ADD1B2" rx="11" ry="11" style="stroke:#181818;stroke-width:1;"/><path d="M577.9931,572.3616 Q577.4121,572.6604 576.7729,572.8098 Q576.1338,572.9592 575.4282,572.9592 Q572.9214,572.9592 571.6015,571.3074 Q570.2817,569.6555 570.2817,566.5344 Q570.2817,563.405 571.6015,561.7532 Q572.9214,560.1013 575.4282,560.1013 Q576.1338,560.1013 576.7812,560.2507 Q577.4287,560.4001 577.9931,560.699 L577.9931,563.4216 Q577.3623,562.8406 576.7688,562.5708 Q576.1753,562.301 575.5444,562.301 Q574.1997,562.301 573.5149,563.3677 Q572.8301,564.4343 572.8301,566.5344 Q572.8301,568.6262 573.5149,569.6929 Q574.1997,570.7595 575.5444,570.7595 Q576.1753,570.7595 576.7688,570.4897 Q577.3623,570.22 577.9931,569.6389 Z " fill="#000000"/><text fill="#000000" font-family="'Casual'" font-size="13" lengthAdjust="spacing" textLength="56.641" x="589.52" y="569.995">ItemsBase</text><line style="stroke:#004203;stroke-width:0.5;" x1="561.52" x2="648.161" y1="582.2185" y2="582.2185"/><line style="stroke:#004203;stroke-width:0.5;" x1="561.52" x2="648.161" y1="590.2185" y2="590.2185"/></g><!--class JsonPitBase--><g class="entity" data-qualified-name="P_JsonPit.JsonPitBase" data-source-line="64" id="ent0022"><rect fill="#E8F6EC" height="48" rx="2.5" ry="2.5" style="stroke:#004203;stroke-width:0.5;" width="96.974" x="704.35" y="550.2185"/><ellipse cx="719.35" cy="566.2185" fill="#ADD1B2" rx="11" ry="11" style="stroke:#181818;stroke-width:1;"/><path d="M721.8231,572.3616 Q721.2421,572.6604 720.6029,572.8098 Q719.9638,572.9592 719.2582,572.9592 Q716.7514,572.9592 715.4315,571.3074 Q714.1117,569.6555 714.1117,566.5344 Q714.1117,563.405 715.4315,561.7532 Q716.7514,560.1013 719.2582,560.1013 Q719.9638,560.1013 720.6112,560.2507 Q721.2587,560.4001 721.8231,560.699 L721.8231,563.4216 Q721.1923,562.8406 720.5988,562.5708 Q720.0053,562.301 719.3744,562.301 Q718.0297,562.301 717.3449,563.3677 Q716.6601,564.4343 716.6601,566.5344 Q716.6601,568.6262 717.3449,569.6929 Q718.0297,570.7595 719.3744,570.7595 Q720.0053,570.7595 720.5988,570.4897 Q721.1923,570.22 721.8231,569.6389 Z " fill="#000000"/><text fill="#000000" font-family="'Casual'" font-size="13" lengthAdjust="spacing" textLength="64.974" x="733.35" y="569.995">JsonPitBase</text><line style="stroke:#004203;stroke-width:0.5;" x1="705.35" x2="800.324" y1="582.2185" y2="582.2185"/><line style="stroke:#004203;stroke-width:0.5;" x1="705.35" x2="800.324" y1="590.2185" y2="590.2185"/></g><!--class Pit--><g class="entity" data-qualified-name="P_JsonPit.Pit" data-source-line="65" id="ent0023"><rect fill="#E8F6EC" height="48" rx="2.5" ry="2.5" style="stroke:#004203;stroke-width:0.5;" width="47.236" x="433.22" y="675.6185"/><ellipse cx="448.22" cy="691.6185" fill="#ADD1B2" rx="11" ry="11" style="stroke:#181818;stroke-width:1;"/><path d="M450.6931,697.7616 Q450.1121,698.0604 449.4729,698.2098 Q448.8338,698.3592 448.1282,698.3592 Q445.6214,698.3592 444.3015,696.7074 Q442.9817,695.0555 442.9817,691.9344 Q442.9817,688.805 444.3015,687.1532 Q445.6214,685.5013 448.1282,685.5013 Q448.8338,685.5013 449.4812,685.6507 Q450.1287,685.8001 450.6931,686.099 L450.6931,688.8216 Q450.0623,688.2406 449.4688,687.9708 Q448.8753,687.701 448.2444,687.701 Q446.8997,687.701 446.2149,688.7677 Q445.5301,689.8343 445.5301,691.9344 Q445.5301,694.0262 446.2149,695.0929 Q446.8997,696.1595 448.2444,696.1595 Q448.8753,696.1595 449.4688,695.8897 Q450.0623,695.62 450.6931,695.0389 Z " fill="#000000"/><text fill="#000000" font-family="'Casual'" font-size="13" lengthAdjust="spacing" textLength="15.236" x="462.22" y="695.395">Pit</text><line style="stroke:#004203;stroke-width:0.5;" x1="434.22" x2="479.456" y1="707.6185" y2="707.6185"/><line style="stroke:#004203;stroke-width:0.5;" x1="434.22" x2="479.456" y1="715.6185" y2="715.6185"/></g><!--class PitItem--><g class="entity" data-qualified-name="P_JsonPit.PitItem" data-source-line="66" id="ent0024"><rect fill="#E8F6EC" height="48" rx="2.5" ry="2.5" style="stroke:#004203;stroke-width:0.5;" width="73.236" x="515.22" y="675.6185"/><ellipse cx="530.22" cy="691.6185" fill="#ADD1B2" rx="11" ry="11" style="stroke:#181818;stroke-width:1;"/><path d="M532.6931,697.7616 Q532.1121,698.0604 531.4729,698.2098 Q530.8338,698.3592 530.1282,698.3592 Q527.6214,698.3592 526.3015,696.7074 Q524.9817,695.0555 524.9817,691.9344 Q524.9817,688.805 526.3015,687.1532 Q527.6214,685.5013 530.1282,685.5013 Q530.8338,685.5013 531.4812,685.6507 Q532.1287,685.8001 532.6931,686.099 L532.6931,688.8216 Q532.0623,688.2406 531.4688,687.9708 Q530.8753,687.701 530.2444,687.701 Q528.8997,687.701 528.2149,688.7677 Q527.5301,689.8343 527.5301,691.9344 Q527.5301,694.0262 528.2149,695.0929 Q528.8997,696.1595 530.2444,696.1595 Q530.8753,696.1595 531.4688,695.8897 Q532.0623,695.62 532.6931,695.0389 Z " fill="#000000"/><text fill="#000000" font-family="'Casual'" font-size="13" lengthAdjust="spacing" textLength="41.236" x="544.22" y="695.395">PitItem</text><line style="stroke:#004203;stroke-width:0.5;" x1="516.22" x2="587.456" y1="707.6185" y2="707.6185"/><line style="stroke:#004203;stroke-width:0.5;" x1="516.22" x2="587.456" y1="715.6185" y2="715.6185"/></g><!--class PitItems--><g class="entity" data-qualified-name="P_JsonPit.PitItems" data-source-line="67" id="ent0025"><rect fill="#E8F6EC" height="48" rx="2.5" ry="2.5" style="stroke:#004203;stroke-width:0.5;" width="78.709" x="623.48" y="675.6185"/><ellipse cx="638.48" cy="691.6185" fill="#ADD1B2" rx="11" ry="11" style="stroke:#181818;stroke-width:1;"/><path d="M640.9531,697.7616 Q640.3721,698.0604 639.7329,698.2098 Q639.0938,698.3592 638.3882,698.3592 Q635.8814,698.3592 634.5615,696.7074 Q633.2417,695.0555 633.2417,691.9344 Q633.2417,688.805 634.5615,687.1532 Q635.8814,685.5013 638.3882,685.5013 Q639.0938,685.5013 639.7412,685.6507 Q640.3887,685.8001 640.9531,686.099 L640.9531,688.8216 Q640.3223,688.2406 639.7288,687.9708 Q639.1353,687.701 638.5044,687.701 Q637.1597,687.701 636.4749,688.7677 Q635.7901,689.8343 635.7901,691.9344 Q635.7901,694.0262 636.4749,695.0929 Q637.1597,696.1595 638.5044,696.1595 Q639.1353,696.1595 639.7288,695.8897 Q640.3223,695.62 640.9531,695.0389 Z " fill="#000000"/><text fill="#000000" font-family="'Casual'" font-size="13" lengthAdjust="spacing" textLength="46.709" x="652.48" y="695.395">PitItems</text><line style="stroke:#004203;stroke-width:0.5;" x1="624.48" x2="701.189" y1="707.6185" y2="707.6185"/><line style="stroke:#004203;stroke-width:0.5;" x1="624.48" x2="701.189" y1="715.6185" y2="715.6185"/></g><!--class MasterFlagFile--><g class="entity" data-qualified-name="P_JsonPit.MasterFlagFile" data-source-line="68" id="ent0026"><rect fill="#E8F6EC" height="48" rx="2.5" ry="2.5" style="stroke:#004203;stroke-width:0.5;" width="113.393" x="400.14" y="783.6185"/><ellipse cx="415.14" cy="799.6185" fill="#ADD1B2" rx="11" ry="11" style="stroke:#181818;stroke-width:1;"/><path d="M417.6131,805.7616 Q417.0321,806.0604 416.3929,806.2098 Q415.7538,806.3592 415.0482,806.3592 Q412.5414,806.3592 411.2215,804.7074 Q409.9017,803.0555 409.9017,799.9344 Q409.9017,796.805 411.2215,795.1532 Q412.5414,793.5013 415.0482,793.5013 Q415.7538,793.5013 416.4012,793.6507 Q417.0487,793.8001 417.6131,794.099 L417.6131,796.8216 Q416.9823,796.2406 416.3888,795.9708 Q415.7953,795.701 415.1644,795.701 Q413.8197,795.701 413.1349,796.7677 Q412.4501,797.8343 412.4501,799.9344 Q412.4501,802.0262 413.1349,803.0929 Q413.8197,804.1595 415.1644,804.1595 Q415.7953,804.1595 416.3888,803.8897 Q416.9823,803.62 417.6131,803.0389 Z " fill="#000000"/><text fill="#000000" font-family="'Casual'" font-size="13" lengthAdjust="spacing" textLength="81.393" x="429.14" y="803.395">MasterFlagFile</text><line style="stroke:#004203;stroke-width:0.5;" x1="401.14" x2="512.533" y1="815.6185" y2="815.6185"/><line style="stroke:#004203;stroke-width:0.5;" x1="401.14" x2="512.533" y1="823.6185" y2="823.6185"/></g><!--class ProcessFlagFile--><g class="entity" data-qualified-name="P_JsonPit.ProcessFlagFile" data-source-line="69" id="ent0027"><rect fill="#E8F6EC" height="48" rx="2.5" ry="2.5" style="stroke:#004203;stroke-width:0.5;" width="116.63" x="548.52" y="783.6185"/><ellipse cx="563.52" cy="799.6185" fill="#ADD1B2" rx="11" ry="11" style="stroke:#181818;stroke-width:1;"/><path d="M565.9931,805.7616 Q565.4121,806.0604 564.7729,806.2098 Q564.1338,806.3592 563.4282,806.3592 Q560.9214,806.3592 559.6015,804.7074 Q558.2817,803.0555 558.2817,799.9344 Q558.2817,796.805 559.6015,795.1532 Q560.9214,793.5013 563.4282,793.5013 Q564.1338,793.5013 564.7812,793.6507 Q565.4287,793.8001 565.9931,794.099 L565.9931,796.8216 Q565.3623,796.2406 564.7688,795.9708 Q564.1753,795.701 563.5444,795.701 Q562.1997,795.701 561.5149,796.7677 Q560.8301,797.8343 560.8301,799.9344 Q560.8301,802.0262 561.5149,803.0929 Q562.1997,804.1595 563.5444,804.1595 Q564.1753,804.1595 564.7688,803.8897 Q565.3623,803.62 565.9931,803.0389 Z " fill="#000000"/><text fill="#000000" font-family="'Casual'" font-size="13" lengthAdjust="spacing" textLength="84.63" x="577.52" y="803.395">ProcessFlagFile</text><line style="stroke:#004203;stroke-width:0.5;" x1="549.52" x2="664.15" y1="815.6185" y2="815.6185"/><line style="stroke:#004203;stroke-width:0.5;" x1="549.52" x2="664.15" y1="823.6185" y2="823.6185"/></g><!--class TimestampedValue--><g class="entity" data-qualified-name="P_JsonPit.TimestampedValue" data-source-line="70" id="ent0028"><rect fill="#E8F6EC" height="48" rx="2.5" ry="2.5" style="stroke:#004203;stroke-width:0.5;" width="133.504" x="700.09" y="783.6185"/><ellipse cx="715.09" cy="799.6185" fill="#ADD1B2" rx="11" ry="11" style="stroke:#181818;stroke-width:1;"/><path d="M717.5631,805.7616 Q716.9821,806.0604 716.3429,806.2098 Q715.7038,806.3592 714.9982,806.3592 Q712.4914,806.3592 711.1715,804.7074 Q709.8517,803.0555 709.8517,799.9344 Q709.8517,796.805 711.1715,795.1532 Q712.4914,793.5013 714.9982,793.5013 Q715.7038,793.5013 716.3512,793.6507 Q716.9987,793.8001 717.5631,794.099 L717.5631,796.8216 Q716.9323,796.2406 716.3388,795.9708 Q715.7453,795.701 715.1144,795.701 Q713.7697,795.701 713.0849,796.7677 Q712.4001,797.8343 712.4001,799.9344 Q712.4001,802.0262 713.0849,803.0929 Q713.7697,804.1595 715.1144,804.1595 Q715.7453,804.1595 716.3388,803.8897 Q716.9323,803.62 717.5631,803.0389 Z " fill="#000000"/><text fill="#000000" font-family="'Casual'" font-size="13" lengthAdjust="spacing" textLength="101.504" x="729.09" y="803.395">TimestampedValue</text><line style="stroke:#004203;stroke-width:0.5;" x1="701.09" x2="832.594" y1="815.6185" y2="815.6185"/><line style="stroke:#004203;stroke-width:0.5;" x1="701.09" x2="832.594" y1="823.6185" y2="823.6185"/></g><!--class CamelCase--><g class="entity" data-qualified-name="P_RaiImage.CamelCase" data-source-line="74" id="ent0030"><rect fill="#E8F6EC" height="48" rx="2.5" ry="2.5" style="stroke:#004203;stroke-width:0.5;" width="89.85" x="1258.91" y="675.6185"/><ellipse cx="1273.91" cy="691.6185" fill="#ADD1B2" rx="11" ry="11" style="stroke:#181818;stroke-width:1;"/><path d="M1276.3831,697.7616 Q1275.8021,698.0604 1275.1629,698.2098 Q1274.5238,698.3592 1273.8182,698.3592 Q1271.3114,698.3592 1269.9915,696.7074 Q1268.6717,695.0555 1268.6717,691.9344 Q1268.6717,688.805 1269.9915,687.1532 Q1271.3114,685.5013 1273.8182,685.5013 Q1274.5238,685.5013 1275.1712,685.6507 Q1275.8187,685.8001 1276.3831,686.099 L1276.3831,688.8216 Q1275.7523,688.2406 1275.1588,687.9708 Q1274.5653,687.701 1273.9344,687.701 Q1272.5897,687.701 1271.9049,688.7677 Q1271.2201,689.8343 1271.2201,691.9344 Q1271.2201,694.0262 1271.9049,695.0929 Q1272.5897,696.1595 1273.9344,696.1595 Q1274.5653,696.1595 1275.1588,695.8897 Q1275.7523,695.62 1276.3831,695.0389 Z " fill="#000000"/><text fill="#000000" font-family="'Casual'" font-size="13" lengthAdjust="spacing" textLength="57.85" x="1287.91" y="695.395">CamelCase</text><line style="stroke:#004203;stroke-width:0.5;" x1="1259.91" x2="1347.76" y1="707.6185" y2="707.6185"/><line style="stroke:#004203;stroke-width:0.5;" x1="1259.91" x2="1347.76" y1="715.6185" y2="715.6185"/></g><!--class ColorInfo--><g class="entity" data-qualified-name="P_RaiImage.ColorInfo" data-source-line="75" id="ent0031"><rect fill="#E8F6EC" height="48" rx="2.5" ry="2.5" style="stroke:#004203;stroke-width:0.5;" width="84.13" x="1383.77" y="675.6185"/><ellipse cx="1398.77" cy="691.6185" fill="#ADD1B2" rx="11" ry="11" style="stroke:#181818;stroke-width:1;"/><path d="M1401.2431,697.7616 Q1400.6621,698.0604 1400.0229,698.2098 Q1399.3838,698.3592 1398.6782,698.3592 Q1396.1714,698.3592 1394.8515,696.7074 Q1393.5317,695.0555 1393.5317,691.9344 Q1393.5317,688.805 1394.8515,687.1532 Q1396.1714,685.5013 1398.6782,685.5013 Q1399.3838,685.5013 1400.0312,685.6507 Q1400.6787,685.8001 1401.2431,686.099 L1401.2431,688.8216 Q1400.6123,688.2406 1400.0188,687.9708 Q1399.4253,687.701 1398.7944,687.701 Q1397.4497,687.701 1396.7649,688.7677 Q1396.0801,689.8343 1396.0801,691.9344 Q1396.0801,694.0262 1396.7649,695.0929 Q1397.4497,696.1595 1398.7944,696.1595 Q1399.4253,696.1595 1400.0188,695.8897 Q1400.6123,695.62 1401.2431,695.0389 Z " fill="#000000"/><text fill="#000000" font-family="'Casual'" font-size="13" lengthAdjust="spacing" textLength="52.13" x="1412.77" y="695.395">ColorInfo</text><line style="stroke:#004203;stroke-width:0.5;" x1="1384.77" x2="1466.9" y1="707.6185" y2="707.6185"/><line style="stroke:#004203;stroke-width:0.5;" x1="1384.77" x2="1466.9" y1="715.6185" y2="715.6185"/></g><!--class Dye--><g class="entity" data-qualified-name="P_RaiImage.Dye" data-source-line="76" id="ent0032"><rect fill="#E8F6EC" height="48" rx="2.5" ry="2.5" style="stroke:#004203;stroke-width:0.5;" width="51.89" x="1502.89" y="675.6185"/><ellipse cx="1517.89" cy="691.6185" fill="#ADD1B2" rx="11" ry="11" style="stroke:#181818;stroke-width:1;"/><path d="M1520.3631,697.7616 Q1519.7821,698.0604 1519.1429,698.2098 Q1518.5038,698.3592 1517.7982,698.3592 Q1515.2914,698.3592 1513.9715,696.7074 Q1512.6517,695.0555 1512.6517,691.9344 Q1512.6517,688.805 1513.9715,687.1532 Q1515.2914,685.5013 1517.7982,685.5013 Q1518.5038,685.5013 1519.1512,685.6507 Q1519.7987,685.8001 1520.3631,686.099 L1520.3631,688.8216 Q1519.7323,688.2406 1519.1388,687.9708 Q1518.5453,687.701 1517.9144,687.701 Q1516.5697,687.701 1515.8849,688.7677 Q1515.2001,689.8343 1515.2001,691.9344 Q1515.2001,694.0262 1515.8849,695.0929 Q1516.5697,696.1595 1517.9144,696.1595 Q1518.5453,696.1595 1519.1388,695.8897 Q1519.7323,695.62 1520.3631,695.0389 Z " fill="#000000"/><text fill="#000000" font-family="'Casual'" font-size="13" lengthAdjust="spacing" textLength="19.89" x="1531.89" y="695.395">Dye</text><line style="stroke:#004203;stroke-width:0.5;" x1="1503.89" x2="1553.78" y1="707.6185" y2="707.6185"/><line style="stroke:#004203;stroke-width:0.5;" x1="1503.89" x2="1553.78" y1="715.6185" y2="715.6185"/></g><!--class ImageFile--><g class="entity" data-qualified-name="P_RaiImage.ImageFile" data-source-line="77" id="ent0033"><rect fill="#E8F6EC" height="48" rx="2.5" ry="2.5" style="stroke:#004203;stroke-width:0.5;" width="86.197" x="1589.74" y="675.6185"/><ellipse cx="1604.74" cy="691.6185" fill="#ADD1B2" rx="11" ry="11" style="stroke:#181818;stroke-width:1;"/><path d="M1607.2131,697.7616 Q1606.6321,698.0604 1605.9929,698.2098 Q1605.3538,698.3592 1604.6482,698.3592 Q1602.1414,698.3592 1600.8215,696.7074 Q1599.5017,695.0555 1599.5017,691.9344 Q1599.5017,688.805 1600.8215,687.1532 Q1602.1414,685.5013 1604.6482,685.5013 Q1605.3538,685.5013 1606.0012,685.6507 Q1606.6487,685.8001 1607.2131,686.099 L1607.2131,688.8216 Q1606.5823,688.2406 1605.9888,687.9708 Q1605.3953,687.701 1604.7644,687.701 Q1603.4197,687.701 1602.7349,688.7677 Q1602.0501,689.8343 1602.0501,691.9344 Q1602.0501,694.0262 1602.7349,695.0929 Q1603.4197,696.1595 1604.7644,696.1595 Q1605.3953,696.1595 1605.9888,695.8897 Q1606.5823,695.62 1607.2131,695.0389 Z " fill="#000000"/><text fill="#000000" font-family="'Casual'" font-size="13" lengthAdjust="spacing" textLength="54.197" x="1618.74" y="695.395">ImageFile</text><line style="stroke:#004203;stroke-width:0.5;" x1="1590.74" x2="1674.937" y1="707.6185" y2="707.6185"/><line style="stroke:#004203;stroke-width:0.5;" x1="1590.74" x2="1674.937" y1="715.6185" y2="715.6185"/></g><!--class ImageTreeFile--><g class="entity" data-qualified-name="P_RaiImage.ImageTreeFile" data-source-line="78" id="ent0034"><rect fill="#E8F6EC" height="48" rx="2.5" ry="2.5" style="stroke:#004203;stroke-width:0.5;" width="110.546" x="1253.57" y="783.6185"/><ellipse cx="1268.57" cy="799.6185" fill="#ADD1B2" rx="11" ry="11" style="stroke:#181818;stroke-width:1;"/><path d="M1271.0431,805.7616 Q1270.4621,806.0604 1269.8229,806.2098 Q1269.1838,806.3592 1268.4782,806.3592 Q1265.9714,806.3592 1264.6515,804.7074 Q1263.3317,803.0555 1263.3317,799.9344 Q1263.3317,796.805 1264.6515,795.1532 Q1265.9714,793.5013 1268.4782,793.5013 Q1269.1838,793.5013 1269.8312,793.6507 Q1270.4787,793.8001 1271.0431,794.099 L1271.0431,796.8216 Q1270.4123,796.2406 1269.8188,795.9708 Q1269.2253,795.701 1268.5944,795.701 Q1267.2497,795.701 1266.5649,796.7677 Q1265.8801,797.8343 1265.8801,799.9344 Q1265.8801,802.0262 1266.5649,803.0929 Q1267.2497,804.1595 1268.5944,804.1595 Q1269.2253,804.1595 1269.8188,803.8897 Q1270.4123,803.62 1271.0431,803.0389 Z " fill="#000000"/><text fill="#000000" font-family="'Casual'" font-size="13" lengthAdjust="spacing" textLength="78.546" x="1282.57" y="803.395">ImageTreeFile</text><line style="stroke:#004203;stroke-width:0.5;" x1="1254.57" x2="1363.116" y1="815.6185" y2="815.6185"/><line style="stroke:#004203;stroke-width:0.5;" x1="1254.57" x2="1363.116" y1="823.6185" y2="823.6185"/></g><!--class ImageMagick--><g class="entity" data-qualified-name="P_RaiImage.ImageMagick" data-source-line="79" id="ent0035"><rect fill="#E8F6EC" height="48" rx="2.5" ry="2.5" style="stroke:#004203;stroke-width:0.5;" width="105.71" x="1398.98" y="783.6185"/><ellipse cx="1413.98" cy="799.6185" fill="#ADD1B2" rx="11" ry="11" style="stroke:#181818;stroke-width:1;"/><path d="M1416.4531,805.7616 Q1415.8721,806.0604 1415.2329,806.2098 Q1414.5938,806.3592 1413.8882,806.3592 Q1411.3814,806.3592 1410.0615,804.7074 Q1408.7417,803.0555 1408.7417,799.9344 Q1408.7417,796.805 1410.0615,795.1532 Q1411.3814,793.5013 1413.8882,793.5013 Q1414.5938,793.5013 1415.2412,793.6507 Q1415.8887,793.8001 1416.4531,794.099 L1416.4531,796.8216 Q1415.8223,796.2406 1415.2288,795.9708 Q1414.6353,795.701 1414.0044,795.701 Q1412.6597,795.701 1411.9749,796.7677 Q1411.2901,797.8343 1411.2901,799.9344 Q1411.2901,802.0262 1411.9749,803.0929 Q1412.6597,804.1595 1414.0044,804.1595 Q1414.6353,804.1595 1415.2288,803.8897 Q1415.8223,803.62 1416.4531,803.0389 Z " fill="#000000"/><text fill="#000000" font-family="'Casual'" font-size="13" lengthAdjust="spacing" textLength="73.71" x="1427.98" y="803.395">ImageMagick</text><line style="stroke:#004203;stroke-width:0.5;" x1="1399.98" x2="1503.69" y1="815.6185" y2="815.6185"/><line style="stroke:#004203;stroke-width:0.5;" x1="1399.98" x2="1503.69" y1="823.6185" y2="823.6185"/></g><!--class ImageUrl--><g class="entity" data-qualified-name="P_RaiImage.ImageUrl" data-source-line="80" id="ent0036"><rect fill="#E8F6EC" height="48" rx="2.5" ry="2.5" style="stroke:#004203;stroke-width:0.5;" width="82.765" x="1539.46" y="783.6185"/><ellipse cx="1554.46" cy="799.6185" fill="#ADD1B2" rx="11" ry="11" style="stroke:#181818;stroke-width:1;"/><path d="M1556.9331,805.7616 Q1556.3521,806.0604 1555.7129,806.2098 Q1555.0738,806.3592 1554.3682,806.3592 Q1551.8614,806.3592 1550.5415,804.7074 Q1549.2217,803.0555 1549.2217,799.9344 Q1549.2217,796.805 1550.5415,795.1532 Q1551.8614,793.5013 1554.3682,793.5013 Q1555.0738,793.5013 1555.7212,793.6507 Q1556.3687,793.8001 1556.9331,794.099 L1556.9331,796.8216 Q1556.3023,796.2406 1555.7088,795.9708 Q1555.1153,795.701 1554.4844,795.701 Q1553.1397,795.701 1552.4549,796.7677 Q1551.7701,797.8343 1551.7701,799.9344 Q1551.7701,802.0262 1552.4549,803.0929 Q1553.1397,804.1595 1554.4844,804.1595 Q1555.1153,804.1595 1555.7088,803.8897 Q1556.3023,803.62 1556.9331,803.0389 Z " fill="#000000"/><text fill="#000000" font-family="'Casual'" font-size="13" lengthAdjust="spacing" textLength="50.765" x="1568.46" y="803.395">ImageUrl</text><line style="stroke:#004203;stroke-width:0.5;" x1="1540.46" x2="1621.225" y1="815.6185" y2="815.6185"/><line style="stroke:#004203;stroke-width:0.5;" x1="1540.46" x2="1621.225" y1="823.6185" y2="823.6185"/></g><!--class Src--><g class="entity" data-qualified-name="P_RaiImage.Src" data-source-line="81" id="ent0037"><rect fill="#E8F6EC" height="48" rx="2.5" ry="2.5" style="stroke:#004203;stroke-width:0.5;" width="50.499" x="1657.59" y="783.6185"/><ellipse cx="1672.59" cy="799.6185" fill="#ADD1B2" rx="11" ry="11" style="stroke:#181818;stroke-width:1;"/><path d="M1675.0631,805.7616 Q1674.4821,806.0604 1673.8429,806.2098 Q1673.2038,806.3592 1672.4982,806.3592 Q1669.9914,806.3592 1668.6715,804.7074 Q1667.3517,803.0555 1667.3517,799.9344 Q1667.3517,796.805 1668.6715,795.1532 Q1669.9914,793.5013 1672.4982,793.5013 Q1673.2038,793.5013 1673.8512,793.6507 Q1674.4987,793.8001 1675.0631,794.099 L1675.0631,796.8216 Q1674.4323,796.2406 1673.8388,795.9708 Q1673.2453,795.701 1672.6144,795.701 Q1671.2697,795.701 1670.5849,796.7677 Q1669.9001,797.8343 1669.9001,799.9344 Q1669.9001,802.0262 1670.5849,803.0929 Q1671.2697,804.1595 1672.6144,804.1595 Q1673.2453,804.1595 1673.8388,803.8897 Q1674.4323,803.62 1675.0631,803.0389 Z " fill="#000000"/><text fill="#000000" font-family="'Casual'" font-size="13" lengthAdjust="spacing" textLength="18.499" x="1686.59" y="803.395">Src</text><line style="stroke:#004203;stroke-width:0.5;" x1="1658.59" x2="1707.089" y1="815.6185" y2="815.6185"/><line style="stroke:#004203;stroke-width:0.5;" x1="1658.59" x2="1707.089" y1="823.6185" y2="823.6185"/></g><!--class Tmp--><g class="entity" data-qualified-name="P_RaiImage.Tmp" data-source-line="82" id="ent0038"><rect fill="#E8F6EC" height="48" rx="2.5" ry="2.5" style="stroke:#004203;stroke-width:0.5;" width="54.542" x="1281.57" y="891.6185"/><ellipse cx="1296.57" cy="907.6185" fill="#ADD1B2" rx="11" ry="11" style="stroke:#181818;stroke-width:1;"/><path d="M1299.0431,913.7616 Q1298.4621,914.0604 1297.8229,914.2098 Q1297.1838,914.3592 1296.4782,914.3592 Q1293.9714,914.3592 1292.6515,912.7074 Q1291.3317,911.0555 1291.3317,907.9344 Q1291.3317,904.805 1292.6515,903.1532 Q1293.9714,901.5013 1296.4782,901.5013 Q1297.1838,901.5013 1297.8312,901.6507 Q1298.4787,901.8001 1299.0431,902.099 L1299.0431,904.8216 Q1298.4123,904.2406 1297.8188,903.9708 Q1297.2253,903.701 1296.5944,903.701 Q1295.2497,903.701 1294.5649,904.7677 Q1293.8801,905.8343 1293.8801,907.9344 Q1293.8801,910.0262 1294.5649,911.0929 Q1295.2497,912.1595 1296.5944,912.1595 Q1297.2253,912.1595 1297.8188,911.8897 Q1298.4123,911.62 1299.0431,911.0389 Z " fill="#000000"/><text fill="#000000" font-family="'Casual'" font-size="13" lengthAdjust="spacing" textLength="22.542" x="1310.57" y="911.395">Tmp</text><line style="stroke:#004203;stroke-width:0.5;" x1="1282.57" x2="1335.112" y1="923.6185" y2="923.6185"/><line style="stroke:#004203;stroke-width:0.5;" x1="1282.57" x2="1335.112" y1="931.6185" y2="931.6185"/></g><!--class TwoSizes--><g class="entity" data-qualified-name="P_RaiImage.TwoSizes" data-source-line="83" id="ent0039"><rect fill="#E8F6EC" height="48" rx="2.5" ry="2.5" style="stroke:#004203;stroke-width:0.5;" width="82.557" x="1371.56" y="891.6185"/><ellipse cx="1386.56" cy="907.6185" fill="#ADD1B2" rx="11" ry="11" style="stroke:#181818;stroke-width:1;"/><path d="M1389.0331,913.7616 Q1388.4521,914.0604 1387.8129,914.2098 Q1387.1738,914.3592 1386.4682,914.3592 Q1383.9614,914.3592 1382.6415,912.7074 Q1381.3217,911.0555 1381.3217,907.9344 Q1381.3217,904.805 1382.6415,903.1532 Q1383.9614,901.5013 1386.4682,901.5013 Q1387.1738,901.5013 1387.8212,901.6507 Q1388.4687,901.8001 1389.0331,902.099 L1389.0331,904.8216 Q1388.4023,904.2406 1387.8088,903.9708 Q1387.2153,903.701 1386.5844,903.701 Q1385.2397,903.701 1384.5549,904.7677 Q1383.8701,905.8343 1383.8701,907.9344 Q1383.8701,910.0262 1384.5549,911.0929 Q1385.2397,912.1595 1386.5844,912.1595 Q1387.2153,912.1595 1387.8088,911.8897 Q1388.4023,911.62 1389.0331,911.0389 Z " fill="#000000"/><text fill="#000000" font-family="'Casual'" font-size="13" lengthAdjust="spacing" textLength="50.557" x="1400.56" y="911.395">TwoSizes</text><line style="stroke:#004203;stroke-width:0.5;" x1="1372.56" x2="1453.117" y1="923.6185" y2="923.6185"/><line style="stroke:#004203;stroke-width:0.5;" x1="1372.56" x2="1453.117" y1="931.6185" y2="931.6185"/></g><g class="entity" data-qualified-name="GMN47" data-source-line="97" id="ent0048"><path d="M6,158.5585 L6,197.0905 L299.678,197.0905 L299.678,168.5585 L289.678,158.5585 L6,158.5585" fill="#FFF7D6" filter="url(#f11ufvvo27k45s)" style="stroke:#D4B106;stroke-width:0.5;"/><path d="M289.678,158.5585 L289.678,168.5585 L299.678,168.5585 L289.678,158.5585" fill="#FFF7D6" style="stroke:#D4B106;stroke-width:1;"/><text fill="#000000" font-family="'Casual'" font-size="14" lengthAdjust="spacing" textLength="211.862" x="12" y="174.7585">Foundation library for OS, paths,</text><text fill="#000000" font-family="'Casual'" font-size="14" lengthAdjust="spacing" textLength="272.678" x="12" y="189.0245">files, temp files, and cloud-root discovery.</text></g><g class="entity" data-qualified-name="GMN50" data-source-line="102" id="ent0051"><path d="M1395.43,384.8185 L1395.43,437.6165 L1650.244,437.6165 L1650.244,394.8185 L1640.244,384.8185 L1395.43,384.8185" fill="#FFF7D6" filter="url(#f11ufvvo27k45s)" style="stroke:#D4B106;stroke-width:0.5;"/><path d="M1640.244,384.8185 L1640.244,394.8185 L1650.244,394.8185 L1640.244,384.8185" fill="#FFF7D6" style="stroke:#D4B106;stroke-width:1;"/><text fill="#000000" font-family="'Casual'" font-size="14" lengthAdjust="spacing" textLength="233.814" x="1401.43" y="401.0185">Utility library with JSON conversion,</text><text fill="#000000" font-family="'Casual'" font-size="14" lengthAdjust="spacing" textLength="207.536" x="1401.43" y="415.2845">randomization, parameter, email,</text><text fill="#000000" font-family="'Casual'" font-size="14" lengthAdjust="spacing" textLength="124.628" x="1401.43" y="429.5505">and search helpers.</text></g><g class="entity" data-qualified-name="GMN53" data-source-line="108" id="ent0054"><path d="M890.29,680.3485 L890.29,718.8805 L1205.388,718.8805 L1205.388,690.3485 L1195.388,680.3485 L890.29,680.3485" fill="#FFF7D6" filter="url(#f11ufvvo27k45s)" style="stroke:#D4B106;stroke-width:0.5;"/><path d="M1195.388,680.3485 L1195.388,690.3485 L1205.388,690.3485 L1195.388,680.3485" fill="#FFF7D6" style="stroke:#D4B106;stroke-width:1;"/><text fill="#000000" font-family="'Casual'" font-size="14" lengthAdjust="spacing" textLength="294.098" x="896.29" y="696.5485">JsonPit depends directly on OsLib and RaiUtils</text><text fill="#000000" font-family="'Casual'" font-size="14" lengthAdjust="spacing" textLength="291.564" x="896.29" y="710.8145">for file/cloud conventions and utility helpers.</text></g><g class="entity" data-qualified-name="GMN56" data-source-line="113" id="ent0057"><path d="M1568.96,547.8185 L1568.96,600.6165 L1894.712,600.6165 L1894.712,557.8185 L1884.712,547.8185 L1568.96,547.8185" fill="#FFF7D6" filter="url(#f11ufvvo27k45s)" style="stroke:#D4B106;stroke-width:0.5;"/><path d="M1884.712,547.8185 L1884.712,557.8185 L1894.712,557.8185 L1884.712,547.8185" fill="#FFF7D6" style="stroke:#D4B106;stroke-width:1;"/><text fill="#000000" font-family="'Casual'" font-size="14" lengthAdjust="spacing" textLength="286.594" x="1574.96" y="564.0185">RaiImage references OsLib and RaiUtils when</text><text fill="#000000" font-family="'Casual'" font-size="14" lengthAdjust="spacing" textLength="304.752" x="1574.96" y="578.2845">local projects are available, and can fall back</text><text fill="#000000" font-family="'Casual'" font-size="14" lengthAdjust="spacing" textLength="252.504" x="1574.96" y="592.5505">to NuGet package references otherwise.</text></g><!--link P_OsLib to P_RaiUtils--><!--link P_RaiUtils to P_JsonPit--><!--link P_JsonPit to P_RaiUtils--><g class="link" data-entity-1="ent0019" data-entity-2="ent0013" data-link-type="dependency" data-source-line="91" id="lnk44"><path codeLine="91" d="M866.0053,561.6185 C866.2843,561.6185 866.5701,561.6185 866.8626,561.6185 C868.0326,561.6185 869.3096,561.6185 870.6898,561.6185 C873.4501,561.6185 876.6229,561.6185 880.1764,561.6185 C894.3905,561.6185 914.6964,561.6185 939.0634,561.6185 C987.7975,561.6185 1052.7763,561.6185 1117.755,561.6185 C1247.7125,561.6185 1377.67,561.6185 1377.67,561.6185 C1377.67,561.6185 1377.67,300.6185 1377.67,300.6185 C1377.67,300.6185 1375.0225,300.6185 1372.0438,300.6185 C1371.9972,300.6185 1377.9506,300.6185 1377.9039,300.6185" fill="none" id="P_JsonPit-to-P_RaiUtils" style="stroke:#9B2C2C;stroke-width:1;stroke-dasharray:7,7;"/><polygon fill="#9B2C2C" points="1371.9039,300.6185,1380.9039,304.6185,1376.9039,300.6185,1380.9039,296.6185,1371.9039,300.6185" style="stroke:#9B2C2C;stroke-width:1;"/><text fill="#727375" font-family="'Casual'" font-size="16" lengthAdjust="spacing" textLength="117.888" x="1130.98" y="557.4185">ProjectReference</text></g><!--link P_JsonPit to P_RaiImage--><!--link P_JsonPit to P_OsLib--><g class="link" data-entity-1="ent0019" data-entity-2="ent0002" data-link-type="dependency" data-source-line="90" id="lnk43"><path codeLine="90" d="M802.84,528.0673 C802.84,525.5744 802.84,488.8768 802.84,486.3091 C802.84,481.1737 802.84,475.8943 802.84,470.4934 C802.84,467.793 802.84,465.0622 802.84,462.3039 C802.84,461.6143 802.84,460.923 802.84,460.23 C802.84,460.0567 802.84,459.8834 802.84,459.7099 C802.84,459.6232 802.84,459.5365 802.84,459.4497 C802.84,459.4063 802.84,465.3629 802.84,465.3195" fill="none" id="P_JsonPit-to-P_OsLib" style="stroke:#9B2C2C;stroke-width:1;stroke-dasharray:7,7;"/><polygon fill="#9B2C2C" points="802.84,459.3195,798.84,468.3195,802.84,464.3195,806.84,468.3195,802.84,459.3195" style="stroke:#9B2C2C;stroke-width:1;"/><text fill="#727375" font-family="'Casual'" font-size="16" lengthAdjust="spacing" textLength="117.888" x="684.84" y="399.5285">ProjectReference</text></g><!--link P_RaiImage to P_OsLib--><g class="link" data-entity-1="ent0029" data-entity-2="ent0002" data-link-type="dependency" data-source-line="93" id="lnk45"><path codeLine="93" d="M1740.1133,699.6185 C1741.3349,699.6185 1742.6775,699.6185 1744.1313,699.6185 C1749.9465,699.6185 1757.5408,699.6185 1766.2872,699.6185 C1783.78,699.6185 1805.8813,699.6185 1827.575,699.6185 C1870.9625,699.6185 1912.72,699.6185 1912.72,699.6185 C1912.72,699.6185 1912.72,492.6185 1912.72,492.6185 C1912.72,492.6185 789.85,492.6185 789.85,492.6185 C789.85,492.6185 789.85,487.6966 789.85,479.0833 C789.85,474.7767 789.85,469.5472 789.85,463.5487 C789.85,462.7989 789.85,462.037 789.85,461.2635 C789.85,460.8767 789.85,466.487 789.85,466.0944" fill="none" id="P_RaiImage-to-P_OsLib" style="stroke:#9B2C2C;stroke-width:1;stroke-dasharray:7,7;"/><polygon fill="#9B2C2C" points="789.85,460.0944,785.85,469.0944,789.85,465.0944,793.85,469.0944,789.85,460.0944" style="stroke:#9B2C2C;stroke-width:1;"/><text fill="#727375" font-family="'Casual'" font-size="16" lengthAdjust="spacing" textLength="117.888" x="1263.11" y="488.4185">ProjectReference</text></g><!--link P_RaiImage to P_RaiUtils--><g class="link" data-entity-1="ent0029" data-entity-2="ent0013" data-link-type="dependency" data-source-line="94" id="lnk46"><path codeLine="94" d="M1363.48,653.3344 C1363.48,627.1097 1363.48,568.5838 1363.48,540.3523 C1363.48,526.2365 1363.48,512.0803 1363.48,498.0941 C1363.48,491.1011 1363.48,484.1505 1363.48,477.2688 C1363.48,473.8279 1363.48,470.4042 1363.48,467.001 C1363.48,465.2995 1363.48,463.603 1363.48,461.9121 C1363.48,461.0666 1363.48,466.2225 1363.48,465.3799" fill="none" id="P_RaiImage-to-P_RaiUtils" style="stroke:#9B2C2C;stroke-width:1;stroke-dasharray:7,7;"/><polygon fill="#9B2C2C" points="1363.48,459.3799,1359.48,468.3799,1363.48,464.3799,1367.48,468.3799,1363.48,459.3799" style="stroke:#9B2C2C;stroke-width:1;"/><text fill="#727375" font-family="'Casual'" font-size="16" lengthAdjust="spacing" textLength="117.888" x="1245.48" y="744.2185">ProjectReference</text></g><!--link GMN47 to P_OsLib--><g class="link" data-entity-1="ent0048" data-entity-2="ent0002" data-link-type="association" data-source-line="97" id="lnk49"><path d="M152.84,158.1985 C152.84,147.1785 152.84,135.6185 152.84,135.6185 C152.84,135.6185 193.465,135.6185 254.4025,135.6185 C269.6369,135.6185 286.1408,135.6185 303.5968,135.6185 C307.9608,135.6185 312.3844,135.6185 316.8624,135.6185 C319.1015,135.6185 321.3542,135.6185 323.6198,135.6185" fill="none" id="GMN47-P_OsLib" style="stroke:#9B2C2C;stroke-width:1;stroke-dasharray:7,7;"/></g><!--link P_RaiUtils to GMN50--><g class="link" data-entity-1="ent0013" data-entity-2="ent0051" data-link-type="association" data-source-line="102" id="lnk52"><path d="M1371.8898,411.6185 C1371.9294,411.6185 1371.969,411.6185 1372.0089,411.6185 C1372.3274,411.6185 1372.6549,411.6185 1372.9913,411.6185 C1378.3725,411.6185 1386.005,411.6185 1395.01,411.6185" fill="none" id="P_RaiUtils-GMN50" style="stroke:#9B2C2C;stroke-width:1;stroke-dasharray:7,7;"/></g><!--link P_JsonPit to GMN53--><g class="link" data-entity-1="ent0019" data-entity-2="ent0054" data-link-type="association" data-source-line="108" id="lnk55"><path d="M865.9226,699.6185 C866.2519,699.6185 866.5907,699.6185 866.9387,699.6185 C872.5075,699.6185 880.445,699.6185 889.92,699.6185" fill="none" id="P_JsonPit-GMN53" style="stroke:#9B2C2C;stroke-width:1;stroke-dasharray:7,7;"/></g><!--link GMN56 to P_RaiImage--><g class="link" data-entity-1="ent0057" data-entity-2="ent0029" data-link-type="association" data-source-line="113" id="lnk58"><path d="M1731.84,600.8085 C1731.84,605.1223 1731.84,609.7819 1731.84,614.6472 C1731.84,617.0799 1731.84,619.5639 1731.84,622.0818 C1731.84,622.7113 1731.84,623.3429 1731.84,623.9763 C1731.84,624.1347 1731.84,654.7492 1731.84,654.9078" fill="none" id="GMN56-P_RaiImage" style="stroke:#9B2C2C;stroke-width:1;stroke-dasharray:7,7;"/></g><g class="legend" data-source-line="118"><rect fill="#F5CFEA" fill-opacity="0.58039" height="67.064" rx="7.5" ry="7.5" style="stroke:#000000;stroke-width:1;" width="382.764" x="1510.956" y="981.6185"/><text fill="#000000" font-family="'Casual'" font-size="14" lengthAdjust="spacing" textLength="331.0301" x="1515.956" y="997.8185">Solid package contents show representative classes.</text><text fill="#000000" font-family="'Casual'" font-size="14" lengthAdjust="spacing" textLength="305.368" x="1515.956" y="1012.0845">Dashed arrows show project-level dependencies.</text><text fill="#000000" font-family="'Casual'" font-size="14" lengthAdjust="spacing" textLength="290.724" x="1515.956" y="1026.3505">Hidden down-links enforce the vertical stack.</text><text fill="#000000" font-family="'Casual'" font-size="14" lengthAdjust="spacing" textLength="372.764" x="1515.956" y="1040.6165">This view omits test projects for a cleaner package map.</text></g><?plantuml-src ZLRTS-8s47_6VuM6UqrIFaFIXvj98UbnSvSmWUlBpKr7s6ki8aiUIK2uJl_thcJPA1XedonvVzBk_lP3QvZXG5uVfck0WdnXIqNLdaoW0960Y1deA3Ao84QIfJH6vYHX2cB3f8WYlMQYe8hcP66lUPB2pDbF88ExKwAnv5AH3wFUg3yQdW8yqnn8UqQBlTheTe3u13G1LL_Vlmra4qPN-As5lK4WND9ulL9o8v9I-IvZ1WAvpcWYTqoiI4gv3YKpF4bNC3TxfASeDu6OCm5cNm2HocGo43me9NVUqy5oEBpjDo_zJIfqnuEwQU--Fsg20iOwlMuwX9YU1ZMz3eGbfMEgDvItJrXonC-7PPhSfPrH6BzfB8M7Un3SqRkq6q36d6hzpgjEPz3hz1kGOtNfVKhJPG1xbgPfL9gce-Js61MgImRBRkSOCQ-3QzG6ZeINoAdaZjdku3-zWBlq5k9Zs2KDDQ1KqJzEe4jdQq1vzlQKw5ofES02tim3PokHWp14iLLcpYJm_R8NzqB7li0A-q8pGCCu1Ne_Q20l-N50L3n7liv8-qLZ9seJgidiJxScVqUjs996NdIrUgNiYN48jZDgic0xtsi3UVN3kXtYnteRRXTvyKvAXHGiflpapr2HNO-bs2APs1GNs1IYVm9Nq8vlXd7jlQcs1uSUSyfujVcifN2NAOsNFRuP47QX3ygGEZ2W9iprO6pM1uT58lFcaJbG5MUFRuK2RGNlhBFwPinuu_pkODiquC-kCVSrXBOYElo5ss0PdlRRsggl56EZdZXTXGJFb8pHokFV2vQ3DZGl8Fc3yas3u6cEgmF1RdjmOeoCyN5WfSlQgKXbzMEohsNkRAZR_LWeQFxyIbSiNh_xzKtLaPohE4YjUhcJDjkrzQ1AxUll6KlmiVs1tKfSVmoI90hofOdo_4U7k9syoHaM1QYRc-z2AYhMFpxMvVMhfVulVDTV8GM53p-SFL1RTE9C5F3_lzMSEN5HZy0MJJYaXiYqkZrgFTcUH6rTu0DTJZ8fzgUN-HK-uIRJLr4hnIZgAuAfM12_nheXCPURv5f9QN2-qR740jpVHDYVYDNazVa1o6ciGzIo7sRsjSOTCndvF7zv9d5ToAXOkV9aFvrvrXvVo5S4R0D0XBL3ks8b6V02Jrwqe0f_gmfJueOsxGSqlYT8GqcxlVbWiAN4klwBSxgqqlKkxO0Rxyyv6-mqM55GvbQhZg2g8gHFQCRf2qJKuX8RA2dAaA9A1OHkaG6wvE23GOMTnxWRtw8MZfxFcz_1L6DOg4MQ3DIEQGZDvEvbyIzRQouvI-gpw2qsIDIhCxd3csnNn3r6POj2MwE0BhScL6UGe77u67gij_YQmnQu9xkSa17_oTKTSNM7i-5Q4y3-ecAaAmE2MM3iiq6mYSLhX2yoficMmOvWIg0n1jlRWH8R88h601MWQijpMZWdI--YVm40?></g></svg>