<?plantuml 1.2026.2?><svg xmlns="http://www.w3.org/2000/svg" xmlns:xlink="http://www.w3.org/1999/xlink" contentStyleType="text/css" data-diagram-type="CLASS" height="1396px" preserveAspectRatio="none" style="width:2657px;height:1396px;background:#FFFFFF;" version="1.1" viewBox="0 0 2657 1396" width="2657px" zoomAndPan="magnify"><title>RAIkeep Package Dependencies</title><defs/><g><g class="title" data-source-line="1"><text fill="#000000" font-family="sans-serif" font-size="14" font-weight="bold" lengthAdjust="spacing" textLength="227.9512" x="1207.67" y="23.5352">RAIkeep Package Dependencies</text></g><!--cluster P_OsLib--><g class="cluster" data-qualified-name="P_OsLib" data-source-line="17" id="ent0002"><rect fill="none" height="348.97" rx="2.5" ry="2.5" style="stroke:#1F2937;stroke-width:1.5;" width="535" x="319.85" y="44.4883"/><text fill="#111827" font-family="sans-serif" font-size="14" font-weight="bold" lengthAdjust="spacing" textLength="41.4121" x="566.6439" y="60.0234">OsLib</text></g><!--cluster P_RaiUtils--><g class="cluster" data-qualified-name="P_RaiUtils" data-source-line="30" id="ent0013"><rect fill="none" height="230" rx="2.5" ry="2.5" style="stroke:#1F2937;stroke-width:1.5;" width="585" x="894.85" y="163.4583"/><text fill="#111827" font-family="sans-serif" font-size="14" font-weight="bold" lengthAdjust="spacing" textLength="55.4463" x="1159.6269" y="178.9934">RaiUtils</text></g><!--cluster P_JsonPit--><g class="cluster" data-qualified-name="P_JsonPit" data-source-line="38" id="ent0019"><rect fill="none" height="401" rx="2.5" ry="2.5" style="stroke:#1F2937;stroke-width:1.5;" width="552" x="1759.85" y="278.4583"/><text fill="#111827" font-family="sans-serif" font-size="14" font-weight="bold" lengthAdjust="spacing" textLength="50.7227" x="2010.4887" y="293.9934">JsonPit</text></g><!--cluster P_RaiImage--><g class="cluster" data-qualified-name="P_RaiImage" data-source-line="50" id="ent0029"><rect fill="none" height="417" rx="2.5" ry="2.5" style="stroke:#1F2937;stroke-width:1.5;" width="554" x="248.85" y="433.4583"/><text fill="#111827" font-family="sans-serif" font-size="14" font-weight="bold" lengthAdjust="spacing" textLength="66.3291" x="492.6854" y="448.9934">RaiImage</text></g><!--cluster T_OsLib--><g class="cluster" data-qualified-name="T_OsLib" data-source-line="63" id="ent0040"><rect fill="none" height="302" rx="2.5" ry="2.5" style="stroke:#1F2937;stroke-width:1;" width="561" x="842.85" y="548.4583"/><text fill="#000000" font-family="sans-serif" font-size="14" font-style="italic" lengthAdjust="spacing" textLength="47.2158" x="1099.7421" y="563.9934">&#171;tests&#187;</text><text fill="#000000" font-family="sans-serif" font-size="14" font-weight="bold" lengthAdjust="spacing" textLength="84.2393" x="1081.2304" y="580.4817">OsLib.Tests</text></g><!--cluster T_RaiUtils--><g class="cluster" data-qualified-name="T_RaiUtils" data-source-line="70" id="ent0045"><rect fill="none" height="302" rx="2.5" ry="2.5" style="stroke:#1F2937;stroke-width:1;" width="688" x="1443.85" y="719.4583"/><text fill="#000000" font-family="sans-serif" font-size="14" font-style="italic" lengthAdjust="spacing" textLength="47.2158" x="1764.2421" y="734.9934">&#171;tests&#187;</text><text fill="#000000" font-family="sans-serif" font-size="14" font-weight="bold" lengthAdjust="spacing" textLength="98.2734" x="1738.7133" y="751.4817">RaiUtils.Tests</text></g><!--cluster T_JsonPit--><g class="cluster" data-qualified-name="T_JsonPit" data-source-line="78" id="ent0051"><rect fill="none" height="302" rx="2.5" ry="2.5" style="stroke:#1F2937;stroke-width:1;" width="396" x="772.85" y="890.4583"/><text fill="#000000" font-family="sans-serif" font-size="14" font-style="italic" lengthAdjust="spacing" textLength="47.2158" x="947.2421" y="905.9934">&#171;tests&#187;</text><text fill="#000000" font-family="sans-serif" font-size="14" font-weight="bold" lengthAdjust="spacing" textLength="93.5498" x="924.0751" y="922.4817">JsonPit.Tests</text></g><!--cluster T_RaiImage--><g class="cluster" data-qualified-name="T_RaiImage" data-source-line="84" id="ent0055"><rect fill="none" height="239" rx="2.5" ry="2.5" style="stroke:#1F2937;stroke-width:1;" width="398" x="1208.85" y="1061.4583"/><text fill="#000000" font-family="sans-serif" font-size="14" font-style="italic" lengthAdjust="spacing" textLength="47.2158" x="1384.2421" y="1076.9934">&#171;tests&#187;</text><text fill="#000000" font-family="sans-serif" font-size="14" font-weight="bold" lengthAdjust="spacing" textLength="109.1563" x="1353.2719" y="1093.4817">RaiImage.Tests</text></g><!--class Os--><g class="entity" data-qualified-name="P_OsLib.Os" data-source-line="18" id="ent0003"><rect fill="#F9FAFB" height="48" rx="2.5" ry="2.5" style="stroke:#6B7280;stroke-width:0.5;" width="50.0127" x="363.85" y="87.4883"/><ellipse cx="378.85" cy="103.4883" fill="#ADD1B2" rx="11" ry="11" style="stroke:#181818;stroke-width:1;"/><path d="M381.3231,109.6313 Q380.7421,109.9302 380.1029,110.0796 Q379.4638,110.229 378.7582,110.229 Q376.2514,110.229 374.9315,108.5771 Q373.6117,106.9253 373.6117,103.8042 Q373.6117,100.6748 374.9315,99.0229 Q376.2514,97.3711 378.7582,97.3711 Q379.4638,97.3711 380.1112,97.5205 Q380.7587,97.6699 381.3231,97.9688 L381.3231,100.6914 Q380.6923,100.1104 380.0988,99.8406 Q379.5053,99.5708 378.8744,99.5708 Q377.5297,99.5708 376.8449,100.6375 Q376.1601,101.7041 376.1601,103.8042 Q376.1601,105.896 376.8449,106.9626 Q377.5297,108.0293 378.8744,108.0293 Q379.5053,108.0293 380.0988,107.7595 Q380.6923,107.4897 381.3231,106.9087 Z " fill="#000000"/><text fill="#000000" font-family="sans-serif" font-size="14" lengthAdjust="spacing" textLength="18.0127" x="392.85" y="108.7793">Os</text><line style="stroke:#6B7280;stroke-width:0.5;" x1="364.85" x2="412.8627" y1="119.4883" y2="119.4883"/><line style="stroke:#6B7280;stroke-width:0.5;" x1="364.85" x2="412.8627" y1="127.4883" y2="127.4883"/></g><!--class RaiFile--><g class="entity" data-qualified-name="P_OsLib.RaiFile" data-source-line="19" id="ent0004"><rect fill="#F9FAFB" height="48" rx="2.5" ry="2.5" style="stroke:#6B7280;stroke-width:0.5;" width="76.0303" x="466.84" y="87.4883"/><ellipse cx="481.84" cy="103.4883" fill="#ADD1B2" rx="11" ry="11" style="stroke:#181818;stroke-width:1;"/><path d="M484.3131,109.6313 Q483.7321,109.9302 483.0929,110.0796 Q482.4538,110.229 481.7482,110.229 Q479.2414,110.229 477.9215,108.5771 Q476.6017,106.9253 476.6017,103.8042 Q476.6017,100.6748 477.9215,99.0229 Q479.2414,97.3711 481.7482,97.3711 Q482.4538,97.3711 483.1012,97.5205 Q483.7487,97.6699 484.3131,97.9688 L484.3131,100.6914 Q483.6823,100.1104 483.0888,99.8406 Q482.4953,99.5708 481.8644,99.5708 Q480.5197,99.5708 479.8349,100.6375 Q479.1501,101.7041 479.1501,103.8042 Q479.1501,105.896 479.8349,106.9626 Q480.5197,108.0293 481.8644,108.0293 Q482.4953,108.0293 483.0888,107.7595 Q483.6823,107.4897 484.3131,106.9087 Z " fill="#000000"/><text fill="#000000" font-family="sans-serif" font-size="14" lengthAdjust="spacing" textLength="44.0303" x="495.84" y="108.7793">RaiFile</text><line style="stroke:#6B7280;stroke-width:0.5;" x1="467.84" x2="541.8703" y1="119.4883" y2="119.4883"/><line style="stroke:#6B7280;stroke-width:0.5;" x1="467.84" x2="541.8703" y1="127.4883" y2="127.4883"/></g><!--class RaiPath--><g class="entity" data-qualified-name="P_OsLib.RaiPath" data-source-line="20" id="ent0005"><rect fill="#F9FAFB" height="48" rx="2.5" ry="2.5" style="stroke:#6B7280;stroke-width:0.5;" width="82.0254" x="586.84" y="87.4883"/><ellipse cx="601.84" cy="103.4883" fill="#ADD1B2" rx="11" ry="11" style="stroke:#181818;stroke-width:1;"/><path d="M604.3131,109.6313 Q603.7321,109.9302 603.0929,110.0796 Q602.4538,110.229 601.7482,110.229 Q599.2414,110.229 597.9215,108.5771 Q596.6017,106.9253 596.6017,103.8042 Q596.6017,100.6748 597.9215,99.0229 Q599.2414,97.3711 601.7482,97.3711 Q602.4538,97.3711 603.1012,97.5205 Q603.7487,97.6699 604.3131,97.9688 L604.3131,100.6914 Q603.6823,100.1104 603.0888,99.8406 Q602.4953,99.5708 601.8644,99.5708 Q600.5197,99.5708 599.8349,100.6375 Q599.1501,101.7041 599.1501,103.8042 Q599.1501,105.896 599.8349,106.9626 Q600.5197,108.0293 601.8644,108.0293 Q602.4953,108.0293 603.0888,107.7595 Q603.6823,107.4897 604.3131,106.9087 Z " fill="#000000"/><text fill="#000000" font-family="sans-serif" font-size="14" lengthAdjust="spacing" textLength="50.0254" x="615.84" y="108.7793">RaiPath</text><line style="stroke:#6B7280;stroke-width:0.5;" x1="587.84" x2="667.8654" y1="119.4883" y2="119.4883"/><line style="stroke:#6B7280;stroke-width:0.5;" x1="587.84" x2="667.8654" y1="127.4883" y2="127.4883"/></g><!--class RaiSystem--><g class="entity" data-qualified-name="P_OsLib.RaiSystem" data-source-line="21" id="ent0006"><rect fill="#F9FAFB" height="48" rx="2.5" ry="2.5" style="stroke:#6B7280;stroke-width:0.5;" width="100.7285" x="707.49" y="87.4883"/><ellipse cx="722.49" cy="103.4883" fill="#ADD1B2" rx="11" ry="11" style="stroke:#181818;stroke-width:1;"/><path d="M724.9631,109.6313 Q724.3821,109.9302 723.7429,110.0796 Q723.1038,110.229 722.3982,110.229 Q719.8914,110.229 718.5715,108.5771 Q717.2517,106.9253 717.2517,103.8042 Q717.2517,100.6748 718.5715,99.0229 Q719.8914,97.3711 722.3982,97.3711 Q723.1038,97.3711 723.7512,97.5205 Q724.3987,97.6699 724.9631,97.9688 L724.9631,100.6914 Q724.3323,100.1104 723.7388,99.8406 Q723.1453,99.5708 722.5144,99.5708 Q721.1697,99.5708 720.4849,100.6375 Q719.8001,101.7041 719.8001,103.8042 Q719.8001,105.896 720.4849,106.9626 Q721.1697,108.0293 722.5144,108.0293 Q723.1453,108.0293 723.7388,107.7595 Q724.3323,107.4897 724.9631,106.9087 Z " fill="#000000"/><text fill="#000000" font-family="sans-serif" font-size="14" lengthAdjust="spacing" textLength="68.7285" x="736.49" y="108.7793">RaiSystem</text><line style="stroke:#6B7280;stroke-width:0.5;" x1="708.49" x2="807.2185" y1="119.4883" y2="119.4883"/><line style="stroke:#6B7280;stroke-width:0.5;" x1="708.49" x2="807.2185" y1="127.4883" y2="127.4883"/></g><!--class TextFile--><g class="entity" data-qualified-name="P_OsLib.TextFile" data-source-line="22" id="ent0007"><rect fill="#F9FAFB" height="48" rx="2.5" ry="2.5" style="stroke:#6B7280;stroke-width:0.5;" width="85.874" x="343.92" y="206.4583"/><ellipse cx="358.92" cy="222.4583" fill="#ADD1B2" rx="11" ry="11" style="stroke:#181818;stroke-width:1;"/><path d="M361.3931,228.6013 Q360.8121,228.9002 360.1729,229.0496 Q359.5338,229.199 358.8282,229.199 Q356.3214,229.199 355.0015,227.5471 Q353.6817,225.8953 353.6817,222.7742 Q353.6817,219.6448 355.0015,217.9929 Q356.3214,216.3411 358.8282,216.3411 Q359.5338,216.3411 360.1812,216.4905 Q360.8287,216.6399 361.3931,216.9388 L361.3931,219.6614 Q360.7623,219.0804 360.1688,218.8106 Q359.5753,218.5408 358.9444,218.5408 Q357.5997,218.5408 356.9149,219.6075 Q356.2301,220.6741 356.2301,222.7742 Q356.2301,224.866 356.9149,225.9326 Q357.5997,226.9993 358.9444,226.9993 Q359.5753,226.9993 360.1688,226.7295 Q360.7623,226.4597 361.3931,225.8787 Z " fill="#000000"/><text fill="#000000" font-family="sans-serif" font-size="14" lengthAdjust="spacing" textLength="53.874" x="372.92" y="227.7493">TextFile</text><line style="stroke:#6B7280;stroke-width:0.5;" x1="344.92" x2="428.794" y1="238.4583" y2="238.4583"/><line style="stroke:#6B7280;stroke-width:0.5;" x1="344.92" x2="428.794" y1="246.4583" y2="246.4583"/></g><!--class CsvFile--><g class="entity" data-qualified-name="P_OsLib.CsvFile" data-source-line="23" id="ent0008"><rect fill="#F9FAFB" height="48" rx="2.5" ry="2.5" style="stroke:#6B7280;stroke-width:0.5;" width="79.4688" x="465.12" y="206.4583"/><ellipse cx="480.12" cy="222.4583" fill="#ADD1B2" rx="11" ry="11" style="stroke:#181818;stroke-width:1;"/><path d="M482.5931,228.6013 Q482.0121,228.9002 481.3729,229.0496 Q480.7338,229.199 480.0282,229.199 Q477.5214,229.199 476.2015,227.5471 Q474.8817,225.8953 474.8817,222.7742 Q474.8817,219.6448 476.2015,217.9929 Q477.5214,216.3411 480.0282,216.3411 Q480.7338,216.3411 481.3812,216.4905 Q482.0287,216.6399 482.5931,216.9388 L482.5931,219.6614 Q481.9623,219.0804 481.3688,218.8106 Q480.7753,218.5408 480.1444,218.5408 Q478.7997,218.5408 478.1149,219.6075 Q477.4301,220.6741 477.4301,222.7742 Q477.4301,224.866 478.1149,225.9326 Q478.7997,226.9993 480.1444,226.9993 Q480.7753,226.9993 481.3688,226.7295 Q481.9623,226.4597 482.5931,225.8787 Z " fill="#000000"/><text fill="#000000" font-family="sans-serif" font-size="14" lengthAdjust="spacing" textLength="47.4688" x="494.12" y="227.7493">CsvFile</text><line style="stroke:#6B7280;stroke-width:0.5;" x1="466.12" x2="543.5888" y1="238.4583" y2="238.4583"/><line style="stroke:#6B7280;stroke-width:0.5;" x1="466.12" x2="543.5888" y1="246.4583" y2="246.4583"/></g><!--class TmpFile--><g class="entity" data-qualified-name="P_OsLib.TmpFile" data-source-line="24" id="ent0009"><rect fill="#F9FAFB" height="48" rx="2.5" ry="2.5" style="stroke:#6B7280;stroke-width:0.5;" width="86.1338" x="579.79" y="206.4583"/><ellipse cx="594.79" cy="222.4583" fill="#ADD1B2" rx="11" ry="11" style="stroke:#181818;stroke-width:1;"/><path d="M597.2631,228.6013 Q596.6821,228.9002 596.0429,229.0496 Q595.4038,229.199 594.6982,229.199 Q592.1914,229.199 590.8715,227.5471 Q589.5517,225.8953 589.5517,222.7742 Q589.5517,219.6448 590.8715,217.9929 Q592.1914,216.3411 594.6982,216.3411 Q595.4038,216.3411 596.0512,216.4905 Q596.6987,216.6399 597.2631,216.9388 L597.2631,219.6614 Q596.6323,219.0804 596.0388,218.8106 Q595.4453,218.5408 594.8144,218.5408 Q593.4697,218.5408 592.7849,219.6075 Q592.1001,220.6741 592.1001,222.7742 Q592.1001,224.866 592.7849,225.9326 Q593.4697,226.9993 594.8144,226.9993 Q595.4453,226.9993 596.0388,226.7295 Q596.6323,226.4597 597.2631,225.8787 Z " fill="#000000"/><text fill="#000000" font-family="sans-serif" font-size="14" lengthAdjust="spacing" textLength="54.1338" x="608.79" y="227.7493">TmpFile</text><line style="stroke:#6B7280;stroke-width:0.5;" x1="580.79" x2="664.9238" y1="238.4583" y2="238.4583"/><line style="stroke:#6B7280;stroke-width:0.5;" x1="580.79" x2="664.9238" y1="246.4583" y2="246.4583"/></g><!--class CanonicalFile--><g class="entity" data-qualified-name="P_OsLib.CanonicalFile" data-source-line="25" id="ent0010"><rect fill="#F9FAFB" height="48" rx="2.5" ry="2.5" style="stroke:#6B7280;stroke-width:0.5;" width="121.79" x="700.96" y="206.4583"/><ellipse cx="715.96" cy="222.4583" fill="#ADD1B2" rx="11" ry="11" style="stroke:#181818;stroke-width:1;"/><path d="M718.4331,228.6013 Q717.8521,228.9002 717.2129,229.0496 Q716.5738,229.199 715.8682,229.199 Q713.3614,229.199 712.0415,227.5471 Q710.7217,225.8953 710.7217,222.7742 Q710.7217,219.6448 712.0415,217.9929 Q713.3614,216.3411 715.8682,216.3411 Q716.5738,216.3411 717.2212,216.4905 Q717.8687,216.6399 718.4331,216.9388 L718.4331,219.6614 Q717.8023,219.0804 717.2088,218.8106 Q716.6153,218.5408 715.9844,218.5408 Q714.6397,218.5408 713.9549,219.6075 Q713.2701,220.6741 713.2701,222.7742 Q713.2701,224.866 713.9549,225.9326 Q714.6397,226.9993 715.9844,226.9993 Q716.6153,226.9993 717.2088,226.7295 Q717.8023,226.4597 718.4331,225.8787 Z " fill="#000000"/><text fill="#000000" font-family="sans-serif" font-size="14" lengthAdjust="spacing" textLength="89.79" x="729.96" y="227.7493">CanonicalFile</text><line style="stroke:#6B7280;stroke-width:0.5;" x1="701.96" x2="821.75" y1="238.4583" y2="238.4583"/><line style="stroke:#6B7280;stroke-width:0.5;" x1="701.96" x2="821.75" y1="246.4583" y2="246.4583"/></g><!--class CanonicalPath--><g class="entity" data-qualified-name="P_OsLib.CanonicalPath" data-source-line="26" id="ent0011"><rect fill="#F9FAFB" height="48" rx="2.5" ry="2.5" style="stroke:#6B7280;stroke-width:0.5;" width="127.7852" x="343.96" y="321.4583"/><ellipse cx="358.96" cy="337.4583" fill="#ADD1B2" rx="11" ry="11" style="stroke:#181818;stroke-width:1;"/><path d="M361.4331,343.6013 Q360.8521,343.9002 360.2129,344.0496 Q359.5738,344.199 358.8682,344.199 Q356.3614,344.199 355.0415,342.5471 Q353.7217,340.8953 353.7217,337.7742 Q353.7217,334.6448 355.0415,332.9929 Q356.3614,331.3411 358.8682,331.3411 Q359.5738,331.3411 360.2212,331.4905 Q360.8687,331.6399 361.4331,331.9388 L361.4331,334.6614 Q360.8023,334.0804 360.2088,333.8106 Q359.6153,333.5408 358.9844,333.5408 Q357.6397,333.5408 356.9549,334.6075 Q356.2701,335.6741 356.2701,337.7742 Q356.2701,339.866 356.9549,340.9326 Q357.6397,341.9993 358.9844,341.9993 Q359.6153,341.9993 360.2088,341.7295 Q360.8023,341.4597 361.4331,340.8787 Z " fill="#000000"/><text fill="#000000" font-family="sans-serif" font-size="14" lengthAdjust="spacing" textLength="95.7852" x="372.96" y="342.7493">CanonicalPath</text><line style="stroke:#6B7280;stroke-width:0.5;" x1="344.96" x2="470.7452" y1="353.4583" y2="353.4583"/><line style="stroke:#6B7280;stroke-width:0.5;" x1="344.96" x2="470.7452" y1="361.4583" y2="361.4583"/></g><!--class PathConventionType--><g class="entity" data-qualified-name="P_OsLib.PathConventionType" data-source-line="27" id="ent0012"><rect fill="#F9FAFB" height="48" rx="2.5" ry="2.5" style="stroke:#6B7280;stroke-width:0.5;" width="171.4531" x="507.13" y="321.4583"/><ellipse cx="522.13" cy="337.4583" fill="#ADD1B2" rx="11" ry="11" style="stroke:#181818;stroke-width:1;"/><path d="M524.6031,343.6013 Q524.0221,343.9002 523.3829,344.0496 Q522.7438,344.199 522.0382,344.199 Q519.5314,344.199 518.2115,342.5471 Q516.8917,340.8953 516.8917,337.7742 Q516.8917,334.6448 518.2115,332.9929 Q519.5314,331.3411 522.0382,331.3411 Q522.7438,331.3411 523.3912,331.4905 Q524.0387,331.6399 524.6031,331.9388 L524.6031,334.6614 Q523.9723,334.0804 523.3788,333.8106 Q522.7853,333.5408 522.1544,333.5408 Q520.8097,333.5408 520.1249,334.6075 Q519.4401,335.6741 519.4401,337.7742 Q519.4401,339.866 520.1249,340.9326 Q520.8097,341.9993 522.1544,341.9993 Q522.7853,341.9993 523.3788,341.7295 Q523.9723,341.4597 524.6031,340.8787 Z " fill="#000000"/><text fill="#000000" font-family="sans-serif" font-size="14" lengthAdjust="spacing" textLength="139.4531" x="536.13" y="342.7493">PathConventionType</text><line style="stroke:#6B7280;stroke-width:0.5;" x1="508.13" x2="677.5831" y1="353.4583" y2="353.4583"/><line style="stroke:#6B7280;stroke-width:0.5;" x1="508.13" x2="677.5831" y1="361.4583" y2="361.4583"/></g><!--class Email--><g class="entity" data-qualified-name="P_RaiUtils.Email" data-source-line="31" id="ent0014"><rect fill="#F9FAFB" height="48" rx="2.5" ry="2.5" style="stroke:#6B7280;stroke-width:0.5;" width="68.4834" x="918.61" y="206.4583"/><ellipse cx="933.61" cy="222.4583" fill="#ADD1B2" rx="11" ry="11" style="stroke:#181818;stroke-width:1;"/><path d="M936.0831,228.6013 Q935.5021,228.9002 934.8629,229.0496 Q934.2238,229.199 933.5182,229.199 Q931.0114,229.199 929.6915,227.5471 Q928.3717,225.8953 928.3717,222.7742 Q928.3717,219.6448 929.6915,217.9929 Q931.0114,216.3411 933.5182,216.3411 Q934.2238,216.3411 934.8712,216.4905 Q935.5187,216.6399 936.0831,216.9388 L936.0831,219.6614 Q935.4523,219.0804 934.8588,218.8106 Q934.2653,218.5408 933.6344,218.5408 Q932.2897,218.5408 931.6049,219.6075 Q930.9201,220.6741 930.9201,222.7742 Q930.9201,224.866 931.6049,225.9326 Q932.2897,226.9993 933.6344,226.9993 Q934.2653,226.9993 934.8588,226.7295 Q935.4523,226.4597 936.0831,225.8787 Z " fill="#000000"/><text fill="#000000" font-family="sans-serif" font-size="14" lengthAdjust="spacing" textLength="36.4834" x="947.61" y="227.7493">Email</text><line style="stroke:#6B7280;stroke-width:0.5;" x1="919.61" x2="986.0934" y1="238.4583" y2="238.4583"/><line style="stroke:#6B7280;stroke-width:0.5;" x1="919.61" x2="986.0934" y1="246.4583" y2="246.4583"/></g><!--class JsonConversionExtensions--><g class="entity" data-qualified-name="P_RaiUtils.JsonConversionExtensions" data-source-line="32" id="ent0015"><rect fill="#F9FAFB" height="48" rx="2.5" ry="2.5" style="stroke:#6B7280;stroke-width:0.5;" width="210.5068" x="1021.6" y="206.4583"/><ellipse cx="1036.6" cy="222.4583" fill="#ADD1B2" rx="11" ry="11" style="stroke:#181818;stroke-width:1;"/><path d="M1039.0731,228.6013 Q1038.4921,228.9002 1037.8529,229.0496 Q1037.2138,229.199 1036.5082,229.199 Q1034.0014,229.199 1032.6815,227.5471 Q1031.3617,225.8953 1031.3617,222.7742 Q1031.3617,219.6448 1032.6815,217.9929 Q1034.0014,216.3411 1036.5082,216.3411 Q1037.2138,216.3411 1037.8612,216.4905 Q1038.5087,216.6399 1039.0731,216.9388 L1039.0731,219.6614 Q1038.4423,219.0804 1037.8488,218.8106 Q1037.2553,218.5408 1036.6244,218.5408 Q1035.2797,218.5408 1034.5949,219.6075 Q1033.9101,220.6741 1033.9101,222.7742 Q1033.9101,224.866 1034.5949,225.9326 Q1035.2797,226.9993 1036.6244,226.9993 Q1037.2553,226.9993 1037.8488,226.7295 Q1038.4423,226.4597 1039.0731,225.8787 Z " fill="#000000"/><text fill="#000000" font-family="sans-serif" font-size="14" lengthAdjust="spacing" textLength="178.5068" x="1050.6" y="227.7493">JsonConversionExtensions</text><line style="stroke:#6B7280;stroke-width:0.5;" x1="1022.6" x2="1231.1068" y1="238.4583" y2="238.4583"/><line style="stroke:#6B7280;stroke-width:0.5;" x1="1022.6" x2="1231.1068" y1="246.4583" y2="246.4583"/></g><!--class ParameterDictionary--><g class="entity" data-qualified-name="P_RaiUtils.ParameterDictionary" data-source-line="33" id="ent0016"><rect fill="#F9FAFB" height="48" rx="2.5" ry="2.5" style="stroke:#6B7280;stroke-width:0.5;" width="169.6143" x="1267.05" y="206.4583"/><ellipse cx="1282.05" cy="222.4583" fill="#ADD1B2" rx="11" ry="11" style="stroke:#181818;stroke-width:1;"/><path d="M1284.5231,228.6013 Q1283.9421,228.9002 1283.3029,229.0496 Q1282.6638,229.199 1281.9582,229.199 Q1279.4514,229.199 1278.1315,227.5471 Q1276.8117,225.8953 1276.8117,222.7742 Q1276.8117,219.6448 1278.1315,217.9929 Q1279.4514,216.3411 1281.9582,216.3411 Q1282.6638,216.3411 1283.3112,216.4905 Q1283.9587,216.6399 1284.5231,216.9388 L1284.5231,219.6614 Q1283.8923,219.0804 1283.2988,218.8106 Q1282.7053,218.5408 1282.0744,218.5408 Q1280.7297,218.5408 1280.0449,219.6075 Q1279.3601,220.6741 1279.3601,222.7742 Q1279.3601,224.866 1280.0449,225.9326 Q1280.7297,226.9993 1282.0744,226.9993 Q1282.7053,226.9993 1283.2988,226.7295 Q1283.8923,226.4597 1284.5231,225.8787 Z " fill="#000000"/><text fill="#000000" font-family="sans-serif" font-size="14" lengthAdjust="spacing" textLength="137.6143" x="1296.05" y="227.7493">ParameterDictionary</text><line style="stroke:#6B7280;stroke-width:0.5;" x1="1268.05" x2="1435.6643" y1="238.4583" y2="238.4583"/><line style="stroke:#6B7280;stroke-width:0.5;" x1="1268.05" x2="1435.6643" y1="246.4583" y2="246.4583"/></g><!--class RandomExtensions--><g class="entity" data-qualified-name="P_RaiUtils.RandomExtensions" data-source-line="34" id="ent0017"><rect fill="#F9FAFB" height="48" rx="2.5" ry="2.5" style="stroke:#6B7280;stroke-width:0.5;" width="161.2607" x="919.22" y="321.4583"/><ellipse cx="934.22" cy="337.4583" fill="#ADD1B2" rx="11" ry="11" style="stroke:#181818;stroke-width:1;"/><path d="M936.6931,343.6013 Q936.1121,343.9002 935.4729,344.0496 Q934.8338,344.199 934.1282,344.199 Q931.6214,344.199 930.3015,342.5471 Q928.9817,340.8953 928.9817,337.7742 Q928.9817,334.6448 930.3015,332.9929 Q931.6214,331.3411 934.1282,331.3411 Q934.8338,331.3411 935.4812,331.4905 Q936.1287,331.6399 936.6931,331.9388 L936.6931,334.6614 Q936.0623,334.0804 935.4688,333.8106 Q934.8753,333.5408 934.2444,333.5408 Q932.8997,333.5408 932.2149,334.6075 Q931.5301,335.6741 931.5301,337.7742 Q931.5301,339.866 932.2149,340.9326 Q932.8997,341.9993 934.2444,341.9993 Q934.8753,341.9993 935.4688,341.7295 Q936.0623,341.4597 936.6931,340.8787 Z " fill="#000000"/><text fill="#000000" font-family="sans-serif" font-size="14" lengthAdjust="spacing" textLength="129.2607" x="948.22" y="342.7493">RandomExtensions</text><line style="stroke:#6B7280;stroke-width:0.5;" x1="920.22" x2="1079.4807" y1="353.4583" y2="353.4583"/><line style="stroke:#6B7280;stroke-width:0.5;" x1="920.22" x2="1079.4807" y1="361.4583" y2="361.4583"/></g><!--class SearchExpression--><g class="entity" data-qualified-name="P_RaiUtils.SearchExpression" data-source-line="35" id="ent0018"><rect fill="#F9FAFB" height="48" rx="2.5" ry="2.5" style="stroke:#6B7280;stroke-width:0.5;" width="150.7813" x="1115.46" y="321.4583"/><ellipse cx="1130.46" cy="337.4583" fill="#ADD1B2" rx="11" ry="11" style="stroke:#181818;stroke-width:1;"/><path d="M1132.9331,343.6013 Q1132.3521,343.9002 1131.7129,344.0496 Q1131.0738,344.199 1130.3682,344.199 Q1127.8614,344.199 1126.5415,342.5471 Q1125.2217,340.8953 1125.2217,337.7742 Q1125.2217,334.6448 1126.5415,332.9929 Q1127.8614,331.3411 1130.3682,331.3411 Q1131.0738,331.3411 1131.7212,331.4905 Q1132.3687,331.6399 1132.9331,331.9388 L1132.9331,334.6614 Q1132.3023,334.0804 1131.7088,333.8106 Q1131.1153,333.5408 1130.4844,333.5408 Q1129.1397,333.5408 1128.4549,334.6075 Q1127.7701,335.6741 1127.7701,337.7742 Q1127.7701,339.866 1128.4549,340.9326 Q1129.1397,341.9993 1130.4844,341.9993 Q1131.1153,341.9993 1131.7088,341.7295 Q1132.3023,341.4597 1132.9331,340.8787 Z " fill="#000000"/><text fill="#000000" font-family="sans-serif" font-size="14" lengthAdjust="spacing" textLength="118.7813" x="1144.46" y="342.7493">SearchExpression</text><line style="stroke:#6B7280;stroke-width:0.5;" x1="1116.46" x2="1265.2413" y1="353.4583" y2="353.4583"/><line style="stroke:#6B7280;stroke-width:0.5;" x1="1116.46" x2="1265.2413" y1="361.4583" y2="361.4583"/></g><!--class Item--><g class="entity" data-qualified-name="P_JsonPit.Item" data-source-line="39" id="ent0020"><rect fill="#F9FAFB" height="48" rx="2.5" ry="2.5" style="stroke:#6B7280;stroke-width:0.5;" width="62.1396" x="1800.78" y="321.4583"/><ellipse cx="1815.78" cy="337.4583" fill="#ADD1B2" rx="11" ry="11" style="stroke:#181818;stroke-width:1;"/><path d="M1818.2531,343.6013 Q1817.6721,343.9002 1817.0329,344.0496 Q1816.3938,344.199 1815.6882,344.199 Q1813.1814,344.199 1811.8615,342.5471 Q1810.5417,340.8953 1810.5417,337.7742 Q1810.5417,334.6448 1811.8615,332.9929 Q1813.1814,331.3411 1815.6882,331.3411 Q1816.3938,331.3411 1817.0412,331.4905 Q1817.6887,331.6399 1818.2531,331.9388 L1818.2531,334.6614 Q1817.6223,334.0804 1817.0288,333.8106 Q1816.4353,333.5408 1815.8044,333.5408 Q1814.4597,333.5408 1813.7749,334.6075 Q1813.0901,335.6741 1813.0901,337.7742 Q1813.0901,339.866 1813.7749,340.9326 Q1814.4597,341.9993 1815.8044,341.9993 Q1816.4353,341.9993 1817.0288,341.7295 Q1817.6223,341.4597 1818.2531,340.8787 Z " fill="#000000"/><text fill="#000000" font-family="sans-serif" font-size="14" lengthAdjust="spacing" textLength="30.1396" x="1829.78" y="342.7493">Item</text><line style="stroke:#6B7280;stroke-width:0.5;" x1="1801.78" x2="1861.9196" y1="353.4583" y2="353.4583"/><line style="stroke:#6B7280;stroke-width:0.5;" x1="1801.78" x2="1861.9196" y1="361.4583" y2="361.4583"/></g><!--class ItemsBase--><g class="entity" data-qualified-name="P_JsonPit.ItemsBase" data-source-line="40" id="ent0021"><rect fill="#F9FAFB" height="48" rx="2.5" ry="2.5" style="stroke:#6B7280;stroke-width:0.5;" width="99.9971" x="1897.86" y="321.4583"/><ellipse cx="1912.86" cy="337.4583" fill="#ADD1B2" rx="11" ry="11" style="stroke:#181818;stroke-width:1;"/><path d="M1915.3331,343.6013 Q1914.7521,343.9002 1914.1129,344.0496 Q1913.4738,344.199 1912.7682,344.199 Q1910.2614,344.199 1908.9415,342.5471 Q1907.6217,340.8953 1907.6217,337.7742 Q1907.6217,334.6448 1908.9415,332.9929 Q1910.2614,331.3411 1912.7682,331.3411 Q1913.4738,331.3411 1914.1212,331.4905 Q1914.7687,331.6399 1915.3331,331.9388 L1915.3331,334.6614 Q1914.7023,334.0804 1914.1088,333.8106 Q1913.5153,333.5408 1912.8844,333.5408 Q1911.5397,333.5408 1910.8549,334.6075 Q1910.1701,335.6741 1910.1701,337.7742 Q1910.1701,339.866 1910.8549,340.9326 Q1911.5397,341.9993 1912.8844,341.9993 Q1913.5153,341.9993 1914.1088,341.7295 Q1914.7023,341.4597 1915.3331,340.8787 Z " fill="#000000"/><text fill="#000000" font-family="sans-serif" font-size="14" lengthAdjust="spacing" textLength="67.9971" x="1926.86" y="342.7493">ItemsBase</text><line style="stroke:#6B7280;stroke-width:0.5;" x1="1898.86" x2="1996.8571" y1="353.4583" y2="353.4583"/><line style="stroke:#6B7280;stroke-width:0.5;" x1="1898.86" x2="1996.8571" y1="361.4583" y2="361.4583"/></g><!--class JsonPitBase--><g class="entity" data-qualified-name="P_JsonPit.JsonPitBase" data-source-line="41" id="ent0022"><rect fill="#F9FAFB" height="48" rx="2.5" ry="2.5" style="stroke:#6B7280;stroke-width:0.5;" width="108.5215" x="2032.59" y="321.4583"/><ellipse cx="2047.59" cy="337.4583" fill="#ADD1B2" rx="11" ry="11" style="stroke:#181818;stroke-width:1;"/><path d="M2050.0631,343.6013 Q2049.4821,343.9002 2048.8429,344.0496 Q2048.2038,344.199 2047.4982,344.199 Q2044.9914,344.199 2043.6715,342.5471 Q2042.3517,340.8953 2042.3517,337.7742 Q2042.3517,334.6448 2043.6715,332.9929 Q2044.9914,331.3411 2047.4982,331.3411 Q2048.2038,331.3411 2048.8512,331.4905 Q2049.4987,331.6399 2050.0631,331.9388 L2050.0631,334.6614 Q2049.4323,334.0804 2048.8388,333.8106 Q2048.2453,333.5408 2047.6144,333.5408 Q2046.2697,333.5408 2045.5849,334.6075 Q2044.9001,335.6741 2044.9001,337.7742 Q2044.9001,339.866 2045.5849,340.9326 Q2046.2697,341.9993 2047.6144,341.9993 Q2048.2453,341.9993 2048.8388,341.7295 Q2049.4323,341.4597 2050.0631,340.8787 Z " fill="#000000"/><text fill="#000000" font-family="sans-serif" font-size="14" lengthAdjust="spacing" textLength="76.5215" x="2061.59" y="342.7493">JsonPitBase</text><line style="stroke:#6B7280;stroke-width:0.5;" x1="2033.59" x2="2140.1115" y1="353.4583" y2="353.4583"/><line style="stroke:#6B7280;stroke-width:0.5;" x1="2033.59" x2="2140.1115" y1="361.4583" y2="361.4583"/></g><!--class Pit--><g class="entity" data-qualified-name="P_JsonPit.Pit" data-source-line="42" id="ent0023"><rect fill="#F9FAFB" height="48" rx="2.5" ry="2.5" style="stroke:#6B7280;stroke-width:0.5;" width="49.0215" x="1815.34" y="476.4583"/><ellipse cx="1830.34" cy="492.4583" fill="#ADD1B2" rx="11" ry="11" style="stroke:#181818;stroke-width:1;"/><path d="M1832.8131,498.6013 Q1832.2321,498.9002 1831.5929,499.0496 Q1830.9538,499.199 1830.2482,499.199 Q1827.7414,499.199 1826.4215,497.5471 Q1825.1017,495.8953 1825.1017,492.7742 Q1825.1017,489.6448 1826.4215,487.9929 Q1827.7414,486.3411 1830.2482,486.3411 Q1830.9538,486.3411 1831.6012,486.4905 Q1832.2487,486.6399 1832.8131,486.9388 L1832.8131,489.6614 Q1832.1823,489.0804 1831.5888,488.8106 Q1830.9953,488.5408 1830.3644,488.5408 Q1829.0197,488.5408 1828.3349,489.6075 Q1827.6501,490.6741 1827.6501,492.7742 Q1827.6501,494.866 1828.3349,495.9326 Q1829.0197,496.9993 1830.3644,496.9993 Q1830.9953,496.9993 1831.5888,496.7295 Q1832.1823,496.4597 1832.8131,495.8787 Z " fill="#000000"/><text fill="#000000" font-family="sans-serif" font-size="14" lengthAdjust="spacing" textLength="17.0215" x="1844.34" y="497.7493">Pit</text><line style="stroke:#6B7280;stroke-width:0.5;" x1="1816.34" x2="1863.3615" y1="508.4583" y2="508.4583"/><line style="stroke:#6B7280;stroke-width:0.5;" x1="1816.34" x2="1863.3615" y1="516.4583" y2="516.4583"/></g><!--class PitItem--><g class="entity" data-qualified-name="P_JsonPit.PitItem" data-source-line="43" id="ent0024"><rect fill="#F9FAFB" height="48" rx="2.5" ry="2.5" style="stroke:#6B7280;stroke-width:0.5;" width="79.1611" x="1899.27" y="476.4583"/><ellipse cx="1914.27" cy="492.4583" fill="#ADD1B2" rx="11" ry="11" style="stroke:#181818;stroke-width:1;"/><path d="M1916.7431,498.6013 Q1916.1621,498.9002 1915.5229,499.0496 Q1914.8838,499.199 1914.1782,499.199 Q1911.6714,499.199 1910.3515,497.5471 Q1909.0317,495.8953 1909.0317,492.7742 Q1909.0317,489.6448 1910.3515,487.9929 Q1911.6714,486.3411 1914.1782,486.3411 Q1914.8838,486.3411 1915.5312,486.4905 Q1916.1787,486.6399 1916.7431,486.9388 L1916.7431,489.6614 Q1916.1123,489.0804 1915.5188,488.8106 Q1914.9253,488.5408 1914.2944,488.5408 Q1912.9497,488.5408 1912.2649,489.6075 Q1911.5801,490.6741 1911.5801,492.7742 Q1911.5801,494.866 1912.2649,495.9326 Q1912.9497,496.9993 1914.2944,496.9993 Q1914.9253,496.9993 1915.5188,496.7295 Q1916.1123,496.4597 1916.7431,495.8787 Z " fill="#000000"/><text fill="#000000" font-family="sans-serif" font-size="14" lengthAdjust="spacing" textLength="47.1611" x="1928.27" y="497.7493">PitItem</text><line style="stroke:#6B7280;stroke-width:0.5;" x1="1900.27" x2="1977.4311" y1="508.4583" y2="508.4583"/><line style="stroke:#6B7280;stroke-width:0.5;" x1="1900.27" x2="1977.4311" y1="516.4583" y2="516.4583"/></g><!--class PitItems--><g class="entity" data-qualified-name="P_JsonPit.PitItems" data-source-line="44" id="ent0025"><rect fill="#F9FAFB" height="48" rx="2.5" ry="2.5" style="stroke:#6B7280;stroke-width:0.5;" width="86.2979" x="2013.71" y="476.4583"/><ellipse cx="2028.71" cy="492.4583" fill="#ADD1B2" rx="11" ry="11" style="stroke:#181818;stroke-width:1;"/><path d="M2031.1831,498.6013 Q2030.6021,498.9002 2029.9629,499.0496 Q2029.3238,499.199 2028.6182,499.199 Q2026.1114,499.199 2024.7915,497.5471 Q2023.4717,495.8953 2023.4717,492.7742 Q2023.4717,489.6448 2024.7915,487.9929 Q2026.1114,486.3411 2028.6182,486.3411 Q2029.3238,486.3411 2029.9712,486.4905 Q2030.6187,486.6399 2031.1831,486.9388 L2031.1831,489.6614 Q2030.5523,489.0804 2029.9588,488.8106 Q2029.3653,488.5408 2028.7344,488.5408 Q2027.3897,488.5408 2026.7049,489.6075 Q2026.0201,490.6741 2026.0201,492.7742 Q2026.0201,494.866 2026.7049,495.9326 Q2027.3897,496.9993 2028.7344,496.9993 Q2029.3653,496.9993 2029.9588,496.7295 Q2030.5523,496.4597 2031.1831,495.8787 Z " fill="#000000"/><text fill="#000000" font-family="sans-serif" font-size="14" lengthAdjust="spacing" textLength="54.2979" x="2042.71" y="497.7493">PitItems</text><line style="stroke:#6B7280;stroke-width:0.5;" x1="2014.71" x2="2099.0079" y1="508.4583" y2="508.4583"/><line style="stroke:#6B7280;stroke-width:0.5;" x1="2014.71" x2="2099.0079" y1="516.4583" y2="516.4583"/></g><!--class MasterFlagFile--><g class="entity" data-qualified-name="P_JsonPit.MasterFlagFile" data-source-line="45" id="ent0026"><rect fill="#F9FAFB" height="48" rx="2.5" ry="2.5" style="stroke:#6B7280;stroke-width:0.5;" width="129.1045" x="1784.3" y="607.4583"/><ellipse cx="1799.3" cy="623.4583" fill="#ADD1B2" rx="11" ry="11" style="stroke:#181818;stroke-width:1;"/><path d="M1801.7731,629.6013 Q1801.1921,629.9002 1800.5529,630.0496 Q1799.9138,630.199 1799.2082,630.199 Q1796.7014,630.199 1795.3815,628.5471 Q1794.0617,626.8953 1794.0617,623.7742 Q1794.0617,620.6448 1795.3815,618.9929 Q1796.7014,617.3411 1799.2082,617.3411 Q1799.9138,617.3411 1800.5612,617.4905 Q1801.2087,617.6399 1801.7731,617.9388 L1801.7731,620.6614 Q1801.1423,620.0804 1800.5488,619.8106 Q1799.9553,619.5408 1799.3244,619.5408 Q1797.9797,619.5408 1797.2949,620.6075 Q1796.6101,621.6741 1796.6101,623.7742 Q1796.6101,625.866 1797.2949,626.9326 Q1797.9797,627.9993 1799.3244,627.9993 Q1799.9553,627.9993 1800.5488,627.7295 Q1801.1423,627.4597 1801.7731,626.8787 Z " fill="#000000"/><text fill="#000000" font-family="sans-serif" font-size="14" lengthAdjust="spacing" textLength="97.1045" x="1813.3" y="628.7493">MasterFlagFile</text><line style="stroke:#6B7280;stroke-width:0.5;" x1="1785.3" x2="1912.4045" y1="639.4583" y2="639.4583"/><line style="stroke:#6B7280;stroke-width:0.5;" x1="1785.3" x2="1912.4045" y1="647.4583" y2="647.4583"/></g><!--class ProcessFlagFile--><g class="entity" data-qualified-name="P_JsonPit.ProcessFlagFile" data-source-line="46" id="ent0027"><rect fill="#F9FAFB" height="48" rx="2.5" ry="2.5" style="stroke:#6B7280;stroke-width:0.5;" width="134.7236" x="1948.49" y="607.4583"/><ellipse cx="1963.49" cy="623.4583" fill="#ADD1B2" rx="11" ry="11" style="stroke:#181818;stroke-width:1;"/><path d="M1965.9631,629.6013 Q1965.3821,629.9002 1964.7429,630.0496 Q1964.1038,630.199 1963.3982,630.199 Q1960.8914,630.199 1959.5715,628.5471 Q1958.2517,626.8953 1958.2517,623.7742 Q1958.2517,620.6448 1959.5715,618.9929 Q1960.8914,617.3411 1963.3982,617.3411 Q1964.1038,617.3411 1964.7512,617.4905 Q1965.3987,617.6399 1965.9631,617.9388 L1965.9631,620.6614 Q1965.3323,620.0804 1964.7388,619.8106 Q1964.1453,619.5408 1963.5144,619.5408 Q1962.1697,619.5408 1961.4849,620.6075 Q1960.8001,621.6741 1960.8001,623.7742 Q1960.8001,625.866 1961.4849,626.9326 Q1962.1697,627.9993 1963.5144,627.9993 Q1964.1453,627.9993 1964.7388,627.7295 Q1965.3323,627.4597 1965.9631,626.8787 Z " fill="#000000"/><text fill="#000000" font-family="sans-serif" font-size="14" lengthAdjust="spacing" textLength="102.7236" x="1977.49" y="628.7493">ProcessFlagFile</text><line style="stroke:#6B7280;stroke-width:0.5;" x1="1949.49" x2="2082.2136" y1="639.4583" y2="639.4583"/><line style="stroke:#6B7280;stroke-width:0.5;" x1="1949.49" x2="2082.2136" y1="647.4583" y2="647.4583"/></g><!--class TimestampedValue--><g class="entity" data-qualified-name="P_JsonPit.TimestampedValue" data-source-line="47" id="ent0028"><rect fill="#F9FAFB" height="48" rx="2.5" ry="2.5" style="stroke:#6B7280;stroke-width:0.5;" width="161.7871" x="2117.96" y="607.4583"/><ellipse cx="2132.96" cy="623.4583" fill="#ADD1B2" rx="11" ry="11" style="stroke:#181818;stroke-width:1;"/><path d="M2135.4331,629.6013 Q2134.8521,629.9002 2134.2129,630.0496 Q2133.5738,630.199 2132.8682,630.199 Q2130.3614,630.199 2129.0415,628.5471 Q2127.7217,626.8953 2127.7217,623.7742 Q2127.7217,620.6448 2129.0415,618.9929 Q2130.3614,617.3411 2132.8682,617.3411 Q2133.5738,617.3411 2134.2212,617.4905 Q2134.8687,617.6399 2135.4331,617.9388 L2135.4331,620.6614 Q2134.8023,620.0804 2134.2088,619.8106 Q2133.6153,619.5408 2132.9844,619.5408 Q2131.6397,619.5408 2130.9549,620.6075 Q2130.2701,621.6741 2130.2701,623.7742 Q2130.2701,625.866 2130.9549,626.9326 Q2131.6397,627.9993 2132.9844,627.9993 Q2133.6153,627.9993 2134.2088,627.7295 Q2134.8023,627.4597 2135.4331,626.8787 Z " fill="#000000"/><text fill="#000000" font-family="sans-serif" font-size="14" lengthAdjust="spacing" textLength="129.7871" x="2146.96" y="628.7493">TimestampedValue</text><line style="stroke:#6B7280;stroke-width:0.5;" x1="2118.96" x2="2278.7471" y1="639.4583" y2="639.4583"/><line style="stroke:#6B7280;stroke-width:0.5;" x1="2118.96" x2="2278.7471" y1="647.4583" y2="647.4583"/></g><!--class CamelCase--><g class="entity" data-qualified-name="P_RaiImage.CamelCase" data-source-line="51" id="ent0030"><rect fill="#F9FAFB" height="48" rx="2.5" ry="2.5" style="stroke:#6B7280;stroke-width:0.5;" width="106.6895" x="298.51" y="476.4583"/><ellipse cx="313.51" cy="492.4583" fill="#ADD1B2" rx="11" ry="11" style="stroke:#181818;stroke-width:1;"/><path d="M315.9831,498.6013 Q315.4021,498.9002 314.7629,499.0496 Q314.1238,499.199 313.4182,499.199 Q310.9114,499.199 309.5915,497.5471 Q308.2717,495.8953 308.2717,492.7742 Q308.2717,489.6448 309.5915,487.9929 Q310.9114,486.3411 313.4182,486.3411 Q314.1238,486.3411 314.7712,486.4905 Q315.4187,486.6399 315.9831,486.9388 L315.9831,489.6614 Q315.3523,489.0804 314.7588,488.8106 Q314.1653,488.5408 313.5344,488.5408 Q312.1897,488.5408 311.5049,489.6075 Q310.8201,490.6741 310.8201,492.7742 Q310.8201,494.866 311.5049,495.9326 Q312.1897,496.9993 313.5344,496.9993 Q314.1653,496.9993 314.7588,496.7295 Q315.3523,496.4597 315.9831,495.8787 Z " fill="#000000"/><text fill="#000000" font-family="sans-serif" font-size="14" lengthAdjust="spacing" textLength="74.6895" x="327.51" y="497.7493">CamelCase</text><line style="stroke:#6B7280;stroke-width:0.5;" x1="299.51" x2="404.1995" y1="508.4583" y2="508.4583"/><line style="stroke:#6B7280;stroke-width:0.5;" x1="299.51" x2="404.1995" y1="516.4583" y2="516.4583"/></g><!--class ColorInfo--><g class="entity" data-qualified-name="P_RaiImage.ColorInfo" data-source-line="52" id="ent0031"><rect fill="#F9FAFB" height="48" rx="2.5" ry="2.5" style="stroke:#6B7280;stroke-width:0.5;" width="95.1299" x="440.29" y="476.4583"/><ellipse cx="455.29" cy="492.4583" fill="#ADD1B2" rx="11" ry="11" style="stroke:#181818;stroke-width:1;"/><path d="M457.7631,498.6013 Q457.1821,498.9002 456.5429,499.0496 Q455.9038,499.199 455.1982,499.199 Q452.6914,499.199 451.3715,497.5471 Q450.0517,495.8953 450.0517,492.7742 Q450.0517,489.6448 451.3715,487.9929 Q452.6914,486.3411 455.1982,486.3411 Q455.9038,486.3411 456.5512,486.4905 Q457.1987,486.6399 457.7631,486.9388 L457.7631,489.6614 Q457.1323,489.0804 456.5388,488.8106 Q455.9453,488.5408 455.3144,488.5408 Q453.9697,488.5408 453.2849,489.6075 Q452.6001,490.6741 452.6001,492.7742 Q452.6001,494.866 453.2849,495.9326 Q453.9697,496.9993 455.3144,496.9993 Q455.9453,496.9993 456.5388,496.7295 Q457.1323,496.4597 457.7631,495.8787 Z " fill="#000000"/><text fill="#000000" font-family="sans-serif" font-size="14" lengthAdjust="spacing" textLength="63.1299" x="469.29" y="497.7493">ColorInfo</text><line style="stroke:#6B7280;stroke-width:0.5;" x1="441.29" x2="534.4199" y1="508.4583" y2="508.4583"/><line style="stroke:#6B7280;stroke-width:0.5;" x1="441.29" x2="534.4199" y1="516.4583" y2="516.4583"/></g><!--class Dye--><g class="entity" data-qualified-name="P_RaiImage.Dye" data-source-line="53" id="ent0032"><rect fill="#F9FAFB" height="48" rx="2.5" ry="2.5" style="stroke:#6B7280;stroke-width:0.5;" width="57.6006" x="570.05" y="476.4583"/><ellipse cx="585.05" cy="492.4583" fill="#ADD1B2" rx="11" ry="11" style="stroke:#181818;stroke-width:1;"/><path d="M587.5231,498.6013 Q586.9421,498.9002 586.3029,499.0496 Q585.6638,499.199 584.9582,499.199 Q582.4514,499.199 581.1315,497.5471 Q579.8117,495.8953 579.8117,492.7742 Q579.8117,489.6448 581.1315,487.9929 Q582.4514,486.3411 584.9582,486.3411 Q585.6638,486.3411 586.3112,486.4905 Q586.9587,486.6399 587.5231,486.9388 L587.5231,489.6614 Q586.8923,489.0804 586.2988,488.8106 Q585.7053,488.5408 585.0744,488.5408 Q583.7297,488.5408 583.0449,489.6075 Q582.3601,490.6741 582.3601,492.7742 Q582.3601,494.866 583.0449,495.9326 Q583.7297,496.9993 585.0744,496.9993 Q585.7053,496.9993 586.2988,496.7295 Q586.8923,496.4597 587.5231,495.8787 Z " fill="#000000"/><text fill="#000000" font-family="sans-serif" font-size="14" lengthAdjust="spacing" textLength="25.6006" x="599.05" y="497.7493">Dye</text><line style="stroke:#6B7280;stroke-width:0.5;" x1="571.05" x2="626.6506" y1="508.4583" y2="508.4583"/><line style="stroke:#6B7280;stroke-width:0.5;" x1="571.05" x2="626.6506" y1="516.4583" y2="516.4583"/></g><!--class ImageFile--><g class="entity" data-qualified-name="P_RaiImage.ImageFile" data-source-line="54" id="ent0033"><rect fill="#F9FAFB" height="48" rx="2.5" ry="2.5" style="stroke:#6B7280;stroke-width:0.5;" width="96.7637" x="662.47" y="476.4583"/><ellipse cx="677.47" cy="492.4583" fill="#ADD1B2" rx="11" ry="11" style="stroke:#181818;stroke-width:1;"/><path d="M679.9431,498.6013 Q679.3621,498.9002 678.7229,499.0496 Q678.0838,499.199 677.3782,499.199 Q674.8714,499.199 673.5515,497.5471 Q672.2317,495.8953 672.2317,492.7742 Q672.2317,489.6448 673.5515,487.9929 Q674.8714,486.3411 677.3782,486.3411 Q678.0838,486.3411 678.7312,486.4905 Q679.3787,486.6399 679.9431,486.9388 L679.9431,489.6614 Q679.3123,489.0804 678.7188,488.8106 Q678.1253,488.5408 677.4944,488.5408 Q676.1497,488.5408 675.4649,489.6075 Q674.7801,490.6741 674.7801,492.7742 Q674.7801,494.866 675.4649,495.9326 Q676.1497,496.9993 677.4944,496.9993 Q678.1253,496.9993 678.7188,496.7295 Q679.3123,496.4597 679.9431,495.8787 Z " fill="#000000"/><text fill="#000000" font-family="sans-serif" font-size="14" lengthAdjust="spacing" textLength="64.7637" x="691.47" y="497.7493">ImageFile</text><line style="stroke:#6B7280;stroke-width:0.5;" x1="663.47" x2="758.2337" y1="508.4583" y2="508.4583"/><line style="stroke:#6B7280;stroke-width:0.5;" x1="663.47" x2="758.2337" y1="516.4583" y2="516.4583"/></g><!--class ImageTreeFile--><g class="entity" data-qualified-name="P_RaiImage.ImageTreeFile" data-source-line="55" id="ent0034"><rect fill="#F9FAFB" height="48" rx="2.5" ry="2.5" style="stroke:#6B7280;stroke-width:0.5;" width="126.9443" x="272.38" y="607.4583"/><ellipse cx="287.38" cy="623.4583" fill="#ADD1B2" rx="11" ry="11" style="stroke:#181818;stroke-width:1;"/><path d="M289.8531,629.6013 Q289.2721,629.9002 288.6329,630.0496 Q287.9938,630.199 287.2882,630.199 Q284.7814,630.199 283.4615,628.5471 Q282.1417,626.8953 282.1417,623.7742 Q282.1417,620.6448 283.4615,618.9929 Q284.7814,617.3411 287.2882,617.3411 Q287.9938,617.3411 288.6412,617.4905 Q289.2887,617.6399 289.8531,617.9388 L289.8531,620.6614 Q289.2223,620.0804 288.6288,619.8106 Q288.0353,619.5408 287.4044,619.5408 Q286.0597,619.5408 285.3749,620.6075 Q284.6901,621.6741 284.6901,623.7742 Q284.6901,625.866 285.3749,626.9326 Q286.0597,627.9993 287.4044,627.9993 Q288.0353,627.9993 288.6288,627.7295 Q289.2223,627.4597 289.8531,626.8787 Z " fill="#000000"/><text fill="#000000" font-family="sans-serif" font-size="14" lengthAdjust="spacing" textLength="94.9443" x="301.38" y="628.7493">ImageTreeFile</text><line style="stroke:#6B7280;stroke-width:0.5;" x1="273.38" x2="398.3243" y1="639.4583" y2="639.4583"/><line style="stroke:#6B7280;stroke-width:0.5;" x1="273.38" x2="398.3243" y1="647.4583" y2="647.4583"/></g><!--class ImageMagick--><g class="entity" data-qualified-name="P_RaiImage.ImageMagick" data-source-line="56" id="ent0035"><rect fill="#F9FAFB" height="48" rx="2.5" ry="2.5" style="stroke:#6B7280;stroke-width:0.5;" width="121.2842" x="434.21" y="607.4583"/><ellipse cx="449.21" cy="623.4583" fill="#ADD1B2" rx="11" ry="11" style="stroke:#181818;stroke-width:1;"/><path d="M451.6831,629.6013 Q451.1021,629.9002 450.4629,630.0496 Q449.8238,630.199 449.1182,630.199 Q446.6114,630.199 445.2915,628.5471 Q443.9717,626.8953 443.9717,623.7742 Q443.9717,620.6448 445.2915,618.9929 Q446.6114,617.3411 449.1182,617.3411 Q449.8238,617.3411 450.4712,617.4905 Q451.1187,617.6399 451.6831,617.9388 L451.6831,620.6614 Q451.0523,620.0804 450.4588,619.8106 Q449.8653,619.5408 449.2344,619.5408 Q447.8897,619.5408 447.2049,620.6075 Q446.5201,621.6741 446.5201,623.7742 Q446.5201,625.866 447.2049,626.9326 Q447.8897,627.9993 449.2344,627.9993 Q449.8653,627.9993 450.4588,627.7295 Q451.0523,627.4597 451.6831,626.8787 Z " fill="#000000"/><text fill="#000000" font-family="sans-serif" font-size="14" lengthAdjust="spacing" textLength="89.2842" x="463.21" y="628.7493">ImageMagick</text><line style="stroke:#6B7280;stroke-width:0.5;" x1="435.21" x2="554.4942" y1="639.4583" y2="639.4583"/><line style="stroke:#6B7280;stroke-width:0.5;" x1="435.21" x2="554.4942" y1="647.4583" y2="647.4583"/></g><!--class ImageUrl--><g class="entity" data-qualified-name="P_RaiImage.ImageUrl" data-source-line="57" id="ent0036"><rect fill="#F9FAFB" height="48" rx="2.5" ry="2.5" style="stroke:#6B7280;stroke-width:0.5;" width="92.8398" x="590.43" y="607.4583"/><ellipse cx="605.43" cy="623.4583" fill="#ADD1B2" rx="11" ry="11" style="stroke:#181818;stroke-width:1;"/><path d="M607.9031,629.6013 Q607.3221,629.9002 606.6829,630.0496 Q606.0438,630.199 605.3382,630.199 Q602.8314,630.199 601.5115,628.5471 Q600.1917,626.8953 600.1917,623.7742 Q600.1917,620.6448 601.5115,618.9929 Q602.8314,617.3411 605.3382,617.3411 Q606.0438,617.3411 606.6912,617.4905 Q607.3387,617.6399 607.9031,617.9388 L607.9031,620.6614 Q607.2723,620.0804 606.6788,619.8106 Q606.0853,619.5408 605.4544,619.5408 Q604.1097,619.5408 603.4249,620.6075 Q602.7401,621.6741 602.7401,623.7742 Q602.7401,625.866 603.4249,626.9326 Q604.1097,627.9993 605.4544,627.9993 Q606.0853,627.9993 606.6788,627.7295 Q607.2723,627.4597 607.9031,626.8787 Z " fill="#000000"/><text fill="#000000" font-family="sans-serif" font-size="14" lengthAdjust="spacing" textLength="60.8398" x="619.43" y="628.7493">ImageUrl</text><line style="stroke:#6B7280;stroke-width:0.5;" x1="591.43" x2="682.2698" y1="639.4583" y2="639.4583"/><line style="stroke:#6B7280;stroke-width:0.5;" x1="591.43" x2="682.2698" y1="647.4583" y2="647.4583"/></g><!--class Src--><g class="entity" data-qualified-name="P_RaiImage.Src" data-source-line="58" id="ent0037"><rect fill="#F9FAFB" height="48" rx="2.5" ry="2.5" style="stroke:#6B7280;stroke-width:0.5;" width="52.4395" x="718.63" y="607.4583"/><ellipse cx="733.63" cy="623.4583" fill="#ADD1B2" rx="11" ry="11" style="stroke:#181818;stroke-width:1;"/><path d="M736.1031,629.6013 Q735.5221,629.9002 734.8829,630.0496 Q734.2438,630.199 733.5382,630.199 Q731.0314,630.199 729.7115,628.5471 Q728.3917,626.8953 728.3917,623.7742 Q728.3917,620.6448 729.7115,618.9929 Q731.0314,617.3411 733.5382,617.3411 Q734.2438,617.3411 734.8912,617.4905 Q735.5387,617.6399 736.1031,617.9388 L736.1031,620.6614 Q735.4723,620.0804 734.8788,619.8106 Q734.2853,619.5408 733.6544,619.5408 Q732.3097,619.5408 731.6249,620.6075 Q730.9401,621.6741 730.9401,623.7742 Q730.9401,625.866 731.6249,626.9326 Q732.3097,627.9993 733.6544,627.9993 Q734.2853,627.9993 734.8788,627.7295 Q735.4723,627.4597 736.1031,626.8787 Z " fill="#000000"/><text fill="#000000" font-family="sans-serif" font-size="14" lengthAdjust="spacing" textLength="20.4395" x="747.63" y="628.7493">Src</text><line style="stroke:#6B7280;stroke-width:0.5;" x1="719.63" x2="770.0695" y1="639.4583" y2="639.4583"/><line style="stroke:#6B7280;stroke-width:0.5;" x1="719.63" x2="770.0695" y1="647.4583" y2="647.4583"/></g><!--class Tmp--><g class="entity" data-qualified-name="P_RaiImage.Tmp" data-source-line="59" id="ent0038"><rect fill="#F9FAFB" height="48" rx="2.5" ry="2.5" style="stroke:#6B7280;stroke-width:0.5;" width="62.7344" x="441.49" y="778.4583"/><ellipse cx="456.49" cy="794.4583" fill="#ADD1B2" rx="11" ry="11" style="stroke:#181818;stroke-width:1;"/><path d="M458.9631,800.6013 Q458.3821,800.9002 457.7429,801.0496 Q457.1038,801.199 456.3982,801.199 Q453.8914,801.199 452.5715,799.5471 Q451.2517,797.8953 451.2517,794.7742 Q451.2517,791.6448 452.5715,789.9929 Q453.8914,788.3411 456.3982,788.3411 Q457.1038,788.3411 457.7512,788.4905 Q458.3987,788.6399 458.9631,788.9388 L458.9631,791.6614 Q458.3323,791.0804 457.7388,790.8106 Q457.1453,790.5408 456.5144,790.5408 Q455.1697,790.5408 454.4849,791.6075 Q453.8001,792.6741 453.8001,794.7742 Q453.8001,796.866 454.4849,797.9326 Q455.1697,798.9993 456.5144,798.9993 Q457.1453,798.9993 457.7388,798.7295 Q458.3323,798.4597 458.9631,797.8787 Z " fill="#000000"/><text fill="#000000" font-family="sans-serif" font-size="14" lengthAdjust="spacing" textLength="30.7344" x="470.49" y="799.7493">Tmp</text><line style="stroke:#6B7280;stroke-width:0.5;" x1="442.49" x2="503.2244" y1="810.4583" y2="810.4583"/><line style="stroke:#6B7280;stroke-width:0.5;" x1="442.49" x2="503.2244" y1="818.4583" y2="818.4583"/></g><!--class TwoSizes--><g class="entity" data-qualified-name="P_RaiImage.TwoSizes" data-source-line="60" id="ent0039"><rect fill="#F9FAFB" height="48" rx="2.5" ry="2.5" style="stroke:#6B7280;stroke-width:0.5;" width="94.7881" x="539.46" y="778.4583"/><ellipse cx="554.46" cy="794.4583" fill="#ADD1B2" rx="11" ry="11" style="stroke:#181818;stroke-width:1;"/><path d="M556.9331,800.6013 Q556.3521,800.9002 555.7129,801.0496 Q555.0738,801.199 554.3682,801.199 Q551.8614,801.199 550.5415,799.5471 Q549.2217,797.8953 549.2217,794.7742 Q549.2217,791.6448 550.5415,789.9929 Q551.8614,788.3411 554.3682,788.3411 Q555.0738,788.3411 555.7212,788.4905 Q556.3687,788.6399 556.9331,788.9388 L556.9331,791.6614 Q556.3023,791.0804 555.7088,790.8106 Q555.1153,790.5408 554.4844,790.5408 Q553.1397,790.5408 552.4549,791.6075 Q551.7701,792.6741 551.7701,794.7742 Q551.7701,796.866 552.4549,797.9326 Q553.1397,798.9993 554.4844,798.9993 Q555.1153,798.9993 555.7088,798.7295 Q556.3023,798.4597 556.9331,797.8787 Z " fill="#000000"/><text fill="#000000" font-family="sans-serif" font-size="14" lengthAdjust="spacing" textLength="62.7881" x="568.46" y="799.7493">TwoSizes</text><line style="stroke:#6B7280;stroke-width:0.5;" x1="540.46" x2="633.2481" y1="810.4583" y2="810.4583"/><line style="stroke:#6B7280;stroke-width:0.5;" x1="540.46" x2="633.2481" y1="818.4583" y2="818.4583"/></g><!--class CloudStorageAgreementTests--><g class="entity" data-qualified-name="T_OsLib.CloudStorageAgreementTests" data-source-line="64" id="ent0041"><rect fill="#F9FAFB" height="48" rx="2.5" ry="2.5" style="stroke:#6B7280;stroke-width:0.5;" width="233.8721" x="866.92" y="607.4583"/><ellipse cx="881.92" cy="623.4583" fill="#ADD1B2" rx="11" ry="11" style="stroke:#181818;stroke-width:1;"/><path d="M884.3931,629.6013 Q883.8121,629.9002 883.1729,630.0496 Q882.5338,630.199 881.8282,630.199 Q879.3214,630.199 878.0015,628.5471 Q876.6817,626.8953 876.6817,623.7742 Q876.6817,620.6448 878.0015,618.9929 Q879.3214,617.3411 881.8282,617.3411 Q882.5338,617.3411 883.1812,617.4905 Q883.8287,617.6399 884.3931,617.9388 L884.3931,620.6614 Q883.7623,620.0804 883.1688,619.8106 Q882.5753,619.5408 881.9444,619.5408 Q880.5997,619.5408 879.9149,620.6075 Q879.2301,621.6741 879.2301,623.7742 Q879.2301,625.866 879.9149,626.9326 Q880.5997,627.9993 881.9444,627.9993 Q882.5753,627.9993 883.1688,627.7295 Q883.7623,627.4597 884.3931,626.8787 Z " fill="#000000"/><text fill="#000000" font-family="sans-serif" font-size="14" lengthAdjust="spacing" textLength="201.8721" x="895.92" y="628.7493">CloudStorageAgreementTests</text><line style="stroke:#6B7280;stroke-width:0.5;" x1="867.92" x2="1099.7921" y1="639.4583" y2="639.4583"/><line style="stroke:#6B7280;stroke-width:0.5;" x1="867.92" x2="1099.7921" y1="647.4583" y2="647.4583"/></g><!--class CloudStorageDiscoveryTests--><g class="entity" data-qualified-name="T_OsLib.CloudStorageDiscoveryTests" data-source-line="65" id="ent0042"><rect fill="#F9FAFB" height="48" rx="2.5" ry="2.5" style="stroke:#6B7280;stroke-width:0.5;" width="224.8896" x="1135.41" y="607.4583"/><ellipse cx="1150.41" cy="623.4583" fill="#ADD1B2" rx="11" ry="11" style="stroke:#181818;stroke-width:1;"/><path d="M1152.8831,629.6013 Q1152.3021,629.9002 1151.6629,630.0496 Q1151.0238,630.199 1150.3182,630.199 Q1147.8114,630.199 1146.4915,628.5471 Q1145.1717,626.8953 1145.1717,623.7742 Q1145.1717,620.6448 1146.4915,618.9929 Q1147.8114,617.3411 1150.3182,617.3411 Q1151.0238,617.3411 1151.6712,617.4905 Q1152.3187,617.6399 1152.8831,617.9388 L1152.8831,620.6614 Q1152.2523,620.0804 1151.6588,619.8106 Q1151.0653,619.5408 1150.4344,619.5408 Q1149.0897,619.5408 1148.4049,620.6075 Q1147.7201,621.6741 1147.7201,623.7742 Q1147.7201,625.866 1148.4049,626.9326 Q1149.0897,627.9993 1150.4344,627.9993 Q1151.0653,627.9993 1151.6588,627.7295 Q1152.2523,627.4597 1152.8831,626.8787 Z " fill="#000000"/><text fill="#000000" font-family="sans-serif" font-size="14" lengthAdjust="spacing" textLength="192.8896" x="1164.41" y="628.7493">CloudStorageDiscoveryTests</text><line style="stroke:#6B7280;stroke-width:0.5;" x1="1136.41" x2="1359.2996" y1="639.4583" y2="639.4583"/><line style="stroke:#6B7280;stroke-width:0.5;" x1="1136.41" x2="1359.2996" y1="647.4583" y2="647.4583"/></g><!--class PathConventionsTests--><g class="entity" data-qualified-name="T_OsLib.PathConventionsTests" data-source-line="66" id="ent0043"><rect fill="#F9FAFB" height="48" rx="2.5" ry="2.5" style="stroke:#6B7280;stroke-width:0.5;" width="181.9736" x="892.87" y="778.4583"/><ellipse cx="907.87" cy="794.4583" fill="#ADD1B2" rx="11" ry="11" style="stroke:#181818;stroke-width:1;"/><path d="M910.3431,800.6013 Q909.7621,800.9002 909.1229,801.0496 Q908.4838,801.199 907.7782,801.199 Q905.2714,801.199 903.9515,799.5471 Q902.6317,797.8953 902.6317,794.7742 Q902.6317,791.6448 903.9515,789.9929 Q905.2714,788.3411 907.7782,788.3411 Q908.4838,788.3411 909.1312,788.4905 Q909.7787,788.6399 910.3431,788.9388 L910.3431,791.6614 Q909.7123,791.0804 909.1188,790.8106 Q908.5253,790.5408 907.8944,790.5408 Q906.5497,790.5408 905.8649,791.6075 Q905.1801,792.6741 905.1801,794.7742 Q905.1801,796.866 905.8649,797.9326 Q906.5497,798.9993 907.8944,798.9993 Q908.5253,798.9993 909.1188,798.7295 Q909.7123,798.4597 910.3431,797.8787 Z " fill="#000000"/><text fill="#000000" font-family="sans-serif" font-size="14" lengthAdjust="spacing" textLength="149.9736" x="921.87" y="799.7493">PathConventionsTests</text><line style="stroke:#6B7280;stroke-width:0.5;" x1="893.87" x2="1073.8436" y1="810.4583" y2="810.4583"/><line style="stroke:#6B7280;stroke-width:0.5;" x1="893.87" x2="1073.8436" y1="818.4583" y2="818.4583"/></g><!--class TmpFileTests--><g class="entity" data-qualified-name="T_OsLib.TmpFileTests" data-source-line="67" id="ent0044"><rect fill="#F9FAFB" height="48" rx="2.5" ry="2.5" style="stroke:#6B7280;stroke-width:0.5;" width="122.2959" x="1109.71" y="778.4583"/><ellipse cx="1124.71" cy="794.4583" fill="#ADD1B2" rx="11" ry="11" style="stroke:#181818;stroke-width:1;"/><path d="M1127.1831,800.6013 Q1126.6021,800.9002 1125.9629,801.0496 Q1125.3238,801.199 1124.6182,801.199 Q1122.1114,801.199 1120.7915,799.5471 Q1119.4717,797.8953 1119.4717,794.7742 Q1119.4717,791.6448 1120.7915,789.9929 Q1122.1114,788.3411 1124.6182,788.3411 Q1125.3238,788.3411 1125.9712,788.4905 Q1126.6187,788.6399 1127.1831,788.9388 L1127.1831,791.6614 Q1126.5523,791.0804 1125.9588,790.8106 Q1125.3653,790.5408 1124.7344,790.5408 Q1123.3897,790.5408 1122.7049,791.6075 Q1122.0201,792.6741 1122.0201,794.7742 Q1122.0201,796.866 1122.7049,797.9326 Q1123.3897,798.9993 1124.7344,798.9993 Q1125.3653,798.9993 1125.9588,798.7295 Q1126.5523,798.4597 1127.1831,797.8787 Z " fill="#000000"/><text fill="#000000" font-family="sans-serif" font-size="14" lengthAdjust="spacing" textLength="90.2959" x="1138.71" y="799.7493">TmpFileTests</text><line style="stroke:#6B7280;stroke-width:0.5;" x1="1110.71" x2="1231.0059" y1="810.4583" y2="810.4583"/><line style="stroke:#6B7280;stroke-width:0.5;" x1="1110.71" x2="1231.0059" y1="818.4583" y2="818.4583"/></g><!--class EmailTests--><g class="entity" data-qualified-name="T_RaiUtils.EmailTests" data-source-line="71" id="ent0046"><rect fill="#F9FAFB" height="48" rx="2.5" ry="2.5" style="stroke:#6B7280;stroke-width:0.5;" width="104.6455" x="1487.53" y="778.4583"/><ellipse cx="1502.53" cy="794.4583" fill="#ADD1B2" rx="11" ry="11" style="stroke:#181818;stroke-width:1;"/><path d="M1505.0031,800.6013 Q1504.4221,800.9002 1503.7829,801.0496 Q1503.1438,801.199 1502.4382,801.199 Q1499.9314,801.199 1498.6115,799.5471 Q1497.2917,797.8953 1497.2917,794.7742 Q1497.2917,791.6448 1498.6115,789.9929 Q1499.9314,788.3411 1502.4382,788.3411 Q1503.1438,788.3411 1503.7912,788.4905 Q1504.4387,788.6399 1505.0031,788.9388 L1505.0031,791.6614 Q1504.3723,791.0804 1503.7788,790.8106 Q1503.1853,790.5408 1502.5544,790.5408 Q1501.2097,790.5408 1500.5249,791.6075 Q1499.8401,792.6741 1499.8401,794.7742 Q1499.8401,796.866 1500.5249,797.9326 Q1501.2097,798.9993 1502.5544,798.9993 Q1503.1853,798.9993 1503.7788,798.7295 Q1504.3723,798.4597 1505.0031,797.8787 Z " fill="#000000"/><text fill="#000000" font-family="sans-serif" font-size="14" lengthAdjust="spacing" textLength="72.6455" x="1516.53" y="799.7493">EmailTests</text><line style="stroke:#6B7280;stroke-width:0.5;" x1="1488.53" x2="1591.1755" y1="810.4583" y2="810.4583"/><line style="stroke:#6B7280;stroke-width:0.5;" x1="1488.53" x2="1591.1755" y1="818.4583" y2="818.4583"/></g><!--class JsonConversionExtensionTests--><g class="entity" data-qualified-name="T_RaiUtils.JsonConversionExtensionTests" data-source-line="72" id="ent0047"><rect fill="#F9FAFB" height="48" rx="2.5" ry="2.5" style="stroke:#6B7280;stroke-width:0.5;" width="239.5322" x="1627.09" y="778.4583"/><ellipse cx="1642.09" cy="794.4583" fill="#ADD1B2" rx="11" ry="11" style="stroke:#181818;stroke-width:1;"/><path d="M1644.5631,800.6013 Q1643.9821,800.9002 1643.3429,801.0496 Q1642.7038,801.199 1641.9982,801.199 Q1639.4914,801.199 1638.1715,799.5471 Q1636.8517,797.8953 1636.8517,794.7742 Q1636.8517,791.6448 1638.1715,789.9929 Q1639.4914,788.3411 1641.9982,788.3411 Q1642.7038,788.3411 1643.3512,788.4905 Q1643.9987,788.6399 1644.5631,788.9388 L1644.5631,791.6614 Q1643.9323,791.0804 1643.3388,790.8106 Q1642.7453,790.5408 1642.1144,790.5408 Q1640.7697,790.5408 1640.0849,791.6075 Q1639.4001,792.6741 1639.4001,794.7742 Q1639.4001,796.866 1640.0849,797.9326 Q1640.7697,798.9993 1642.1144,798.9993 Q1642.7453,798.9993 1643.3388,798.7295 Q1643.9323,798.4597 1644.5631,797.8787 Z " fill="#000000"/><text fill="#000000" font-family="sans-serif" font-size="14" lengthAdjust="spacing" textLength="207.5322" x="1656.09" y="799.7493">JsonConversionExtensionTests</text><line style="stroke:#6B7280;stroke-width:0.5;" x1="1628.09" x2="1865.6222" y1="810.4583" y2="810.4583"/><line style="stroke:#6B7280;stroke-width:0.5;" x1="1628.09" x2="1865.6222" y1="818.4583" y2="818.4583"/></g><!--class ParameterDictionaryTests--><g class="entity" data-qualified-name="T_RaiUtils.ParameterDictionaryTests" data-source-line="73" id="ent0048"><rect fill="#F9FAFB" height="48" rx="2.5" ry="2.5" style="stroke:#6B7280;stroke-width:0.5;" width="205.7764" x="1901.97" y="778.4583"/><ellipse cx="1916.97" cy="794.4583" fill="#ADD1B2" rx="11" ry="11" style="stroke:#181818;stroke-width:1;"/><path d="M1919.4431,800.6013 Q1918.8621,800.9002 1918.2229,801.0496 Q1917.5838,801.199 1916.8782,801.199 Q1914.3714,801.199 1913.0515,799.5471 Q1911.7317,797.8953 1911.7317,794.7742 Q1911.7317,791.6448 1913.0515,789.9929 Q1914.3714,788.3411 1916.8782,788.3411 Q1917.5838,788.3411 1918.2312,788.4905 Q1918.8787,788.6399 1919.4431,788.9388 L1919.4431,791.6614 Q1918.8123,791.0804 1918.2188,790.8106 Q1917.6253,790.5408 1916.9944,790.5408 Q1915.6497,790.5408 1914.9649,791.6075 Q1914.2801,792.6741 1914.2801,794.7742 Q1914.2801,796.866 1914.9649,797.9326 Q1915.6497,798.9993 1916.9944,798.9993 Q1917.6253,798.9993 1918.2188,798.7295 Q1918.8123,798.4597 1919.4431,797.8787 Z " fill="#000000"/><text fill="#000000" font-family="sans-serif" font-size="14" lengthAdjust="spacing" textLength="173.7764" x="1930.97" y="799.7493">ParameterDictionaryTests</text><line style="stroke:#6B7280;stroke-width:0.5;" x1="1902.97" x2="2106.7464" y1="810.4583" y2="810.4583"/><line style="stroke:#6B7280;stroke-width:0.5;" x1="1902.97" x2="2106.7464" y1="818.4583" y2="818.4583"/></g><!--class RandomExtensionsTests--><g class="entity" data-qualified-name="T_RaiUtils.RandomExtensionsTests" data-source-line="74" id="ent0049"><rect fill="#F9FAFB" height="48" rx="2.5" ry="2.5" style="stroke:#6B7280;stroke-width:0.5;" width="197.4229" x="1488.14" y="949.4583"/><ellipse cx="1503.14" cy="965.4583" fill="#ADD1B2" rx="11" ry="11" style="stroke:#181818;stroke-width:1;"/><path d="M1505.6131,971.6013 Q1505.0321,971.9002 1504.3929,972.0496 Q1503.7538,972.199 1503.0482,972.199 Q1500.5414,972.199 1499.2215,970.5471 Q1497.9017,968.8953 1497.9017,965.7742 Q1497.9017,962.6448 1499.2215,960.9929 Q1500.5414,959.3411 1503.0482,959.3411 Q1503.7538,959.3411 1504.4012,959.4905 Q1505.0487,959.6399 1505.6131,959.9388 L1505.6131,962.6614 Q1504.9823,962.0804 1504.3888,961.8106 Q1503.7953,961.5408 1503.1644,961.5408 Q1501.8197,961.5408 1501.1349,962.6075 Q1500.4501,963.6741 1500.4501,965.7742 Q1500.4501,967.866 1501.1349,968.9326 Q1501.8197,969.9993 1503.1644,969.9993 Q1503.7953,969.9993 1504.3888,969.7295 Q1504.9823,969.4597 1505.6131,968.8787 Z " fill="#000000"/><text fill="#000000" font-family="sans-serif" font-size="14" lengthAdjust="spacing" textLength="165.4229" x="1517.14" y="970.7493">RandomExtensionsTests</text><line style="stroke:#6B7280;stroke-width:0.5;" x1="1489.14" x2="1684.5629" y1="981.4583" y2="981.4583"/><line style="stroke:#6B7280;stroke-width:0.5;" x1="1489.14" x2="1684.5629" y1="989.4583" y2="989.4583"/></g><!--class SearchExpressionTests--><g class="entity" data-qualified-name="T_RaiUtils.SearchExpressionTests" data-source-line="75" id="ent0050"><rect fill="#F9FAFB" height="48" rx="2.5" ry="2.5" style="stroke:#6B7280;stroke-width:0.5;" width="186.9434" x="1720.38" y="949.4583"/><ellipse cx="1735.38" cy="965.4583" fill="#ADD1B2" rx="11" ry="11" style="stroke:#181818;stroke-width:1;"/><path d="M1737.8531,971.6013 Q1737.2721,971.9002 1736.6329,972.0496 Q1735.9938,972.199 1735.2882,972.199 Q1732.7814,972.199 1731.4615,970.5471 Q1730.1417,968.8953 1730.1417,965.7742 Q1730.1417,962.6448 1731.4615,960.9929 Q1732.7814,959.3411 1735.2882,959.3411 Q1735.9938,959.3411 1736.6412,959.4905 Q1737.2887,959.6399 1737.8531,959.9388 L1737.8531,962.6614 Q1737.2223,962.0804 1736.6288,961.8106 Q1736.0353,961.5408 1735.4044,961.5408 Q1734.0597,961.5408 1733.3749,962.6075 Q1732.6901,963.6741 1732.6901,965.7742 Q1732.6901,967.866 1733.3749,968.9326 Q1734.0597,969.9993 1735.4044,969.9993 Q1736.0353,969.9993 1736.6288,969.7295 Q1737.2223,969.4597 1737.8531,968.8787 Z " fill="#000000"/><text fill="#000000" font-family="sans-serif" font-size="14" lengthAdjust="spacing" textLength="154.9434" x="1749.38" y="970.7493">SearchExpressionTests</text><line style="stroke:#6B7280;stroke-width:0.5;" x1="1721.38" x2="1906.3234" y1="981.4583" y2="981.4583"/><line style="stroke:#6B7280;stroke-width:0.5;" x1="1721.38" x2="1906.3234" y1="989.4583" y2="989.4583"/></g><!--class UnitTests--><g class="entity" data-qualified-name="T_JsonPit.UnitTests" data-source-line="79" id="ent0052"><rect fill="#F9FAFB" height="48" rx="2.5" ry="2.5" style="stroke:#6B7280;stroke-width:0.5;" width="95.834" x="796.94" y="949.4583"/><ellipse cx="811.94" cy="965.4583" fill="#ADD1B2" rx="11" ry="11" style="stroke:#181818;stroke-width:1;"/><path d="M814.4131,971.6013 Q813.8321,971.9002 813.1929,972.0496 Q812.5538,972.199 811.8482,972.199 Q809.3414,972.199 808.0215,970.5471 Q806.7017,968.8953 806.7017,965.7742 Q806.7017,962.6448 808.0215,960.9929 Q809.3414,959.3411 811.8482,959.3411 Q812.5538,959.3411 813.2012,959.4905 Q813.8487,959.6399 814.4131,959.9388 L814.4131,962.6614 Q813.7823,962.0804 813.1888,961.8106 Q812.5953,961.5408 811.9644,961.5408 Q810.6197,961.5408 809.9349,962.6075 Q809.2501,963.6741 809.2501,965.7742 Q809.2501,967.866 809.9349,968.9326 Q810.6197,969.9993 811.9644,969.9993 Q812.5953,969.9993 813.1888,969.7295 Q813.7823,969.4597 814.4131,968.8787 Z " fill="#000000"/><text fill="#000000" font-family="sans-serif" font-size="14" lengthAdjust="spacing" textLength="63.834" x="825.94" y="970.7493">UnitTests</text><line style="stroke:#6B7280;stroke-width:0.5;" x1="797.94" x2="891.774" y1="981.4583" y2="981.4583"/><line style="stroke:#6B7280;stroke-width:0.5;" x1="797.94" x2="891.774" y1="989.4583" y2="989.4583"/></g><!--class PitAddConcurrencyTests--><g class="entity" data-qualified-name="T_JsonPit.PitAddConcurrencyTests" data-source-line="80" id="ent0053"><rect fill="#F9FAFB" height="48" rx="2.5" ry="2.5" style="stroke:#6B7280;stroke-width:0.5;" width="197.7305" x="927.99" y="949.4583"/><ellipse cx="942.99" cy="965.4583" fill="#ADD1B2" rx="11" ry="11" style="stroke:#181818;stroke-width:1;"/><path d="M945.4631,971.6013 Q944.8821,971.9002 944.2429,972.0496 Q943.6038,972.199 942.8982,972.199 Q940.3914,972.199 939.0715,970.5471 Q937.7517,968.8953 937.7517,965.7742 Q937.7517,962.6448 939.0715,960.9929 Q940.3914,959.3411 942.8982,959.3411 Q943.6038,959.3411 944.2512,959.4905 Q944.8987,959.6399 945.4631,959.9388 L945.4631,962.6614 Q944.8323,962.0804 944.2388,961.8106 Q943.6453,961.5408 943.0144,961.5408 Q941.6697,961.5408 940.9849,962.6075 Q940.3001,963.6741 940.3001,965.7742 Q940.3001,967.866 940.9849,968.9326 Q941.6697,969.9993 943.0144,969.9993 Q943.6453,969.9993 944.2388,969.7295 Q944.8323,969.4597 945.4631,968.8787 Z " fill="#000000"/><text fill="#000000" font-family="sans-serif" font-size="14" lengthAdjust="spacing" textLength="165.7305" x="956.99" y="970.7493">PitAddConcurrencyTests</text><line style="stroke:#6B7280;stroke-width:0.5;" x1="928.99" x2="1124.7205" y1="981.4583" y2="981.4583"/><line style="stroke:#6B7280;stroke-width:0.5;" x1="928.99" x2="1124.7205" y1="989.4583" y2="989.4583"/></g><!--class PitItemSetPropertyChangeDetectionTests--><g class="entity" data-qualified-name="T_JsonPit.PitItemSetPropertyChangeDetectionTests" data-source-line="81" id="ent0054"><rect fill="#F9FAFB" height="48" rx="2.5" ry="2.5" style="stroke:#6B7280;stroke-width:0.5;" width="309.2451" x="797.23" y="1120.4583"/><ellipse cx="812.23" cy="1136.4583" fill="#ADD1B2" rx="11" ry="11" style="stroke:#181818;stroke-width:1;"/><path d="M814.7031,1142.6013 Q814.1221,1142.9002 813.4829,1143.0496 Q812.8438,1143.199 812.1382,1143.199 Q809.6314,1143.199 808.3115,1141.5471 Q806.9917,1139.8953 806.9917,1136.7742 Q806.9917,1133.6448 808.3115,1131.9929 Q809.6314,1130.3411 812.1382,1130.3411 Q812.8438,1130.3411 813.4912,1130.4905 Q814.1387,1130.6399 814.7031,1130.9388 L814.7031,1133.6614 Q814.0723,1133.0804 813.4788,1132.8106 Q812.8853,1132.5408 812.2544,1132.5408 Q810.9097,1132.5408 810.2249,1133.6075 Q809.5401,1134.6741 809.5401,1136.7742 Q809.5401,1138.866 810.2249,1139.9326 Q810.9097,1140.9993 812.2544,1140.9993 Q812.8853,1140.9993 813.4788,1140.7295 Q814.0723,1140.4597 814.7031,1139.8787 Z " fill="#000000"/><text fill="#000000" font-family="sans-serif" font-size="14" lengthAdjust="spacing" textLength="277.2451" x="826.23" y="1141.7493">PitItemSetPropertyChangeDetectionTests</text><line style="stroke:#6B7280;stroke-width:0.5;" x1="798.23" x2="1105.4751" y1="1152.4583" y2="1152.4583"/><line style="stroke:#6B7280;stroke-width:0.5;" x1="798.23" x2="1105.4751" y1="1160.4583" y2="1160.4583"/></g><!--class ImageFileTests--><g class="entity" data-qualified-name="T_RaiImage.ImageFileTests" data-source-line="85" id="ent0056"><rect fill="#F9FAFB" height="48" rx="2.5" ry="2.5" style="stroke:#6B7280;stroke-width:0.5;" width="132.9258" x="1232.39" y="1120.4583"/><ellipse cx="1247.39" cy="1136.4583" fill="#ADD1B2" rx="11" ry="11" style="stroke:#181818;stroke-width:1;"/><path d="M1249.8631,1142.6013 Q1249.2821,1142.9002 1248.6429,1143.0496 Q1248.0038,1143.199 1247.2982,1143.199 Q1244.7914,1143.199 1243.4715,1141.5471 Q1242.1517,1139.8953 1242.1517,1136.7742 Q1242.1517,1133.6448 1243.4715,1131.9929 Q1244.7914,1130.3411 1247.2982,1130.3411 Q1248.0038,1130.3411 1248.6512,1130.4905 Q1249.2987,1130.6399 1249.8631,1130.9388 L1249.8631,1133.6614 Q1249.2323,1133.0804 1248.6388,1132.8106 Q1248.0453,1132.5408 1247.4144,1132.5408 Q1246.0697,1132.5408 1245.3849,1133.6075 Q1244.7001,1134.6741 1244.7001,1136.7742 Q1244.7001,1138.866 1245.3849,1139.9326 Q1246.0697,1140.9993 1247.4144,1140.9993 Q1248.0453,1140.9993 1248.6388,1140.7295 Q1249.2323,1140.4597 1249.8631,1139.8787 Z " fill="#000000"/><text fill="#000000" font-family="sans-serif" font-size="14" lengthAdjust="spacing" textLength="100.9258" x="1261.39" y="1141.7493">ImageFileTests</text><line style="stroke:#6B7280;stroke-width:0.5;" x1="1233.39" x2="1364.3158" y1="1152.4583" y2="1152.4583"/><line style="stroke:#6B7280;stroke-width:0.5;" x1="1233.39" x2="1364.3158" y1="1160.4583" y2="1160.4583"/></g><!--class ImageTreeFileTests--><g class="entity" data-qualified-name="T_RaiImage.ImageTreeFileTests" data-source-line="86" id="ent0057"><rect fill="#F9FAFB" height="48" rx="2.5" ry="2.5" style="stroke:#6B7280;stroke-width:0.5;" width="163.1064" x="1400.3" y="1120.4583"/><ellipse cx="1415.3" cy="1136.4583" fill="#ADD1B2" rx="11" ry="11" style="stroke:#181818;stroke-width:1;"/><path d="M1417.7731,1142.6013 Q1417.1921,1142.9002 1416.5529,1143.0496 Q1415.9138,1143.199 1415.2082,1143.199 Q1412.7014,1143.199 1411.3815,1141.5471 Q1410.0617,1139.8953 1410.0617,1136.7742 Q1410.0617,1133.6448 1411.3815,1131.9929 Q1412.7014,1130.3411 1415.2082,1130.3411 Q1415.9138,1130.3411 1416.5612,1130.4905 Q1417.2087,1130.6399 1417.7731,1130.9388 L1417.7731,1133.6614 Q1417.1423,1133.0804 1416.5488,1132.8106 Q1415.9553,1132.5408 1415.3244,1132.5408 Q1413.9797,1132.5408 1413.2949,1133.6075 Q1412.6101,1134.6741 1412.6101,1136.7742 Q1412.6101,1138.866 1413.2949,1139.9326 Q1413.9797,1140.9993 1415.3244,1140.9993 Q1415.9553,1140.9993 1416.5488,1140.7295 Q1417.1423,1140.4597 1417.7731,1139.8787 Z " fill="#000000"/><text fill="#000000" font-family="sans-serif" font-size="14" lengthAdjust="spacing" textLength="131.1064" x="1429.3" y="1141.7493">ImageTreeFileTests</text><line style="stroke:#6B7280;stroke-width:0.5;" x1="1401.3" x2="1562.4064" y1="1152.4583" y2="1152.4583"/><line style="stroke:#6B7280;stroke-width:0.5;" x1="1401.3" x2="1562.4064" y1="1160.4583" y2="1160.4583"/></g><!--class ImageMagickTests--><g class="entity" data-qualified-name="T_RaiImage.ImageMagickTests" data-source-line="87" id="ent0058"><rect fill="#F9FAFB" height="48" rx="2.5" ry="2.5" style="stroke:#6B7280;stroke-width:0.5;" width="157.4463" x="1233.13" y="1228.4583"/><ellipse cx="1248.13" cy="1244.4583" fill="#ADD1B2" rx="11" ry="11" style="stroke:#181818;stroke-width:1;"/><path d="M1250.6031,1250.6013 Q1250.0221,1250.9002 1249.3829,1251.0496 Q1248.7438,1251.199 1248.0382,1251.199 Q1245.5314,1251.199 1244.2115,1249.5471 Q1242.8917,1247.8953 1242.8917,1244.7742 Q1242.8917,1241.6448 1244.2115,1239.9929 Q1245.5314,1238.3411 1248.0382,1238.3411 Q1248.7438,1238.3411 1249.3912,1238.4905 Q1250.0387,1238.6399 1250.6031,1238.9388 L1250.6031,1241.6614 Q1249.9723,1241.0804 1249.3788,1240.8106 Q1248.7853,1240.5408 1248.1544,1240.5408 Q1246.8097,1240.5408 1246.1249,1241.6075 Q1245.4401,1242.6741 1245.4401,1244.7742 Q1245.4401,1246.866 1246.1249,1247.9326 Q1246.8097,1248.9993 1248.1544,1248.9993 Q1248.7853,1248.9993 1249.3788,1248.7295 Q1249.9723,1248.4597 1250.6031,1247.8787 Z " fill="#000000"/><text fill="#000000" font-family="sans-serif" font-size="14" lengthAdjust="spacing" textLength="125.4463" x="1262.13" y="1249.7493">ImageMagickTests</text><line style="stroke:#6B7280;stroke-width:0.5;" x1="1234.13" x2="1389.5763" y1="1260.4583" y2="1260.4583"/><line style="stroke:#6B7280;stroke-width:0.5;" x1="1234.13" x2="1389.5763" y1="1268.4583" y2="1268.4583"/></g><g class="entity" data-qualified-name="GMN76" data-source-line="113" id="ent0077"><path d="M6,91.1783 L6,131.7994 L295.709,131.7994 L295.709,101.1783 L285.709,91.1783 L6,91.1783" fill="#FFF7D6" style="stroke:#D4B106;stroke-width:0.5;"/><path d="M285.709,91.1783 L285.709,101.1783 L295.709,101.1783 L285.709,91.1783" fill="#FFF7D6" style="stroke:#D4B106;stroke-width:1;"/><text fill="#000000" font-family="sans-serif" font-size="13" lengthAdjust="spacing" textLength="206.2163" x="12" y="108.7466">Foundation library for OS, paths,</text><text fill="#000000" font-family="sans-serif" font-size="13" lengthAdjust="spacing" textLength="268.709" x="12" y="124.0572">files, temp files, and cloud-root discovery.</text></g><g class="entity" data-qualified-name="GMN79" data-source-line="118" id="ent0080"><path d="M1349.57,83.5283 L1349.57,139.4599 L1594.1345,139.4599 L1594.1345,93.5283 L1584.1345,83.5283 L1349.57,83.5283" fill="#FFF7D6" style="stroke:#D4B106;stroke-width:0.5;"/><path d="M1584.1345,83.5283 L1584.1345,93.5283 L1594.1345,93.5283 L1584.1345,83.5283" fill="#FFF7D6" style="stroke:#D4B106;stroke-width:1;"/><text fill="#000000" font-family="sans-serif" font-size="13" lengthAdjust="spacing" textLength="223.5645" x="1355.57" y="101.0966">Utility library with JSON conversion,</text><text fill="#000000" font-family="sans-serif" font-size="13" lengthAdjust="spacing" textLength="211.2373" x="1355.57" y="116.4072">randomization, parameter, email,</text><text fill="#000000" font-family="sans-serif" font-size="13" lengthAdjust="spacing" textLength="123.3032" x="1355.57" y="131.7177">and search helpers.</text></g><g class="entity" data-qualified-name="GMN82" data-source-line="124" id="ent0083"><path d="M2335.42,480.1483 L2335.42,520.7694 L2650.2911,520.7694 L2650.2911,490.1483 L2640.2911,480.1483 L2335.42,480.1483" fill="#FFF7D6" style="stroke:#D4B106;stroke-width:0.5;"/><path d="M2640.2911,480.1483 L2640.2911,490.1483 L2650.2911,490.1483 L2640.2911,480.1483" fill="#FFF7D6" style="stroke:#D4B106;stroke-width:1;"/><text fill="#000000" font-family="sans-serif" font-size="13" lengthAdjust="spacing" textLength="293.8711" x="2341.42" y="497.7166">JsonPit depends directly on OsLib and RaiUtils.</text><text fill="#000000" font-family="sans-serif" font-size="13" lengthAdjust="spacing" textLength="269.2295" x="2341.42" y="513.0272">Its tests also exercise those dependencies.</text></g><g class="entity" data-qualified-name="GMN85" data-source-line="129" id="ent0086"><path d="M1431.62,603.4883 L1431.62,659.4199 L1736.0873,659.4199 L1736.0873,613.4883 L1726.0873,603.4883 L1431.62,603.4883" fill="#FFF7D6" style="stroke:#D4B106;stroke-width:0.5;"/><path d="M1726.0873,603.4883 L1726.0873,613.4883 L1736.0873,613.4883 L1726.0873,603.4883" fill="#FFF7D6" style="stroke:#D4B106;stroke-width:1;"/><text fill="#000000" font-family="sans-serif" font-size="13" lengthAdjust="spacing" textLength="283.4673" x="1437.62" y="621.0566">RaiImage references OsLib and RaiUtils when</text><text fill="#000000" font-family="sans-serif" font-size="13" lengthAdjust="spacing" textLength="282.2104" x="1437.62" y="636.3672">local projects are available, and can fall back</text><text fill="#000000" font-family="sans-serif" font-size="13" lengthAdjust="spacing" textLength="251.5957" x="1437.62" y="651.6777">to NuGet package references otherwise.</text></g><!--link P_OsLib to P_RaiUtils--><!--link P_RaiUtils to P_JsonPit--><!--link P_JsonPit to P_RaiUtils--><g class="link" data-entity-1="ent0019" data-entity-2="ent0013" data-link-type="dependency" data-source-line="99" id="lnk67"><path codeLine="99" d="M2303.85,278.1775 C2303.85,277.9662 2303.85,277.7551 2303.85,277.5442 C2303.85,277.1223 2303.85,276.7012 2303.85,276.281 C2303.85,275.4406 2303.85,274.6036 2303.85,273.7709 C2303.85,270.44 2303.85,267.1768 2303.85,264.03 C2303.85,257.7365 2303.85,251.9084 2303.85,246.9348 C2303.85,236.9877 2303.85,230.4583 2303.85,230.4583 C2303.85,230.4583 2102.3,230.4583 1897.6013,230.4583 C1795.2519,230.4583 1692.1153,230.4583 1612.9917,230.4583 C1573.4299,230.4583 1539.8714,230.4583 1515.4161,230.4583 C1503.1884,230.4583 1493.2366,230.4583 1485.9481,230.4583 C1484.126,230.4583 1482.4703,230.4583 1480.9871,230.4583 C1480.6163,230.4583 1486.2563,230.4583 1485.9072,230.4583" fill="none" id="P_JsonPit-to-P_RaiUtils" style="stroke:#4B5563;stroke-width:1;stroke-dasharray:7,7;"/><polygon fill="#4B5563" points="1479.9072,230.4583,1488.9072,234.4583,1484.9072,230.4583,1488.9072,226.4583,1479.9072,230.4583" style="stroke:#4B5563;stroke-width:1;"/><text fill="#000000" font-family="sans-serif" font-size="13" lengthAdjust="spacing" textLength="105.2251" x="1839.29" y="227.0266">ProjectReference</text></g><!--link P_JsonPit to P_RaiImage--><!--link P_RaiImage to T_OsLib--><!--link T_OsLib to T_RaiUtils--><!--link T_RaiUtils to T_JsonPit--><!--link T_JsonPit to T_RaiImage--><!--link P_JsonPit to P_OsLib--><g class="link" data-entity-1="ent0019" data-entity-2="ent0002" data-link-type="dependency" data-source-line="98" id="lnk66"><path codeLine="98" d="M2312.0265,345.4583 C2312.1821,345.4583 2312.3397,345.4583 2312.4993,345.4583 C2313.7758,345.4583 2315.1788,345.4583 2316.6979,345.4583 C2322.7743,345.4583 2330.7096,345.4583 2339.8486,345.4583 C2358.1266,345.4583 2381.2194,345.4583 2403.8863,345.4583 C2449.22,345.4583 2492.85,345.4583 2492.85,345.4583 C2492.85,345.4583 2492.85,276.4583 2492.85,276.4583 C2492.85,276.4583 860.56,276.4583 860.56,276.4583 C860.56,276.4583 860.56,111.4583 860.56,111.4583 C860.56,111.4583 857.9375,111.4583 854.9863,111.4583 C854.9632,111.4583 860.9401,111.4583 860.917,111.4583" fill="none" id="P_JsonPit-to-P_OsLib" style="stroke:#4B5563;stroke-width:1;stroke-dasharray:7,7;"/><polygon fill="#4B5563" points="854.917,111.4583,863.917,115.4583,859.917,111.4583,863.917,107.4583,854.917,111.4583" style="stroke:#4B5563;stroke-width:1;"/><text fill="#000000" font-family="sans-serif" font-size="13" lengthAdjust="spacing" textLength="105.2251" x="1610.23" y="273.0266">ProjectReference</text></g><!--link P_RaiImage to P_OsLib--><g class="link" data-entity-1="ent0029" data-entity-2="ent0002" data-link-type="dependency" data-source-line="101" id="lnk68"><path codeLine="101" d="M802.8819,500.4583 C802.9528,500.4583 803.0239,500.4583 803.0955,500.4583 C803.3815,500.4583 803.673,500.4583 803.9697,500.4583 C804.5631,500.4583 805.1771,500.4583 805.8091,500.4583 C810.865,500.4583 817.0738,500.4583 823.105,500.4583 C835.1675,500.4583 846.52,500.4583 846.52,500.4583 C846.52,500.4583 846.52,477.2739 846.52,442.2256 C846.52,433.4636 846.52,423.96 846.52,413.8918 C846.52,408.8577 846.52,403.6825 846.52,398.3882 C846.52,397.0646 846.52,401.7336 846.52,400.3955" fill="none" id="P_RaiImage-to-P_OsLib" style="stroke:#4B5563;stroke-width:1;stroke-dasharray:7,7;"/><polygon fill="#4B5563" points="846.52,394.3955,842.52,403.3955,846.52,399.3955,850.52,403.3955,846.52,394.3955" style="stroke:#4B5563;stroke-width:1;"/><text fill="#000000" font-family="sans-serif" font-size="13" lengthAdjust="spacing" textLength="105.2251" x="740.52" y="328.4066">ProjectReference</text></g><!--link P_RaiImage to P_RaiUtils--><g class="link" data-entity-1="ent0029" data-entity-2="ent0013" data-link-type="dependency" data-source-line="102" id="lnk69"><path codeLine="102" d="M794.85,433.4558 C794.85,432.7341 794.85,432.0098 794.85,431.283 C794.85,419.6548 794.85,407.4048 794.85,395.247 C794.85,346.6158 794.85,299.4583 794.85,299.4583 C794.85,299.4583 805.2345,299.4583 823.4075,299.4583 C832.4939,299.4583 843.5275,299.4583 856.1836,299.4583 C862.5117,299.4583 869.2454,299.4583 876.3442,299.4583 C879.8936,299.4583 883.5343,299.4583 887.2612,299.4583 C889.1246,299.4583 885.0096,299.4583 886.9155,299.4583" fill="none" id="P_RaiImage-to-P_RaiUtils" style="stroke:#4B5563;stroke-width:1;stroke-dasharray:7,7;"/><polygon fill="#4B5563" points="892.9155,299.4583,883.9155,295.4583,887.9155,299.4583,883.9155,303.4583,892.9155,299.4583" style="stroke:#4B5563;stroke-width:1;"/><text fill="#000000" font-family="sans-serif" font-size="13" lengthAdjust="spacing" textLength="105.2251" x="961.24" y="296.0266">ProjectReference</text></g><!--link T_OsLib to P_OsLib--><g class="link" data-entity-1="ent0040" data-entity-2="ent0002" data-link-type="dependency" data-source-line="104" id="lnk70"><path codeLine="104" d="M1382.16,547.8607 C1382.16,547.6112 1382.16,547.3621 1382.16,547.1133 C1382.16,545.1233 1382.16,543.1575 1382.16,541.2239 C1382.16,533.4895 1382.16,526.2708 1382.16,520.0833 C1382.16,507.7083 1382.16,499.4583 1382.16,499.4583 C1382.16,499.4583 884.15,499.4583 884.15,499.4583 C884.15,499.4583 884.15,111.4583 884.15,111.4583 C884.15,111.4583 876.225,111.4583 867.6813,111.4583 C863.4094,111.4583 858.9828,111.4583 855.3148,111.4583 C855.2002,111.4583 861.0863,111.4583 860.9732,111.4583" fill="none" id="T_OsLib-to-P_OsLib" style="stroke:#4B5563;stroke-width:1;stroke-dasharray:7,7;"/><polygon fill="#4B5563" points="854.9732,111.4583,863.9732,115.4583,859.9732,111.4583,863.9732,107.4583,854.9732,111.4583" style="stroke:#4B5563;stroke-width:1;"/><text fill="#000000" font-family="sans-serif" font-size="13" lengthAdjust="spacing" textLength="30.2212" x="962.38" y="496.0266">tests</text></g><!--link T_RaiUtils to P_RaiUtils--><g class="link" data-entity-1="ent0045" data-entity-2="ent0013" data-link-type="dependency" data-source-line="105" id="lnk71"><path codeLine="105" d="M1451.85,719.4252 C1451.85,719.3881 1451.85,719.3521 1451.85,719.317 C1451.85,718.7564 1451.85,718.4583 1451.85,718.4583 C1451.85,718.4583 1415.96,718.4583 1415.96,718.4583 C1415.96,718.4583 1415.96,583.4583 1415.96,583.4583 C1415.96,583.4583 1472.19,583.4583 1472.19,583.4583 C1472.19,583.4583 1472.19,499.2958 1472.19,413.1608 C1472.19,407.7773 1472.19,402.3862 1472.19,397.0074 C1472.19,396.3351 1472.19,401.6629 1472.19,400.991" fill="none" id="T_RaiUtils-to-P_RaiUtils" style="stroke:#4B5563;stroke-width:1;stroke-dasharray:7,7;"/><polygon fill="#4B5563" points="1472.19,394.991,1468.19,403.991,1472.19,399.991,1476.19,403.991,1472.19,394.991" style="stroke:#4B5563;stroke-width:1;"/><text fill="#000000" font-family="sans-serif" font-size="13" lengthAdjust="spacing" textLength="30.2212" x="1441.19" y="559.1066">tests</text></g><!--link T_RaiImage to P_RaiImage--><g class="link" data-entity-1="ent0055" data-entity-2="ent0029" data-link-type="dependency" data-source-line="106" id="lnk72"><path codeLine="106" d="M1206.11,1198.4583 C1202.9688,1198.4583 1199.8269,1198.4583 1196.685,1198.4583 C995.6025,1198.4583 794.52,1198.4583 794.52,1198.4583 C794.52,1198.4583 794.52,1030.7083 794.52,859.682 C794.52,857.0097 794.52,860.3367 794.52,857.6634" fill="none" id="T_RaiImage-to-P_RaiImage" style="stroke:#4B5563;stroke-width:1;stroke-dasharray:7,7;"/><polygon fill="#4B5563" points="794.52,851.6634,790.52,860.6634,794.52,856.6634,798.52,860.6634,794.52,851.6634" style="stroke:#4B5563;stroke-width:1;"/><text fill="#000000" font-family="sans-serif" font-size="13" lengthAdjust="spacing" textLength="30.2212" x="843.78" y="1195.0266">tests</text></g><!--link T_JsonPit to P_JsonPit--><g class="link" data-entity-1="ent0051" data-entity-2="ent0019" data-link-type="dependency" data-source-line="108" id="lnk73"><path codeLine="108" d="M1160.52,890.0688 C1160.52,887.4275 1160.52,884.9384 1160.52,882.6461 C1160.52,873.477 1160.52,867.4583 1160.52,867.4583 C1160.52,867.4583 2320.14,867.4583 2320.14,867.4583 C2320.14,867.4583 2320.14,345.4583 2320.14,345.4583 C2320.14,345.4583 2317.0225,345.4583 2313.515,345.4583 C2313.0766,345.4583 2312.632,345.4583 2312.1867,345.4583 C2312.0754,345.4583 2317.964,345.4583 2317.8527,345.4583" fill="none" id="T_JsonPit-to-P_JsonPit" style="stroke:#4B5563;stroke-width:1;stroke-dasharray:7,7;"/><polygon fill="#4B5563" points="2311.8527,345.4583,2320.8527,349.4583,2316.8527,345.4583,2320.8527,341.4583,2311.8527,345.4583" style="stroke:#4B5563;stroke-width:1;"/><text fill="#000000" font-family="sans-serif" font-size="13" lengthAdjust="spacing" textLength="30.2212" x="1925.46" y="864.0266">tests</text></g><!--link T_JsonPit to P_OsLib--><g class="link" data-entity-1="ent0051" data-entity-2="ent0002" data-link-type="dependency" data-source-line="109" id="lnk74"><path codeLine="109" d="M847.19,889.3487 C847.19,885.2413 847.19,880.519 847.19,875.2281 C847.19,854.0645 847.19,823.8038 847.19,787.4156 C847.19,714.6392 847.19,617.3527 847.19,519.312 C847.19,494.8019 847.19,470.2446 847.19,446.0114 C847.19,433.8948 847.19,421.8592 847.19,409.951 C847.19,406.9739 847.19,404.0048 847.19,401.0444 C847.19,399.5643 847.19,398.0862 847.19,396.6105 C847.19,395.8726 847.19,401.1353 847.19,400.3985" fill="none" id="T_JsonPit-to-P_OsLib" style="stroke:#4B5563;stroke-width:1;stroke-dasharray:7,7;"/><polygon fill="#4B5563" points="847.19,394.3985,843.19,403.3985,847.19,399.3985,851.19,403.3985,847.19,394.3985" style="stroke:#4B5563;stroke-width:1;"/><text fill="#000000" font-family="sans-serif" font-size="13" lengthAdjust="spacing" textLength="129.7842" x="717.19" y="695.7766">integration coverage</text></g><!--link T_JsonPit to P_RaiUtils--><g class="link" data-entity-1="ent0051" data-entity-2="ent0013" data-link-type="dependency" data-source-line="110" id="lnk75"><path codeLine="110" d="M1169.2627,960.4583 C1169.6062,960.4583 1169.9598,960.4583 1170.323,960.4583 C1176.1349,960.4583 1184.4377,960.4583 1194.4009,960.4583 C1214.3275,960.4583 1240.8963,960.4583 1267.465,960.4583 C1320.6025,960.4583 1373.74,960.4583 1373.74,960.4583 C1373.74,960.4583 1373.74,507.4583 1373.74,507.4583 C1373.74,507.4583 1471.52,507.4583 1471.52,507.4583 C1471.52,507.4583 1471.52,490.9477 1471.52,465.9883 C1471.52,453.5086 1471.52,438.9167 1471.52,423.2204 C1471.52,415.3722 1471.52,407.2479 1471.52,398.9735 C1471.52,397.9392 1471.52,396.9026 1471.52,395.8638 C1471.52,395.3444 1471.52,400.8246 1471.52,400.3042" fill="none" id="T_JsonPit-to-P_RaiUtils" style="stroke:#4B5563;stroke-width:1;stroke-dasharray:7,7;"/><polygon fill="#4B5563" points="1471.52,394.3042,1467.52,403.3042,1471.52,399.3042,1475.52,403.3042,1471.52,394.3042" style="stroke:#4B5563;stroke-width:1;"/><text fill="#000000" font-family="sans-serif" font-size="13" lengthAdjust="spacing" textLength="129.7842" x="1243.74" y="655.8566">integration coverage</text></g><!--link GMN76 to P_OsLib--><g class="link" data-entity-1="ent0077" data-entity-2="ent0002" data-link-type="association" data-source-line="113" id="lnk78"><path d="M284.05,132.1283 C284.05,149.8183 284.05,172.4583 284.05,172.4583 C284.05,172.4583 292.3536,172.4583 306.8849,172.4583 C310.5177,172.4583 314.5398,172.4583 318.9186,172.4583" fill="none" id="GMN76-P_OsLib" style="stroke:#4B5563;stroke-width:1;stroke-dasharray:7,7;"/></g><!--link GMN79 to P_RaiUtils--><g class="link" data-entity-1="ent0080" data-entity-2="ent0013" data-link-type="association" data-source-line="118" id="lnk81"><path d="M1472.19,139.6883 C1472.19,143.8108 1472.19,148.2136 1472.19,152.7744 C1472.19,155.0548 1472.19,157.3747 1472.19,159.7189 C1472.19,160.8909 1472.19,162.069 1472.19,163.2513" fill="none" id="GMN79-P_RaiUtils" style="stroke:#4B5563;stroke-width:1;stroke-dasharray:7,7;"/></g><!--link P_JsonPit to GMN82--><g class="link" data-entity-1="ent0019" data-entity-2="ent0083" data-link-type="association" data-source-line="124" id="lnk84"><path d="M2311.9205,500.4583 C2312.0012,500.4583 2312.0825,500.4583 2312.1644,500.4583 C2312.3282,500.4583 2312.4942,500.4583 2312.6625,500.4583 C2318.0475,500.4583 2325.73,500.4583 2334.92,500.4583" fill="none" id="P_JsonPit-GMN82" style="stroke:#4B5563;stroke-width:1;stroke-dasharray:7,7;"/></g><!--link P_RaiImage to GMN85--><g class="link" data-entity-1="ent0029" data-entity-2="ent0086" data-link-type="association" data-source-line="129" id="lnk87"><path d="M803.11,512.4583 C803.6006,512.4583 804.0992,512.4583 804.6057,512.4583 C806.6319,512.4583 808.785,512.4583 811.06,512.4583 C829.26,512.4583 855.26,512.4583 886.46,512.4583 C948.86,512.4583 1032.06,512.4583 1115.26,512.4583 C1281.66,512.4583 1448.06,512.4583 1448.06,512.4583 C1448.06,512.4583 1448.06,568.0683 1448.06,603.2583" fill="none" id="P_RaiImage-GMN85" style="stroke:#4B5563;stroke-width:1;stroke-dasharray:7,7;"/></g><g class="legend" data-source-line="134"><rect fill="none" height="59.4648" rx="7.5" ry="7.5" style="stroke:#000000;stroke-width:1;" width="397.1602" x="2234.1309" y="1317.4583"/><text fill="#000000" font-family="sans-serif" font-size="14" lengthAdjust="spacing" textLength="354.498" x="2239.1309" y="1335.9934">Solid package contents show representative classes.</text><text fill="#000000" font-family="sans-serif" font-size="14" lengthAdjust="spacing" textLength="333.7373" x="2239.1309" y="1352.4817">Dashed arrows show project-level dependencies.</text><text fill="#000000" font-family="sans-serif" font-size="14" lengthAdjust="spacing" textLength="387.1602" x="2239.1309" y="1368.97">&#171;tests&#187; packages represent test projects in RAIkeep.slnx.</text></g><?plantuml-src ZLTHJzmu47wEVuNLlW8gj8NsL25nkt2YkW9YGr-gwkHD9XiVZXtPPfTjrVz-Ow-JECc6tWlOdh7dcy-V9xEMMm7q_kBw4Q2cTonxP2kWSwX1vY0p3eOGgsfg5LqgQrL5SwuXirn9GimZbpNJhA9BtBZIwadcCoMKffkIMuZifcIvsd2veWKJ9hRKkv0BkqKSxcGcLo9s45o2tTP0bRQbYWmNMglDBjphTyltxq_VHiQGoPzAvw23qt5nyl7jsTZfIadRk1mVVpY9NMQ26TCxvNHvTlBXpSXbGC3hucF1YcNaTgCiZBsAuYm_7Nh5uV9to-CtfuG4dkYhM_CtNxwYpD2xV_oO_YH9vZ3GMzECxXc_uaXZDxrZjeocYwsnK3KBAJpRs7zcrl4qhUgUbKabUSR4tiKua1lFb5o3T899yHR9hoWLnF5WkJ0XcsRQ9NHPCIwQoMUZf3zC6ppiyjc2T0FJ1KC2mOAUSwzFfhTTmZ9NrNZB0fZEoildMeDnXXuw5--Esm0kp3firn5_RemIC11ZHUzu2QVHCDuTfYsgBmplHby9jee9ljCgGvJ3vPHNO2ohQiY_Cl4q8lYwmb57i9zsISoGCJ6BK7hLNSj2DGlpRMlpU-FOVY7LC5xymbOyU-mjFUZs9XSwYwJL3ZTgmNzWmVarLFjHYYcYIZvzicvmVkxIIOVgdmdrb2-iqhZnOeMeAfITtxdFOyvDfb1Bsvv7Nx2cPmklOBUsJyOJC2TatJjxGji3R2Dzz-n3aVUCGwMFimYIdKXY9Fy7oVlaelKYnxecioUjyTEn7LgTnXTWKSSrQBkTbLZfOOu9-Mpsqkg5CqthGCojFdkHUo8TMtPARQCtDVNmMybp_09-ny-MF3oFgXE92jNOA_14keAnzoGVcaGlSkWLr4tI2JoTh4WwZQUzDv9EukcO917gewDl4j-9VFn-tdvd_d0rw5-yhdiem5qnJ6ve4UtP4wVzlyDCx7WnJiFT_Y1UJ35vaoT7dXCOTikDPqHstxDPxOvycMukBQmqSy-3-cBbBYdzFULxzn69hGKLK5YgYYO8IQvSDx9p5NofiQZG0lkEsyK1jcQsD0SaAV3Xc0F4NDKqZB7KqCnLqqEjbCMUC1JJ8u9z8tMHGZpNE_fmhLmJzu_RRHjkmsr9FozkRn1hKm4nglRbZF_ms1oOKFqEABZoYHuEXF5rZPOWiAYOKVZGite4pLD86lvot-MQqD6ABKKETjIxazkgJf9hQtOtHh5vLHIUGMVSO7Abmhzvr2o_2A1zPqah6TserUo9Z5qqI988XLqLhNVoHWWQA5iZ0smf8Dm4awwl5huD9mdswZTFVu5jUkiuYh8bw0s2Zv4AMBc9vgiIwLaemVDsBzu9Vb0mhYdL1azo7n2SuwsiqUZggCiwcJDJGexWi2SFlW7neO0rY05BILVCGo3JdUsvxXBcilbzScI4VFR0TuZ9Vm00?></g></svg>